<svg width="70" height="15" viewBox="0 0 70 15" fill="none" xmlns="http://www.w3.org/2000/svg">
<path d="M8.30512 11.5897H10.5619L6.49966 0.72976H4.09238L0 11.5897H2.19664L3.08433 9.10832H7.41743L8.30512 11.5897ZM5.25088 3.0733L6.72534 7.17834H3.77642L5.25088 3.0733Z" fill="#222222"/>
<path d="M13.7475 14.5V10.8545C14.1086 11.36 14.8608 11.7735 15.8839 11.7735C17.9753 11.7735 19.3745 10.0886 19.3745 7.80635C19.3745 5.57002 18.1257 3.88512 15.9592 3.88512C14.8458 3.88512 14.0183 4.39059 13.6873 4.97265V4.05361H11.7464V14.5H13.7475ZM17.4035 7.82166C17.4035 9.16959 16.5911 9.95077 15.568 9.95077C14.5449 9.95077 13.7174 9.15427 13.7174 7.82166C13.7174 6.48906 14.5449 5.70788 15.568 5.70788C16.5911 5.70788 17.4035 6.48906 17.4035 7.82166Z" fill="#222222"/>
<path d="M22.9599 14.5V10.8545C23.321 11.36 24.0733 11.7735 25.0964 11.7735C27.1877 11.7735 28.5869 10.0886 28.5869 7.80635C28.5869 5.57002 27.3381 3.88512 25.1716 3.88512C24.0582 3.88512 23.2307 4.39059 22.8997 4.97265V4.05361H20.9588V14.5H22.9599ZM26.616 7.82166C26.616 9.16959 25.8035 9.95077 24.7804 9.95077C23.7573 9.95077 22.9298 9.15427 22.9298 7.82166C22.9298 6.48906 23.7573 5.70788 24.7804 5.70788C25.8035 5.70788 26.616 6.48906 26.616 7.82166Z" fill="#222222"/>
<path d="M41.2157 3.31838C40.975 2.093 39.982 0.5 37.3942 0.5C35.3781 0.5 33.6779 1.97046 33.6779 3.90044C33.6779 5.53939 34.7763 6.65755 36.4764 7.00985L37.9659 7.31619C38.7934 7.48468 39.2598 7.97484 39.2598 8.60285C39.2598 9.36871 38.6429 9.93545 37.5296 9.93545C36.025 9.93545 35.2878 8.97046 35.1975 7.89825L33.2717 8.41904C33.4372 9.96608 34.686 11.8195 37.5145 11.8195C39.997 11.8195 41.3662 10.1346 41.3662 8.46499C41.3662 6.93326 40.328 5.64661 38.3872 5.26368L36.8977 4.97265C36.1153 4.81948 35.7392 4.34464 35.7392 3.74727C35.7392 3.02735 36.4012 2.36871 37.4092 2.36871C38.7633 2.36871 39.2448 3.30306 39.3501 3.90044L41.2157 3.31838Z" fill="#222222"/>
<path d="M45.5097 1.80197H43.7042V2.85886C43.7042 3.53282 43.3431 4.05361 42.5608 4.05361H42.1846V5.86105H43.5237V9.36871C43.5237 10.8239 44.4264 11.6969 45.8708 11.6969C46.4576 11.6969 46.8186 11.5897 46.9992 11.5131V9.82823C46.8939 9.85886 46.6231 9.8895 46.3823 9.8895C45.8106 9.8895 45.5097 9.67506 45.5097 9.01641V5.86105H46.9992V4.05361H45.5097V1.80197Z" fill="#222222"/>
<path d="M51.9506 9.96608C50.9726 9.96608 50.0699 9.23085 50.0699 7.82166C50.0699 6.39716 50.9726 5.67724 51.9506 5.67724C52.9285 5.67724 53.8313 6.39716 53.8313 7.82166C53.8313 9.24617 52.9285 9.96608 51.9506 9.96608ZM51.9506 3.82385C49.7389 3.82385 48.0688 5.49344 48.0688 7.82166C48.0688 10.1346 49.7389 11.8195 51.9506 11.8195C54.1623 11.8195 55.8323 10.1346 55.8323 7.82166C55.8323 5.49344 54.1623 3.82385 51.9506 3.82385Z" fill="#222222"/>
<path d="M61.9255 4.02298C61.7751 4.00766 61.6246 3.99234 61.4591 3.99234C60.8272 3.99234 59.8041 4.17615 59.3527 5.17177V4.05361H57.4119V11.5897H59.4129V8.14333C59.4129 6.51969 60.3006 6.01422 61.3237 6.01422C61.5042 6.01422 61.6998 6.02954 61.9255 6.07549V4.02298Z" fill="#222222"/>
<path d="M64.719 6.96389C64.7642 6.27462 65.3359 5.47812 66.374 5.47812C67.5175 5.47812 67.9989 6.21335 68.029 6.96389H64.719ZM68.2246 8.92451C67.9839 9.59847 67.4724 10.0733 66.5395 10.0733C65.5465 10.0733 64.719 9.35339 64.6739 8.35777H69.9699C69.9699 8.32713 70 8.02079 70 7.72976C70 5.30963 68.6309 3.82385 66.3439 3.82385C64.4482 3.82385 62.7029 5.38621 62.7029 7.79103C62.7029 10.3337 64.4933 11.8195 66.5245 11.8195C68.345 11.8195 69.5185 10.7319 69.8947 9.42998L68.2246 8.92451Z" fill="#222222"/>
</svg>
