<svg width="18" height="21" viewBox="0 0 18 21" fill="none" xmlns="http://www.w3.org/2000/svg">
<path fill-rule="evenodd" clip-rule="evenodd" d="M18 15.7839C17.5078 16.8033 17.2728 17.2583 16.6389 18.159C15.7559 19.4169 14.5099 20.9835 12.966 20.9968C11.5945 21.0087 11.242 20.1621 9.38022 20.1723C7.5184 20.1824 7.13041 21.0118 5.75891 20.9999C4.21498 20.987 3.03536 19.5724 2.15135 18.3137C-0.319701 14.7959 -0.577892 10.668 0.946144 8.47354C2.02912 6.91312 3.73839 6.00133 5.34486 6.00133C6.9807 6.00133 8.0092 6.84002 9.36222 6.84002C10.6745 6.84002 11.4737 6 13.3654 6C14.7951 6 16.3102 6.72793 17.3898 7.98575C13.8524 9.79826 14.4275 14.5207 18 15.7839Z" fill="#222222"/>
<path fill-rule="evenodd" clip-rule="evenodd" d="M12.7799 3.37312C13.5724 2.49787 14.1732 1.26304 13.9547 0C12.6602 0.076149 11.1473 0.784993 10.2636 1.70865C9.46124 2.54676 8.79872 3.79006 9.05652 4.99857C10.4684 5.03664 11.9305 4.31041 12.7799 3.37312Z" fill="#222222"/>
</svg>
