<svg width="42" height="42" viewBox="0 0 42 42" fill="none" xmlns="http://www.w3.org/2000/svg">
<g clip-path="url(#clip0_382_3179)">
<path d="M9.0668 24.1231C8.92341 24.2382 8.75166 24.2941 8.58117 24.2941C8.35345 24.2941 8.12778 24.1945 7.97429 24.0027L7.86753 23.8693C7.7527 23.7259 7.69684 23.5543 7.69674 23.3837C7.69665 23.1555 7.79622 22.9293 7.98789 22.7755C8.32275 22.5069 8.81189 22.5606 9.0804 22.8959L9.18717 23.0292C9.30199 23.1727 9.35785 23.3443 9.35805 23.5149C9.35805 23.7431 9.25837 23.9692 9.0668 24.1231ZM11.2764 28.1285C11.4299 28.3206 11.6558 28.4205 11.8837 28.4205C12.054 28.4205 12.2255 28.3647 12.3688 28.2499C12.5606 28.0963 12.6603 27.8701 12.6604 27.642C12.6604 27.4714 12.6048 27.2997 12.49 27.1562L12.3835 27.0228C12.1153 26.6873 11.6261 26.6329 11.2911 26.9015C11.0993 27.055 10.9995 27.2812 10.9994 27.5094C10.9994 27.6799 11.0551 27.8517 11.1698 27.9951L11.2764 28.1285ZM10.9661 24.499C11.1368 24.499 11.3087 24.443 11.4522 24.3277C11.6438 24.1737 11.7432 23.9474 11.7429 23.7193C11.7426 23.5486 11.6866 23.377 11.5716 23.2337L11.4648 23.1004C11.1961 22.7654 10.7068 22.7119 10.3722 22.9809C10.1813 23.1344 10.0819 23.3597 10.0815 23.587C10.0813 23.7583 10.1373 23.9308 10.2527 24.0749L10.3595 24.2081C10.5131 24.3995 10.7386 24.499 10.9661 24.499ZM8.99637 26.6158C9.14986 26.8074 9.37543 26.907 9.60305 26.907C9.77364 26.907 9.94539 26.8511 10.0889 26.7358C10.2805 26.5819 10.38 26.3557 10.3798 26.1275C10.3796 25.957 10.3237 25.7852 10.2089 25.6419L10.1021 25.5087C9.83348 25.1736 9.34435 25.1198 9.00958 25.3887C8.81801 25.5425 8.71843 25.7688 8.71863 25.997C8.71882 26.1675 8.77478 26.3393 8.88961 26.4825L8.99637 26.6158ZM0.670719 18.3955C-0.384195 17.0773 -0.171445 15.1456 1.14499 14.0893C1.79636 13.5666 2.60899 13.3449 3.39898 13.4337C3.48457 12.6427 3.87762 11.8967 4.52889 11.374C5.84542 10.3176 7.77485 10.5305 8.82986 11.8487C9.717 12.9572 9.70768 14.4995 8.89961 15.5903L10.2707 17.3033L10.8869 16.8089C11.0567 16.6728 11.2755 16.6141 11.4902 16.6468C11.793 16.6931 12.1001 16.76 12.4031 16.8457C12.8162 16.9625 13.0564 17.3925 12.9397 17.8061C12.8231 18.2196 12.3937 18.4606 11.9805 18.3433C11.8482 18.3059 11.7153 18.273 11.5826 18.2449L6.30599 22.4788C6.29667 23.3414 6.47435 24.2509 6.82582 25.1301C6.98534 25.5291 6.79153 25.982 6.39304 26.1416C6.29832 26.1796 6.20059 26.1975 6.10451 26.1975C5.79617 26.1975 5.50434 26.0125 5.38271 25.7084C4.89951 24.4995 4.68695 23.2312 4.76826 22.0403C4.78303 21.8232 4.88804 21.6222 5.05766 21.4861L5.67376 20.9918L4.30264 19.2787C3.06315 19.8308 1.55786 19.5037 0.670719 18.3955ZM3.99964 17.6557C4.14303 17.5406 4.31468 17.4848 4.48518 17.4848C4.71289 17.4848 4.93856 17.5845 5.09215 17.7763L6.88683 20.0185L9.05796 18.2765L7.26328 16.0343C7.13436 15.8734 7.07471 15.6675 7.09725 15.4624C7.11979 15.2574 7.22286 15.0695 7.38374 14.9406C8.03141 14.4208 8.13614 13.4704 7.61699 12.8219C7.09793 12.1735 6.14871 12.0685 5.50104 12.5884C4.99248 12.9964 4.80382 13.6809 5.03172 14.2916C5.14917 14.6063 5.05164 14.961 4.78973 15.1711C4.52792 15.3813 4.1609 15.3995 3.87966 15.216C3.33399 14.8606 2.62569 14.8956 2.11704 15.3037C1.46936 15.8234 1.36464 16.7738 1.88359 17.4223C2.40274 18.0706 3.35196 18.1756 3.99964 17.6557ZM16.714 18.9796V20.3265C16.714 20.7562 17.062 21.1046 17.4912 21.1046C17.9203 21.1046 18.2683 20.7562 18.2683 20.3265V18.9796C18.2683 18.5499 17.9203 18.2015 17.4912 18.2015C17.062 18.2015 16.714 18.5499 16.714 18.9796ZM25.4402 19.5235C24.8735 19.0871 24.279 18.8608 23.673 18.8508C23.6644 18.8505 23.6559 18.8505 23.6475 18.8508C22.6184 18.8677 21.5945 19.534 20.7644 20.7271C19.5118 22.5272 18.6761 25.5838 19.5026 27.9424C19.6148 28.2627 19.9151 28.4632 20.2359 28.4632C20.3212 28.4632 20.4081 28.449 20.4932 28.4191C20.8982 28.2769 21.1114 27.8329 20.9693 27.4273C20.3462 25.6488 21.0243 23.0764 22.0398 21.6168C22.5645 20.8627 23.1544 20.4228 23.6604 20.4073C23.9215 20.4152 24.2014 20.5328 24.4925 20.7572C24.8326 21.0192 25.3207 20.9554 25.5824 20.6149C25.844 20.2741 25.7804 19.7857 25.4402 19.5235ZM30.8764 27.676C31.3078 27.6851 31.6616 27.3463 31.6718 26.9165C31.7261 24.6386 30.9654 22.0628 29.1433 21.4431C29.1352 21.4404 29.1271 21.4377 29.119 21.4353C28.305 21.1882 27.3674 21.3579 26.4081 21.9266C24.608 22.9939 22.9743 25.3292 22.5234 27.4795C22.4353 27.9001 22.7043 28.3126 23.1244 28.4009C23.1782 28.4122 23.2319 28.4178 23.2848 28.4178C23.6447 28.4178 23.9677 28.1659 24.0447 27.7993C24.4081 26.0659 25.7646 24.117 27.2001 23.2658C27.7599 22.9338 28.2761 22.8116 28.6553 22.9211C29.5363 23.2341 30.1644 24.9311 30.118 26.8797C30.1078 27.3091 30.4473 27.6657 30.8764 27.676ZM7.71209 9.52131C7.82138 9.57442 7.93689 9.59961 8.05075 9.59961C8.33908 9.59961 8.61614 9.43824 8.75049 9.16093C8.78236 9.09518 9.16735 8.10655 9.20067 8.0302C11.0228 4.53528 14.5136 2.21866 18.7802 1.67348C23.2278 1.10553 27.6882 2.63759 30.421 5.67273C30.7083 5.99186 31.1999 6.01735 31.5185 5.72973C31.8374 5.44191 31.8628 4.94984 31.5754 4.6307C30.0152 2.89788 27.9541 1.57183 25.615 0.795929C23.3872 0.0568906 20.9558 -0.173244 18.5834 0.129647C13.7987 0.74107 9.8738 3.36369 7.81487 7.3253C7.77572 7.40068 7.37179 8.43532 7.3477 8.49105C7.16739 8.87584 7.32904 9.33524 7.71209 9.52131ZM23.8641 16.2619C24.1593 16.574 24.1459 17.0665 23.8342 17.362C23.5226 17.6575 23.0307 17.6441 22.7355 17.3321C22.4581 17.0388 22.105 16.8421 21.7147 16.7632C21.352 16.6899 21.0913 16.3709 21.0913 16.0004V14.9926H17.6687V16.0004C17.6687 16.3709 17.4079 16.6899 17.0453 16.7632C16.1467 16.9447 15.4947 17.7415 15.4947 18.6576V27.4483C15.4947 27.878 15.1467 28.2264 14.7175 28.2264C14.2883 28.2264 13.9403 27.878 13.9403 27.4483V18.6576C13.9403 17.2242 14.8238 15.9528 16.1145 15.4259V14.5747C15.7445 14.2566 15.5096 13.7849 15.5096 13.2595V12.2334C15.5096 11.2779 16.286 10.5004 17.2405 10.5004H21.5197C22.4742 10.5004 23.2506 11.2779 23.2506 12.2334V13.2595C23.2506 13.785 23.0158 14.2567 22.6456 14.5747V15.4255C23.1032 15.612 23.5171 15.8951 23.8641 16.2619ZM21.6963 12.2334C21.6963 12.1376 21.6155 12.0567 21.5198 12.0567H17.2406C17.1448 12.0567 17.064 12.1376 17.064 12.2334V13.2595C17.064 13.332 17.1103 13.396 17.1743 13.4229C17.1765 13.4238 17.1787 13.4248 17.181 13.4255C17.1997 13.4325 17.2198 13.4363 17.2406 13.4363H21.5198C21.5401 13.4363 21.5598 13.4327 21.5782 13.426C21.5813 13.4248 21.5843 13.4236 21.5874 13.4224C21.6507 13.3953 21.6964 13.3315 21.6964 13.2595V12.2334H21.6963ZM38.4593 27.9312C38.4192 29.6768 37.2883 31.9196 35.3566 34.0844C33.4766 36.1911 31.0576 38.003 28.5012 39.2259V41.2219C28.5012 41.6516 28.1532 42 27.724 42H13.529C13.0998 42 12.7519 41.6516 12.7519 41.2219V39.2259C10.1954 38.003 7.77631 36.1911 5.89642 34.0844C3.96457 31.9196 2.83369 29.6769 2.79366 27.9312C2.78676 27.6275 2.95696 27.3474 3.22965 27.2141C3.50244 27.0808 3.82769 27.1187 4.06259 27.311C4.40008 27.5874 5.6556 28.2867 10.0133 28.8111C12.9673 29.1665 16.7365 29.3623 20.6266 29.3623C24.5166 29.3623 28.2858 29.1665 31.2397 28.8111C35.5973 28.2867 36.8528 27.5874 37.1903 27.3111C37.4252 27.1188 37.7506 27.0809 38.0233 27.2141C38.2959 27.3474 38.4662 27.6275 38.4593 27.9312ZM26.9467 39.5067H14.3062V40.4437H26.9467V39.5067ZM36.6024 29.3171C32.2833 30.8314 22.7425 30.9186 20.6265 30.9186C18.5104 30.9186 8.96965 30.8315 4.65042 29.3171C4.90203 30.0001 5.30393 30.7424 5.8324 31.5037C5.846 31.5185 5.85912 31.5339 5.87185 31.5501C5.98483 31.6937 6.22585 31.9346 6.5712 31.9346C6.87857 31.9346 7.17069 31.7403 7.37266 31.4016C7.5927 31.0326 8.06969 30.9123 8.43836 31.1323C8.80684 31.3526 8.9273 31.8304 8.70726 32.1993C8.37424 32.7578 7.89045 33.1609 7.34119 33.3568C7.90765 33.9621 8.54134 34.5593 9.23098 35.1293C9.47375 34.8528 9.88613 34.7801 10.2129 34.9757C10.5814 35.1961 10.7017 35.6739 10.4815 36.0429C10.4754 36.0532 10.4692 36.0635 10.4629 36.0737C11.4621 36.7832 12.5493 37.4242 13.6967 37.9505H27.5562C28.6329 37.4566 29.6565 36.8618 30.6042 36.2041C30.5684 36.1519 30.534 36.0981 30.501 36.0429C30.2808 35.674 30.4009 35.1962 30.7694 34.9757C31.1378 34.7552 31.6151 34.8756 31.8352 35.2445C31.8402 35.2529 31.8453 35.2612 31.8505 35.2695C32.6103 34.6548 33.3052 34.0058 33.9204 33.3475C33.3819 33.1483 32.908 32.7492 32.5801 32.1994C32.3601 31.8305 32.4805 31.3527 32.8489 31.1324C33.2175 30.912 33.6947 31.0326 33.9146 31.4015C34.1167 31.7402 34.4087 31.9346 34.716 31.9346C34.9698 31.9346 35.1662 31.804 35.292 31.6857C35.884 30.8608 36.3308 30.0544 36.6024 29.3171ZM37.4316 11.0847C37.0621 10.866 36.5855 10.9888 36.3672 11.3588L36.2685 11.5259C36.1952 11.6502 36.1603 11.7867 36.1603 11.9212C36.1604 12.1873 36.2969 12.4464 36.5423 12.5918C36.6663 12.6652 36.8025 12.7 36.9369 12.7C37.2028 12.7 37.4617 12.5634 37.6067 12.3177L37.7054 12.1505C37.7787 12.0261 37.8136 11.8897 37.8136 11.7552C37.8134 11.489 37.677 11.2299 37.4316 11.0847ZM35.3 12.5968C34.9299 12.3791 34.4536 12.5029 34.2361 12.8734L34.1379 13.0407C34.0652 13.1645 34.0306 13.3001 34.0306 13.434C34.0305 13.7009 34.1677 13.9609 34.4142 14.1059C34.5378 14.1787 34.6735 14.2133 34.8072 14.2133C35.0737 14.2133 35.3333 14.076 35.478 13.8294L35.5762 13.6621C35.6489 13.5384 35.6835 13.4028 35.6835 13.2688C35.6836 13.0018 35.5463 12.7418 35.3 12.5968ZM35.5926 9.99919C35.2229 9.78053 34.7464 9.90357 34.5281 10.2736L34.4296 10.4407C34.3564 10.565 34.3215 10.7015 34.3216 10.836C34.3218 11.1021 34.4584 11.3612 34.7038 11.5063C34.8278 11.5797 34.9638 11.6145 35.0982 11.6145C35.3641 11.6145 35.6232 11.4777 35.7681 11.2319L35.8666 11.0648C35.9399 10.9404 35.9747 10.804 35.9746 10.6695C35.9745 10.4034 35.8379 10.1443 35.5926 9.99919ZM41.9613 13.0258C41.0195 15.9003 39.5691 19.0377 37.767 22.0985C36.9987 23.4033 36.1821 24.6676 35.3401 25.8564C35.1885 26.0703 34.9489 26.1845 34.7055 26.1845C34.55 26.1845 34.3931 26.1379 34.2566 26.0409C33.9065 25.7923 33.8239 25.3066 34.0723 24.9561C34.8893 23.8028 35.6818 22.5754 36.4281 21.3082C37.8951 18.8165 39.1197 16.2783 40.0118 13.888C39.7992 13.9667 39.5794 14.0582 39.3536 14.1617C39.3288 14.1748 39.3033 14.1866 39.2771 14.197C37.1251 15.2026 34.4207 17.2932 31.733 20.0784C31.6554 20.3035 31.5759 20.5293 31.4943 20.7564C31.349 21.1607 30.9042 21.3709 30.4999 21.2251C30.0961 21.0797 29.8865 20.6339 30.0317 20.2296C30.1281 19.9613 30.2215 19.6945 30.3122 19.4291C30.3159 19.4172 30.32 19.4053 30.3243 19.3936C31.6393 15.5332 32.3451 11.9874 32.3199 9.49894C32.3177 9.46908 32.3174 9.43912 32.3186 9.40926C32.3177 9.35956 32.3166 9.31024 32.3151 9.26141C30.7768 11.174 29.2582 13.3871 27.8677 15.7486C27.4505 16.457 27.0452 17.1786 26.6631 17.8934C26.4606 18.2724 25.9895 18.4151 25.6111 18.2122C25.2327 18.0094 25.0901 17.5378 25.2927 17.1589C25.6849 16.4254 26.1008 15.685 26.5287 14.9582C28.3069 11.9383 30.2937 9.14878 32.2743 6.89139C32.4644 6.67487 32.7586 6.58121 33.0386 6.64813C33.3186 6.71505 33.5388 6.93147 33.6108 7.21062C33.659 7.39748 33.7002 7.59444 33.7349 7.80123C36.0038 5.87855 37.8653 5.26722 39.1648 6.03437C40.8368 7.02124 40.708 9.70631 40.1282 12.2173C40.4797 12.1165 40.8153 12.047 41.1333 12.0101C41.3964 11.9794 41.6573 12.0854 41.8249 12.291C41.9925 12.4966 42.0439 12.7735 41.9613 13.0258ZM38.3755 7.3751C37.7968 7.0335 36.2771 7.46975 33.8704 9.7743C33.8512 11.758 33.448 14.2332 32.6957 16.9756C34.6926 15.1643 36.6304 13.7778 38.3388 12.9301C39.2751 9.63434 39.0417 7.76845 38.3755 7.3751ZM37.6133 8.66964C37.2434 8.45147 36.7671 8.5748 36.5492 8.945L36.4507 9.1122C36.3776 9.23661 36.3428 9.37308 36.343 9.5076C36.3434 9.77372 36.4803 10.0327 36.7258 10.1777C36.8496 10.2507 36.9854 10.2854 37.1195 10.2854C37.3857 10.2854 37.645 10.1485 37.7898 9.90231L37.8882 9.7351C37.9614 9.6107 37.9962 9.47423 37.996 9.33971C37.9957 9.07359 37.8589 8.81457 37.6133 8.66964ZM13.8635 32.8077C14.0835 32.4388 13.9632 31.961 13.5947 31.7407C13.2263 31.5203 12.749 31.6408 12.529 32.0098C12.3269 32.3485 12.0349 32.5428 11.7275 32.5428C11.4203 32.5428 11.1283 32.3485 10.9264 32.0098C10.7063 31.6409 10.2294 31.5204 9.86068 31.7405C9.4922 31.9608 9.37174 32.4386 9.59178 32.8075C10.0739 33.6161 10.8724 34.099 11.7275 34.099C12.5827 34.0991 13.3812 33.6163 13.8635 32.8077ZM19.7059 32.8078C19.926 32.4389 19.8057 31.9611 19.4372 31.7407C19.0688 31.5205 18.5915 31.6408 18.3714 32.0098C18.1692 32.3484 17.8772 32.5428 17.5699 32.5428C17.2627 32.5428 16.9706 32.3485 16.7686 32.0098C16.5485 31.6409 16.0715 31.5204 15.7029 31.7407C15.3344 31.961 15.214 32.4388 15.4341 32.8077C15.9164 33.6163 16.7149 34.0991 17.5699 34.0991C18.425 34.0991 19.2235 33.6163 19.7059 32.8078ZM29.2546 34.0991C30.1098 34.0991 30.9083 33.6163 31.3906 32.8077C31.6106 32.4388 31.4903 31.961 31.1218 31.7407C30.7533 31.5203 30.2762 31.6408 30.0561 32.0098C29.854 32.3485 29.562 32.5428 29.2546 32.5428C28.9473 32.5428 28.6553 32.3485 28.4533 32.0098C28.2331 31.6408 27.756 31.5204 27.3876 31.7407C27.0191 31.961 26.8987 32.4388 27.1188 32.8077C27.6011 33.6163 28.3995 34.0991 29.2546 34.0991ZM16.2857 34.9756C15.9172 34.7553 15.4401 34.8757 15.22 35.2447C15.0178 35.5834 14.7257 35.7777 14.4184 35.7777C14.1112 35.7777 13.8192 35.5834 13.6169 35.2447C13.3968 34.8757 12.9196 34.7552 12.5513 34.9756C12.1828 35.196 12.0625 35.6738 12.2825 36.0428C12.765 36.8513 13.5634 37.334 14.4183 37.334C15.2734 37.334 16.0718 36.8512 16.5543 36.0428C16.7745 35.6737 16.6541 35.1959 16.2857 34.9756ZM19.6898 35.2447C19.4697 34.8757 18.9926 34.7552 18.6241 34.9755C18.2556 35.1958 18.1352 35.6736 18.3553 36.0426C18.8376 36.8511 19.636 37.3339 20.4911 37.3339C21.3464 37.3339 22.1449 36.8511 22.6271 36.0426C22.8471 35.6735 22.7268 35.1958 22.3583 34.9754C21.9898 34.7554 21.5126 34.8757 21.2926 35.2447C21.0906 35.5834 20.7985 35.7776 20.4911 35.7776C20.1839 35.7777 19.8917 35.5835 19.6898 35.2447ZM23.4122 34.0991C24.2674 34.0991 25.066 33.6163 25.5483 32.8077C25.7683 32.4388 25.648 31.961 25.2795 31.7407C24.911 31.5203 24.4339 31.6408 24.2138 32.0098C24.0117 32.3485 23.7196 32.5428 23.4123 32.5428C23.1051 32.5428 22.813 32.3485 22.611 32.0098C22.3909 31.6409 21.9138 31.5204 21.5453 31.7407C21.1768 31.961 21.0564 32.4388 21.2765 32.8077C21.7587 33.6163 22.5571 34.0991 23.4122 34.0991ZM24.6967 34.9756C24.3282 35.1959 24.2079 35.6737 24.4279 36.0427C24.9102 36.8512 25.7087 37.334 26.5638 37.334C27.4188 37.334 28.2173 36.8512 28.6997 36.0428C28.9199 35.6738 28.7995 35.196 28.431 34.9756C28.0625 34.7553 27.5854 34.8757 27.3653 35.2447C27.1632 35.5834 26.871 35.7777 26.5638 35.7777C26.2565 35.7777 25.9645 35.5835 25.7624 35.2448C25.5425 34.8757 25.0654 34.7552 24.6967 34.9756Z" fill="white"/>
</g>
<defs>
<clipPath id="clip0_382_3179">
<rect width="42" height="42" fill="white"/>
</clipPath>
</defs>
</svg>
