<svg width="24" height="16" viewBox="0 0 24 16" fill="none" xmlns="http://www.w3.org/2000/svg">
<g clip-path="url(#clip0_382_3019)">
<path d="M23.2258 0H12.3871L0.421875 8.55703V15.6693H23.2258L24 15.2V13.7143L23.4961 13.2191V11.8145L24 11.4286V9.14284L23.5469 8.69426V7.25726L24 6.85707V4.57139L23.5469 4.1573V2.89792L24 2.28572V0.799995C24 0.358148 23.6534 0 23.2258 0Z" fill="#E5646E"/>
<path d="M12.0156 2.28516H24V4.57088H12.0156V2.28516Z" fill="#F2F2F6"/>
<path d="M12 6.85742L12.3871 9.14314H24V6.85742H12Z" fill="#F2F2F6"/>
<path d="M0.774188 12.8V8.72656L0 9.14283V11.4286L0.328125 11.7176V13.2191L0 13.7143V15.2C0 15.6418 0.346641 16 0.774188 16H23.2258C23.6534 16 24 15.6418 24 15.2H3.0968C1.81406 15.2 0.774188 14.1255 0.774188 12.8Z" fill="#DB4655"/>
<path d="M12.3871 0H0.774188L0.28125 0.799995L0.774188 9.14284H12.3871V0Z" fill="#5055A0"/>
<path d="M0.774188 0C0.346641 0 0 0.358148 0 0.799995V9.14284H0.774188V0Z" fill="#3F3F8F"/>
<path d="M1.55206 1.78242C1.33807 1.78242 1.16309 1.6033 1.16309 1.38242C1.16309 1.16154 1.33432 0.982422 1.54831 0.982422H1.5521C1.76609 0.982422 1.9392 1.16154 1.9392 1.38242C1.9392 1.6033 1.76599 1.78242 1.55206 1.78242Z" fill="white"/>
<path d="M1.55206 4.98359C1.33807 4.98359 1.16309 4.80447 1.16309 4.58359C1.16309 4.36272 1.33432 4.18359 1.54831 4.18359H1.5521C1.76609 4.18359 1.9392 4.36272 1.9392 4.58359C1.9392 4.80447 1.76599 4.98359 1.55206 4.98359Z" fill="white"/>
<path d="M1.55206 8.18282C1.33807 8.18282 1.16309 8.0037 1.16309 7.78282C1.16309 7.56194 1.33432 7.38281 1.54831 7.38281H1.5521C1.76609 7.38281 1.9392 7.56194 1.9392 7.78282C1.9392 8.0037 1.76599 8.18282 1.55206 8.18282Z" fill="white"/>
<path d="M1.55206 3.38398C1.33807 3.38398 1.16309 3.20486 1.16309 2.98398C1.16309 2.76311 1.33432 2.58398 1.54831 2.58398H1.5521C1.76609 2.58398 1.9392 2.76311 1.9392 2.98398C1.93915 3.20486 1.76599 3.38398 1.55206 3.38398Z" fill="#F2F2F6"/>
<path d="M1.55206 6.5832C1.33807 6.5832 1.16309 6.40408 1.16309 6.1832C1.16309 5.96233 1.33432 5.7832 1.54831 5.7832H1.5521C1.76609 5.7832 1.9392 5.96233 1.9392 6.1832C1.9392 6.40408 1.76599 6.5832 1.55206 6.5832Z" fill="#F2F2F6"/>
<path d="M10.8426 1.78242C10.6286 1.78242 10.4536 1.6033 10.4536 1.38242C10.4536 1.16154 10.6248 0.982422 10.8388 0.982422H10.8426C11.0566 0.982422 11.2297 1.16154 11.2297 1.38242C11.2297 1.6033 11.0566 1.78242 10.8426 1.78242Z" fill="white"/>
<path d="M10.8426 4.98359C10.6286 4.98359 10.4536 4.80447 10.4536 4.58359C10.4536 4.36272 10.6248 4.18359 10.8388 4.18359H10.8426C11.0566 4.18359 11.2297 4.36272 11.2297 4.58359C11.2297 4.80447 11.0566 4.98359 10.8426 4.98359Z" fill="white"/>
<path d="M10.8426 8.18282C10.6286 8.18282 10.4536 8.0037 10.4536 7.78282C10.4536 7.56194 10.6248 7.38281 10.8388 7.38281H10.8426C11.0566 7.38281 11.2297 7.56194 11.2297 7.78282C11.2297 8.0037 11.0566 8.18282 10.8426 8.18282Z" fill="white"/>
<path d="M10.8426 3.38203C10.6286 3.38203 10.4536 3.2029 10.4536 2.98203C10.4536 2.76115 10.6248 2.58203 10.8388 2.58203H10.8426C11.0566 2.58203 11.2297 2.76115 11.2297 2.98203C11.2297 3.2029 11.0566 3.38203 10.8426 3.38203Z" fill="#F2F2F6"/>
<path d="M10.8426 6.5832C10.6286 6.5832 10.4536 6.40408 10.4536 6.1832C10.4536 5.96233 10.6248 5.7832 10.8388 5.7832H10.8426C11.0566 5.7832 11.2297 5.96233 11.2297 6.1832C11.2297 6.40408 11.0566 6.5832 10.8426 6.5832Z" fill="#F2F2F6"/>
<path d="M3.87481 1.78242C3.66082 1.78242 3.48584 1.6033 3.48584 1.38242C3.48584 1.16154 3.65707 0.982422 3.87106 0.982422H3.87486C4.08884 0.982422 4.26195 1.16154 4.26195 1.38242C4.26195 1.6033 4.08879 1.78242 3.87481 1.78242Z" fill="#F2F2F6"/>
<path d="M3.87481 4.98164C3.66082 4.98164 3.48584 4.80251 3.48584 4.58164C3.48584 4.36076 3.65707 4.18164 3.87106 4.18164H3.87486C4.08884 4.18164 4.26195 4.36076 4.26195 4.58164C4.26195 4.80251 4.08879 4.98164 3.87481 4.98164Z" fill="#F2F2F6"/>
<path d="M3.87481 8.18282C3.66082 8.18282 3.48584 8.0037 3.48584 7.78282C3.48584 7.56194 3.65707 7.38281 3.87106 7.38281H3.87486C4.08884 7.38281 4.26195 7.56194 4.26195 7.78282C4.26195 8.0037 4.08879 8.18282 3.87481 8.18282Z" fill="#F2F2F6"/>
<path d="M3.87481 3.38398C3.66082 3.38398 3.48584 3.20486 3.48584 2.98398C3.48584 2.76311 3.65707 2.58398 3.87106 2.58398H3.87486C4.08884 2.58398 4.26195 2.76311 4.26195 2.98398C4.2619 3.20486 4.08879 3.38398 3.87481 3.38398Z" fill="white"/>
<path d="M3.87481 6.5832C3.66082 6.5832 3.48584 6.40408 3.48584 6.1832C3.48584 5.96233 3.65707 5.7832 3.87106 5.7832H3.87486C4.08884 5.7832 4.26195 5.96233 4.26195 6.1832C4.26195 6.40408 4.08879 6.5832 3.87481 6.5832Z" fill="white"/>
<path d="M2.71367 2.5832C2.49969 2.5832 2.32471 2.40408 2.32471 2.1832C2.32471 1.96233 2.49594 1.7832 2.70992 1.7832H2.71372C2.9277 1.7832 3.10081 1.96233 3.10081 2.1832C3.10077 2.40412 2.92766 2.5832 2.71367 2.5832Z" fill="white"/>
<path d="M2.71367 5.78242C2.49969 5.78242 2.32471 5.60329 2.32471 5.38242C2.32471 5.16154 2.49594 4.98242 2.70992 4.98242H2.71372C2.9277 4.98242 3.10081 5.16154 3.10081 5.38242C3.10081 5.60329 2.92766 5.78242 2.71367 5.78242Z" fill="white"/>
<path d="M2.71367 4.18281C2.49969 4.18281 2.32471 4.00369 2.32471 3.78281C2.32471 3.56193 2.49594 3.38281 2.70992 3.38281H2.71372C2.9277 3.38281 3.10081 3.56193 3.10081 3.78281C3.10081 4.00369 2.92766 4.18281 2.71367 4.18281Z" fill="#F2F2F6"/>
<path d="M2.71367 7.38398C2.49969 7.38398 2.32471 7.20486 2.32471 6.98398C2.32471 6.76311 2.49594 6.58398 2.70992 6.58398H2.71372C2.9277 6.58398 3.10081 6.76311 3.10081 6.98398C3.10081 7.20486 2.92766 7.38398 2.71367 7.38398Z" fill="#F2F2F6"/>
<path d="M6.19756 1.78242C5.98358 1.78242 5.80859 1.6033 5.80859 1.38242C5.80859 1.16154 5.97983 0.982422 6.19381 0.982422H6.19761C6.41159 0.982422 6.5847 1.16154 6.5847 1.38242C6.5847 1.6033 6.4115 1.78242 6.19756 1.78242Z" fill="white"/>
<path d="M6.19756 4.98359C5.98358 4.98359 5.80859 4.80447 5.80859 4.58359C5.80859 4.36272 5.97983 4.18359 6.19381 4.18359H6.19761C6.41159 4.18359 6.5847 4.36272 6.5847 4.58359C6.5847 4.80447 6.4115 4.98359 6.19756 4.98359Z" fill="white"/>
<path d="M6.19756 8.18282C5.98358 8.18282 5.80859 8.0037 5.80859 7.78282C5.80859 7.56194 5.97983 7.38281 6.19381 7.38281H6.19761C6.41159 7.38281 6.5847 7.56194 6.5847 7.78282C6.5847 8.0037 6.4115 8.18282 6.19756 8.18282Z" fill="white"/>
<path d="M6.19756 3.38398C5.98358 3.38398 5.80859 3.20486 5.80859 2.98398C5.80859 2.76311 5.97983 2.58398 6.19381 2.58398H6.19761C6.41159 2.58398 6.5847 2.76311 6.5847 2.98398C6.58466 3.20486 6.4115 3.38398 6.19756 3.38398Z" fill="#F2F2F6"/>
<path d="M6.19756 6.5832C5.98358 6.5832 5.80859 6.40408 5.80859 6.1832C5.80859 5.96233 5.97983 5.7832 6.19381 5.7832H6.19761C6.41159 5.7832 6.5847 5.96233 6.5847 6.1832C6.5847 6.40408 6.4115 6.5832 6.19756 6.5832Z" fill="#F2F2F6"/>
<path d="M5.03594 2.5832C4.82196 2.5832 4.64697 2.40408 4.64697 2.1832C4.64697 1.96233 4.81821 1.7832 5.03219 1.7832H5.03599C5.24997 1.7832 5.42308 1.96233 5.42308 2.1832C5.42308 2.40412 5.24993 2.5832 5.03594 2.5832Z" fill="#F2F2F6"/>
<path d="M5.03594 5.78242C4.82196 5.78242 4.64697 5.60329 4.64697 5.38242C4.64697 5.16154 4.81821 4.98242 5.03219 4.98242H5.03599C5.24997 4.98242 5.42308 5.16154 5.42308 5.38242C5.42308 5.60329 5.24993 5.78242 5.03594 5.78242Z" fill="#F2F2F6"/>
<path d="M5.03594 4.18281C4.82196 4.18281 4.64697 4.00369 4.64697 3.78281C4.64697 3.56193 4.81821 3.38281 5.03219 3.38281H5.03599C5.24997 3.38281 5.42308 3.56193 5.42308 3.78281C5.42308 4.00369 5.24993 4.18281 5.03594 4.18281Z" fill="white"/>
<path d="M5.03594 7.38398C4.82196 7.38398 4.64697 7.20486 4.64697 6.98398C4.64697 6.76311 4.81821 6.58398 5.03219 6.58398H5.03599C5.24997 6.58398 5.42308 6.76311 5.42308 6.98398C5.42308 7.20486 5.24993 7.38398 5.03594 7.38398Z" fill="white"/>
<path d="M8.51592 1.78242C8.30194 1.78242 8.12695 1.6033 8.12695 1.38242C8.12695 1.16154 8.29819 0.982422 8.51217 0.982422H8.51597C8.72995 0.982422 8.90306 1.16154 8.90306 1.38242C8.90306 1.6033 8.72991 1.78242 8.51592 1.78242Z" fill="#F2F2F6"/>
<path d="M8.51592 4.98359C8.30194 4.98359 8.12695 4.80447 8.12695 4.58359C8.12695 4.36272 8.29819 4.18359 8.51217 4.18359H8.51597C8.72995 4.18359 8.90306 4.36272 8.90306 4.58359C8.90306 4.80447 8.72991 4.98359 8.51592 4.98359Z" fill="#F2F2F6"/>
<path d="M8.51592 8.18282C8.30194 8.18282 8.12695 8.0037 8.12695 7.78282C8.12695 7.56194 8.29819 7.38281 8.51217 7.38281H8.51597C8.72995 7.38281 8.90306 7.56194 8.90306 7.78282C8.90306 8.0037 8.72991 8.18282 8.51592 8.18282Z" fill="#F2F2F6"/>
<path d="M8.51592 3.38398C8.30194 3.38398 8.12695 3.20486 8.12695 2.98398C8.12695 2.76311 8.29819 2.58398 8.51217 2.58398H8.51597C8.72995 2.58398 8.90306 2.76311 8.90306 2.98398C8.90302 3.20486 8.72991 3.38398 8.51592 3.38398Z" fill="white"/>
<path d="M8.51592 6.5832C8.30194 6.5832 8.12695 6.40408 8.12695 6.1832C8.12695 5.96233 8.29819 5.7832 8.51217 5.7832H8.51597C8.72995 5.7832 8.90306 5.96233 8.90306 6.1832C8.90306 6.40408 8.72991 6.5832 8.51592 6.5832Z" fill="white"/>
<path d="M7.35479 2.5832C7.1408 2.5832 6.96582 2.40408 6.96582 2.1832C6.96582 1.96233 7.13705 1.7832 7.35104 1.7832H7.35484C7.56882 1.7832 7.74193 1.96233 7.74193 2.1832C7.74188 2.40412 7.56877 2.5832 7.35479 2.5832Z" fill="white"/>
<path d="M7.35479 5.78242C7.1408 5.78242 6.96582 5.60329 6.96582 5.38242C6.96582 5.16154 7.13705 4.98242 7.35104 4.98242H7.35484C7.56882 4.98242 7.74193 5.16154 7.74193 5.38242C7.74193 5.60329 7.56877 5.78242 7.35479 5.78242Z" fill="white"/>
<path d="M7.35479 4.18281C7.1408 4.18281 6.96582 4.00369 6.96582 3.78281C6.96582 3.56193 7.13705 3.38281 7.35104 3.38281H7.35484C7.56882 3.38281 7.74193 3.56193 7.74193 3.78281C7.74193 4.00369 7.56877 4.18281 7.35479 4.18281Z" fill="#F2F2F6"/>
<path d="M7.35479 7.38398C7.1408 7.38398 6.96582 7.20486 6.96582 6.98398C6.96582 6.76311 7.13705 6.58398 7.35104 6.58398H7.35484C7.56882 6.58398 7.74193 6.76311 7.74193 6.98398C7.74193 7.20486 7.56877 7.38398 7.35479 7.38398Z" fill="#F2F2F6"/>
<path d="M9.68096 2.5832C9.46698 2.5832 9.29199 2.40408 9.29199 2.1832C9.29199 1.96233 9.46323 1.7832 9.67721 1.7832H9.68101C9.89499 1.7832 10.0681 1.96233 10.0681 2.1832C10.0681 2.40412 9.89495 2.5832 9.68096 2.5832Z" fill="#F2F2F6"/>
<path d="M9.68096 5.78242C9.46698 5.78242 9.29199 5.60329 9.29199 5.38242C9.29199 5.16154 9.46323 4.98242 9.67721 4.98242H9.68101C9.89499 4.98242 10.0681 5.16154 10.0681 5.38242C10.0681 5.60329 9.89495 5.78242 9.68096 5.78242Z" fill="#F2F2F6"/>
<path d="M9.68096 4.18281C9.46698 4.18281 9.29199 4.00369 9.29199 3.78281C9.29199 3.56193 9.46323 3.38281 9.67721 3.38281H9.68101C9.89499 3.38281 10.0681 3.56193 10.0681 3.78281C10.0681 4.00369 9.89495 4.18281 9.68096 4.18281Z" fill="white"/>
<path d="M9.68096 7.38398C9.46698 7.38398 9.29199 7.20486 9.29199 6.98398C9.29199 6.76311 9.46323 6.58398 9.67721 6.58398H9.68101C9.89499 6.58398 10.0681 6.76311 10.0681 6.98398C10.0681 7.20486 9.89495 7.38398 9.68096 7.38398Z" fill="white"/>
<path d="M0.140625 13.0528L0.949687 13.7135H24V11.4277H0.774188L0.140625 13.0528Z" fill="#F2F2F6"/>
<path d="M0 11.4278V13.7135H0.949687C0.837141 13.4316 0.774234 13.1231 0.774234 12.7992V11.4277H0L0 11.4278Z" fill="#E1E1E6"/>
</g>
<defs>
<clipPath id="clip0_382_3019">
<rect width="24" height="16" rx="1" fill="white"/>
</clipPath>
</defs>
</svg>
