<svg width="60" height="60" viewBox="0 0 60 60" fill="none" xmlns="http://www.w3.org/2000/svg">
<path d="M32 14C32.5523 14 33 13.5523 33 13C33 12.4477 32.5523 12 32 12C31.4477 12 31 12.4477 31 13C31 13.5523 31.4477 14 32 14Z" fill="#222222"/>
<path d="M41.41 35.6101L41.3832 35.6042C38.8021 35.1326 36.1918 34.837 33.5704 34.7198C34.1542 34.1668 34.6301 33.5107 34.9742 32.7846C35.0122 32.7876 35.0503 32.7909 35.0886 32.7926C35.1028 32.7926 35.1169 32.7936 35.131 32.7936H45.8667C49.6532 32.7936 52.7954 31.5582 54.9533 29.2207C56.9465 27.0615 58 24.1112 58 20.6897C58 20.6637 57.9992 20.638 57.999 20.612H58L57.999 20.6106C57.9746 17.4156 56.686 14.3595 54.4138 12.1075C52.1416 9.85546 49.0697 8.58989 45.8667 8.58621H25.3333C24.591 8.58538 23.8793 8.29084 23.3544 7.76721C22.8294 7.24358 22.5342 6.53363 22.5333 5.7931V3.93103C22.5333 3.68411 22.435 3.4473 22.26 3.27269C22.0849 3.09809 21.8475 3 21.6 3C21.3525 3 21.1151 3.09809 20.94 3.27269C20.765 3.4473 20.6667 3.68411 20.6667 3.93103V5.7931C20.6681 6.8709 21.0439 7.91491 21.7299 8.74752C22.416 9.58013 23.3701 10.1499 24.4299 10.3599C24.4591 10.7838 24.5107 11.2058 24.5844 11.6243C23.9752 11.8813 23.3064 11.9649 22.6525 11.8658C22.3415 11.819 22.0462 11.6992 21.7908 11.5162C21.5354 11.3332 21.3273 11.0923 21.1835 10.8134L20.6131 9.20651C20.573 9.0903 20.5101 8.98318 20.4283 8.89132C20.3464 8.79946 20.2471 8.72469 20.1361 8.6713C20.0251 8.61792 19.9046 8.58699 19.7816 8.5803C19.6585 8.5736 19.5354 8.59128 19.4192 8.6323C19.3031 8.67333 19.1962 8.73689 19.1048 8.81932C19.0134 8.90175 18.9393 9.00142 18.8867 9.11258C18.8341 9.22374 18.8041 9.34419 18.7984 9.46697C18.7927 9.58976 18.8115 9.71245 18.8535 9.82797L19.4447 11.4935C19.4575 11.5296 19.4726 11.5649 19.4897 11.5992C19.7602 12.1468 20.1572 12.6226 20.6481 12.9873C21.1389 13.352 21.7096 13.5952 22.3131 13.6969C22.5979 13.7488 22.8869 13.7747 23.1764 13.7742C23.8167 13.7698 24.4516 13.6562 25.0534 13.4382C25.8756 15.8234 27.4229 17.8935 29.48 19.3602C31.5371 20.8268 34.0016 21.617 36.5301 21.6207H45.8667C46.3688 21.6208 46.8509 21.8176 47.209 22.1687C47.5671 22.5199 47.7726 22.9973 47.7814 23.4981C47.7901 23.999 47.6013 24.4832 47.2556 24.8465C46.9099 25.2099 46.435 25.4232 45.9332 25.4407C45.9262 25.4407 45.9189 25.4407 45.9119 25.4418L35.0885 26.0654C34.842 26.0768 34.5974 26.1149 34.3591 26.179C33.752 25.3457 32.9563 24.6672 32.0366 24.1987C31.1169 23.7301 30.0993 23.4848 29.0667 23.4828H27.2C26.9525 23.4828 26.7151 23.5808 26.54 23.7555C26.365 23.9301 26.2667 24.1669 26.2667 24.4138C26.2673 25.5388 26.5598 26.6445 27.1156 27.6234C27.6715 28.6023 28.4718 29.421 29.4388 30C28.549 30.5335 27.7994 31.2707 27.2518 32.1505C26.7043 33.0303 26.3746 34.0276 26.29 35.0597C22.3282 35.7509 18.4009 37.325 14.565 39.7649C14.2157 39.9873 13.8859 40.2388 13.5792 40.5168C12.6638 39.0118 11.3751 37.7675 9.83732 36.9039C8.29958 36.0402 6.56471 35.5864 4.8 35.5862H2.93333C2.6858 35.5862 2.4484 35.6843 2.27337 35.8589C2.09833 36.0335 2 36.2703 2 36.5172C2.00189 38.4782 2.56735 40.3975 3.62936 42.0476C4.69137 43.6978 6.20541 45.0096 7.992 45.8276C6.20541 46.6456 4.69137 47.9574 3.62936 49.6075C2.56735 51.2577 2.00189 53.177 2 55.1379C2 55.3849 2.09833 55.6217 2.27337 55.7963C2.4484 55.9709 2.6858 56.069 2.93333 56.069H4.8C6.56469 56.0687 8.29954 55.6149 9.83725 54.7513C11.375 53.8876 12.6637 52.6433 13.5791 51.1383C13.8857 51.4163 14.2155 51.6679 14.5649 51.8903C19.8955 55.2808 25.4026 57 30.9333 57C34.4379 56.9945 37.9351 56.6768 41.383 56.0509L41.4099 56.0451C53.7986 53.1938 57.7163 46.5701 57.877 46.2895C57.9576 46.1488 58 45.9896 58 45.8276C58 45.6656 57.9576 45.5064 57.877 45.3657C57.7163 45.0851 53.7986 38.4619 41.41 35.6101ZM50.6999 30.0109C48.5147 29.4363 47.9388 27.6717 47.7876 26.786C48.6392 26.2876 49.2603 25.4753 49.5169 24.5242C49.8158 24.548 50.107 24.5599 50.3903 24.56C52.378 24.5733 54.3216 23.9753 55.9564 22.8472C55.4572 25.8194 53.8639 28.6181 50.6998 30.0109H50.6999ZM44.63 19.7586H38.9152C39.4844 19.0028 39.9249 18.1586 40.2188 17.26C40.2576 17.144 40.2731 17.0215 40.2644 16.8995C40.2557 16.7775 40.223 16.6585 40.1682 16.5491C40.1134 16.4398 40.0375 16.3422 39.9449 16.2621C39.8523 16.182 39.7448 16.1209 39.6285 16.0822C39.5122 16.0435 39.3894 16.0281 39.2672 16.0368C39.1449 16.0454 39.0255 16.078 38.9159 16.1327C38.8063 16.1874 38.7085 16.2631 38.6282 16.3555C38.5479 16.4478 38.4866 16.5551 38.4478 16.6711C38.1533 17.5991 37.6525 18.4487 36.9827 19.1566C36.77 19.3784 36.5351 19.5781 36.2819 19.7526C33.7659 19.6885 31.3609 18.7059 29.5228 16.991C27.6846 15.2762 26.541 12.9482 26.3087 10.4483H45.8667C47.1353 10.4471 48.3931 10.6817 49.5756 11.14C49.2466 15.9638 45.5662 19.0487 44.63 19.7586ZM47.1982 20.0007C48.7615 18.469 50.8747 15.7693 51.3632 12.0431C52.7633 12.9289 53.9276 14.1396 54.7567 15.5719C55.5858 17.0041 56.055 18.6152 56.1242 20.2677C55.3076 21.1405 53.1277 22.9836 49.5453 22.6568C49.4006 22.0568 49.1112 21.5012 48.7021 21.0383C48.293 20.5753 47.7767 20.2191 47.1982 20.0007ZM40.1787 27.6375L45.9794 27.3033C46.207 28.4103 46.8128 29.7792 48.0718 30.7652C47.3422 30.8781 46.6049 30.9335 45.8667 30.931H41.5119C40.9959 30.5099 39.7226 29.2723 40.1787 27.6375ZM35.1847 27.925L38.253 27.7482C38.0864 28.9794 38.4723 30.0704 39.03 30.931H35.1546C34.7674 30.909 34.4037 30.739 34.1388 30.4565C33.874 30.1739 33.7284 29.8005 33.7323 29.4137C33.7361 29.0269 33.8892 28.6564 34.1596 28.3792C34.4301 28.102 34.7972 27.9393 35.1847 27.925ZM28.2267 25.3448H29.0667C29.7786 25.3463 30.4809 25.5097 31.1201 25.8224C31.7594 26.1351 32.3187 26.5891 32.7558 27.1498C32.2876 27.6574 31.9877 28.2966 31.897 28.9804C30.9947 28.8013 30.1654 28.361 29.5126 27.7144C28.8598 27.0678 28.4125 26.2436 28.2267 25.3448ZM32.2366 30.9659C32.4712 31.4221 32.8071 31.8188 33.2186 32.1258C32.8258 32.8868 32.2306 33.5253 31.4983 33.9714C30.766 34.4176 29.9247 34.6541 29.0667 34.6552H28.2267C28.4242 33.699 28.9175 32.8288 29.6369 32.167C30.3563 31.5052 31.2657 31.0851 32.2371 30.9659H32.2366ZM4.8 54.2069H3.91812C4.13211 52.326 4.97713 50.5724 6.31599 49.2309C7.65485 47.8894 9.40896 47.0386 11.2935 46.8168C11.4295 47.8061 11.772 48.7559 12.299 49.6049C11.5979 50.9888 10.5259 52.1515 9.20202 52.964C7.87815 53.7764 6.35433 54.2067 4.8 54.2069ZM11.2935 44.8384C9.40896 44.6165 7.65485 43.7658 6.31599 42.4243C4.97713 41.0827 4.13211 39.3292 3.91812 37.4483H4.8C6.35433 37.4485 7.87815 37.8788 9.20202 38.6912C10.5259 39.5036 11.5979 40.6664 12.299 42.0503C11.772 42.8993 11.4295 43.8491 11.2935 44.8384ZM43.9681 53.4185C42.9917 53.7279 42.0031 53.9978 41.0048 54.2274C37.6806 54.8224 34.3106 55.1271 30.9333 55.1379C25.7638 55.1379 20.5944 53.517 15.5683 50.3198C14.8095 49.8397 14.1847 49.1762 13.7517 48.3908C13.3187 47.6054 13.0917 46.7236 13.0917 45.8272C13.0917 44.9309 13.3187 44.0491 13.7517 43.2637C14.1847 42.4783 14.8095 41.8147 15.5683 41.3346C20.5944 38.1382 25.7638 36.5172 30.9333 36.5172C34.3107 36.5289 37.6806 36.8336 41.0049 37.4279C42.0032 37.6575 42.9918 37.9273 43.9683 38.2366C43.5269 39.1918 42.1333 42.4739 42.1333 45.8276C42.1333 49.1813 43.5269 52.4635 43.9681 53.4185ZM53.0054 48.7844C51.4845 49.9989 49.1235 51.5232 45.7408 52.8031C45.5191 52.3412 44 49.0556 44 45.8276C44 42.613 45.5185 39.3172 45.7409 38.852C49.1236 40.1322 51.4846 41.6568 53.0054 42.8707C54.57 44.1203 55.4983 45.2311 55.9398 45.8276C55.4975 46.4251 54.57 47.5355 53.0054 48.7844Z" fill="#222222"/>
<path d="M51 46C51.5523 46 52 45.5523 52 45C52 44.4477 51.5523 44 51 44C50.4477 44 50 44.4477 50 45C50 45.5523 50.4477 46 51 46Z" fill="#222222"/>
<path d="M34.9731 41.5192C34.9362 41.3716 34.8626 41.2352 34.759 41.1221C34.6553 41.009 34.5248 40.9227 34.3789 40.8709L27.1049 38.2863C26.8825 38.2072 26.6378 38.2129 26.4194 38.3023C26.201 38.3917 26.025 38.5582 25.9263 38.7688C25.8732 38.8816 24.6275 41.583 24.6275 45.6154C24.6275 49.6477 25.8729 52.3491 25.9259 52.4621C26.0247 52.6726 26.2007 52.8391 26.419 52.9285C26.6374 53.0179 26.8821 53.0237 27.1046 52.9446L34.3785 50.36C34.5245 50.3082 34.655 50.2219 34.7587 50.1088C34.8624 49.9957 34.9359 49.8593 34.9728 49.7117C35.0097 49.5641 35.0088 49.4098 34.9702 49.2626C34.9316 49.1155 34.8565 48.9799 34.7515 48.868C34.7417 48.8577 33.7875 47.7799 33.7875 45.6154C33.7875 43.4654 34.7187 42.3993 34.7515 42.3628C34.8565 42.2509 34.9316 42.1154 34.9703 41.9682C35.0089 41.821 35.0099 41.6668 34.9731 41.5192ZM32.5941 48.9082C32.6108 48.9438 32.6275 48.9784 32.6442 49.0121L27.3402 50.8966C26.8814 49.4839 26.612 48.0188 26.5387 46.5381H27.4563C27.7064 46.5381 27.9462 46.4409 28.1231 46.2677C28.2999 46.0946 28.3992 45.8598 28.3992 45.615C28.3992 45.3702 28.2999 45.1354 28.1231 44.9623C27.9462 44.7892 27.7064 44.692 27.4563 44.692H26.5386C26.6119 43.2112 26.8813 41.7461 27.3401 40.3333L32.6441 42.218C32.6274 42.252 32.6106 42.2866 32.594 42.3218C32.1374 43.3621 31.9019 44.4825 31.9019 45.6147C31.9019 46.7469 32.1374 47.8673 32.594 48.9075L32.5941 48.9082ZM3.38709 27.5143C3.39888 27.5219 3.41066 27.5294 3.42245 27.5366L6.71165 29.516V31.7692C6.7125 32.5034 7.0108 33.2073 7.54113 33.7265C8.07145 34.2456 8.79048 34.5376 9.54047 34.5385C10.1186 34.5385 10.6147 34.3372 11.14 34.1242C11.7571 33.8741 12.3951 33.6154 13.3122 33.6154C14.2294 33.6154 14.8674 33.8741 15.4844 34.1242C16.0097 34.3372 16.5064 34.5385 17.084 34.5385C17.834 34.5376 18.553 34.2456 19.0833 33.7265C19.6136 33.2073 19.912 32.5034 19.9128 31.7692V29.516L23.2019 27.5366C23.2137 27.5294 23.2255 27.5219 23.2372 27.5143C24.6494 26.5769 25.0543 24.5534 24.1212 23.0958C22.18 20.0616 18.0846 17 13.3122 17C8.53989 17 4.44448 20.0616 2.50285 23.0958C1.57005 24.5534 1.97492 26.5769 3.38709 27.5143ZM18.0269 31.7692C18.0266 32.014 17.9272 32.2486 17.7504 32.4216C17.5737 32.5947 17.334 32.692 17.084 32.6923C16.8809 32.6923 16.5682 32.5654 16.2061 32.4186C15.5301 32.1446 14.6045 31.7692 13.3122 31.7692C12.0199 31.7692 11.0943 32.1446 10.4183 32.4186C10.0563 32.5654 9.74356 32.6923 9.54047 32.6923C9.29047 32.692 9.0508 32.5947 8.87402 32.4216C8.69725 32.2486 8.59781 32.014 8.59753 31.7692V29.9231H18.0269V31.7692ZM4.10101 24.0758C5.76671 21.4728 9.26101 18.8462 13.3122 18.8462C17.3634 18.8462 20.8577 21.4728 22.5234 24.0758C22.9155 24.6883 22.7573 25.5887 22.1934 25.9763L18.7032 28.0769H17.6667L18.8703 25.7205C18.9798 25.5018 18.9966 25.2496 18.917 25.0189C18.8374 24.7881 18.6679 24.5975 18.4454 24.4885C18.2228 24.3796 17.9653 24.3612 17.729 24.4373C17.4926 24.5134 17.2966 24.6779 17.1836 24.8948L15.5583 28.0769H14.2552V24.3846C14.2552 24.1398 14.1558 23.905 13.979 23.7319C13.8021 23.5588 13.5623 23.4615 13.3122 23.4615C13.0621 23.4615 12.8223 23.5588 12.6455 23.7319C12.4686 23.905 12.3693 24.1398 12.3693 24.3846V28.0769H11.0661L9.44087 24.8948C9.38608 24.7855 9.30971 24.6878 9.21617 24.6074C9.12263 24.5271 9.01377 24.4656 8.89586 24.4267C8.77795 24.3877 8.65333 24.372 8.52918 24.3804C8.40503 24.3888 8.28381 24.4212 8.1725 24.4756C8.06119 24.5301 7.96201 24.6057 7.88066 24.6979C7.79931 24.79 7.73741 24.8971 7.69852 25.0128C7.65963 25.1285 7.64453 25.2507 7.65409 25.3721C7.66364 25.4936 7.69766 25.612 7.75419 25.7205L8.95773 28.0769H7.92121L4.4308 25.9769C3.86716 25.5887 3.70898 24.6883 4.10101 24.0758Z" fill="#222222"/>
</svg>
