<svg width="54" height="54" viewBox="0 0 54 54" fill="none" xmlns="http://www.w3.org/2000/svg">
<path d="M26.6195 53C26.7402 53 26.8616 52.9973 26.9831 52.9917C31.1888 52.7941 34.4374 49.2413 34.2388 45.0562C34.1878 43.9807 33.9073 42.9283 33.4159 41.969C32.9246 41.0097 32.2336 40.1654 31.3889 39.4924C31.2217 39.359 31.0099 39.2936 30.7961 39.3095C30.5824 39.3254 30.3826 39.4213 30.2371 39.5779L30.0196 39.812C29.5243 38.7768 28.9266 37.7932 28.2354 36.8758L27.3018 35.6361C27.2229 35.5314 27.1206 35.4465 27.003 35.3879C26.8853 35.3294 26.7556 35.299 26.6241 35.299C26.4926 35.299 26.3629 35.3294 26.2453 35.3879C26.1277 35.4465 26.0254 35.5314 25.9465 35.6361L25.0124 36.8753C24.259 37.876 23.6171 38.9552 23.098 40.0938C22.9888 39.9906 22.8809 39.8863 22.7697 39.7851L22.7129 39.7335C22.5586 39.5934 22.3577 39.5149 22.1488 39.5132C21.9399 39.5115 21.7378 39.5866 21.5812 39.7242C18.4234 42.4955 18.1211 47.2893 20.906 50.4317C21.621 51.2383 22.5002 51.8845 23.4852 52.3272C24.4702 52.77 25.5386 52.9994 26.6195 53ZM26.3678 37.8868L26.6241 37.5467L26.8805 37.8868C27.6488 38.9074 28.2884 40.018 28.7849 41.1937C27.9599 42.1907 27.2275 43.2603 26.5969 44.3892C25.9457 43.3321 25.2025 42.3339 24.3758 41.4061C24.8834 40.152 25.553 38.9689 26.3678 37.8869V37.8868ZM22.1596 41.531C23.6576 42.9927 24.9107 44.6837 25.8714 46.5396C25.9427 46.6771 26.0506 46.7925 26.1834 46.873C26.3162 46.9535 26.4687 46.9961 26.6242 46.9961C26.7797 46.9961 26.9322 46.9535 27.0649 46.873C27.1977 46.7925 27.3057 46.6771 27.377 46.5396L27.7907 45.7417C28.6054 44.1699 29.6299 42.7149 30.8363 41.4161L30.9112 41.3354C31.4713 41.9139 31.9056 42.601 32.187 43.354C32.4683 44.1069 32.5907 44.9095 32.5464 45.7116C32.3747 48.7353 29.9443 51.1462 26.9052 51.3075C23.6341 51.4619 20.8565 48.9482 20.7014 45.6933C20.6288 44.1705 21.1514 42.6788 22.1596 41.531ZM43.9003 24.2643C47.0149 24.2647 49.6253 21.9211 49.9444 18.8381C50.1222 17.1274 49.8719 15.3995 49.2157 13.8084C48.5595 12.2173 47.5179 10.8125 46.1837 9.71925L41.89 6.19274C41.7905 6.11105 41.6736 6.05305 41.5481 6.02317C41.4227 5.99328 41.292 5.9923 41.1662 6.02029C41.0403 6.04828 40.9225 6.1045 40.8218 6.18467C40.721 6.26485 40.64 6.36685 40.5849 6.48291L38.2073 11.492C37.4675 13.0463 37.1257 14.7586 37.2123 16.4763C37.2989 18.1939 37.8112 19.8636 38.7037 21.3364C39.2422 22.2293 40.0039 22.9682 40.9145 23.4813C41.8252 23.9944 42.8538 24.2641 43.9003 24.2643ZM39.739 12.2119L41.6516 8.18284L45.1054 11.0191C46.2242 11.936 47.0977 13.114 47.6479 14.4483C48.1982 15.7826 48.4082 17.2316 48.2592 18.6662C48.0134 21.0588 45.865 22.8 43.4607 22.5555C42.7847 22.4867 42.1341 22.2623 41.5604 21.8999C40.9867 21.5376 40.5057 21.0473 40.1555 20.4679C39.407 19.2328 38.9772 17.8325 38.9045 16.392C38.8319 14.9515 39.1186 13.5154 39.739 12.2119Z" fill="#222222"/>
<path d="M43.4266 20.0379C43.4755 20.2595 43.6084 20.4521 43.796 20.5736C43.9837 20.6952 44.2107 20.7356 44.4274 20.6861C44.6442 20.6365 44.8328 20.5011 44.9521 20.3094C45.0714 20.1178 45.1115 19.8856 45.0636 19.6637L43.4181 12.1287C43.3696 11.9066 43.2369 11.7134 43.0491 11.5914C42.8614 11.4695 42.634 11.4288 42.4169 11.4784C42.1999 11.528 42.011 11.6638 41.8918 11.8559C41.7726 12.048 41.7329 12.2807 41.7813 12.5027L43.4266 20.0379ZM41.4234 19.5955C41.5491 19.5955 41.6732 19.5666 41.7865 19.511C41.8998 19.4554 41.9995 19.3744 42.0781 19.2741C42.1568 19.1738 42.2124 19.0567 42.2408 18.9314C42.2693 18.8062 42.2699 18.676 42.2426 18.5504L41.5114 15.2016C41.4629 14.9795 41.3301 14.7863 41.1424 14.6643C40.9546 14.5424 40.7272 14.5018 40.5102 14.5514C40.2932 14.601 40.1043 14.7368 39.9851 14.9289C39.8659 15.121 39.8262 15.3536 39.8747 15.5757L40.606 18.9246C40.6475 19.1148 40.7511 19.2848 40.8996 19.4068C41.0482 19.5288 41.2329 19.5953 41.4234 19.5955ZM45.5159 17.8024C45.5633 18.0246 45.6951 18.2185 45.8823 18.3414C46.0694 18.4642 46.2966 18.506 46.5139 18.4575C46.6221 18.4333 46.7246 18.3874 46.8154 18.3225C46.9062 18.2575 46.9835 18.1748 47.0428 18.0791C47.1022 17.9834 47.1425 17.8766 47.1613 17.7649C47.1801 17.6533 47.177 17.5388 47.1524 17.4284L46.4212 14.0794C46.3727 13.8573 46.24 13.6641 46.0522 13.5422C45.8645 13.4202 45.6371 13.3796 45.4201 13.4292C45.203 13.4788 45.0142 13.6146 44.895 13.8067C44.7758 13.9988 44.7361 14.2315 44.7846 14.4535L45.5159 17.8024ZM20.3618 27.3215C21.5236 28.2054 23.1423 28.0876 24.1703 27.0446L24.7561 26.4452C24.8862 26.3114 25.041 26.2053 25.2115 26.133C25.382 26.0608 25.5648 26.0238 25.7493 26.0243C26.0531 26.025 26.3488 26.1258 26.5923 26.3117L27.6879 27.1524C28.9757 28.1384 30.8006 27.8716 31.7671 26.5562C32.7541 25.2218 32.5187 23.3252 31.2371 22.2855L30.4993 21.6816C29.1835 20.6075 27.5505 20.0216 25.8672 20.0195C24.8931 20.0168 23.9281 20.2118 23.0281 20.5932C22.1281 20.9746 21.311 21.5348 20.624 22.2415L20.0499 22.829C18.9118 23.993 18.9116 25.8805 20.0495 27.0449C20.147 27.1447 20.2514 27.2373 20.3618 27.3221V27.3215ZM21.2356 24.042L21.8099 23.4544C22.3414 22.9076 22.9738 22.4741 23.6702 22.1789C24.3666 21.8838 25.1134 21.7329 25.8672 21.735C27.1699 21.7368 28.4335 22.1904 29.4517 23.0218L30.1896 23.6257C30.7602 24.0886 30.865 24.933 30.4256 25.5272C30.0154 26.0855 29.2408 26.1987 28.6942 25.7803L27.5986 24.9396C27.0644 24.5315 26.416 24.3104 25.7494 24.309C25.3445 24.3079 24.9435 24.389 24.5694 24.5475C24.1954 24.706 23.8558 24.9389 23.5703 25.2325L22.9847 25.8318C22.7736 26.046 22.4944 26.1757 22.1978 26.1974C21.9012 26.219 21.6068 26.1311 21.3681 25.9497C20.8217 25.5303 20.711 24.7372 21.1209 24.1782C21.1561 24.1304 21.1944 24.0851 21.2357 24.0428L21.2356 24.042ZM38.8726 36.6417L39.8168 36.6788C39.9111 36.6825 40.0047 36.6844 40.0988 36.6844C41.6856 36.683 43.2305 36.163 44.5081 35.2C45.2932 34.61 45.9561 33.8666 46.4585 33.0127C46.9609 32.1588 47.2927 31.2115 47.4348 30.2255L47.5555 29.4037C47.7946 27.7756 46.6983 26.2574 45.107 26.0128C44.9706 25.9918 44.833 25.9808 44.6951 25.9797H44.6741C43.2343 25.986 42.0127 27.0621 41.7927 28.5178L41.6696 29.3559C41.6427 29.5426 41.5798 29.7221 41.4846 29.8839C41.3895 30.0457 41.2639 30.1865 41.1152 30.2983C40.8731 30.4804 40.5806 30.5789 40.2801 30.5796H40.2697L38.9007 30.5693H38.8798C37.2794 30.571 35.9793 31.8917 35.966 33.5289C35.9472 35.2022 37.2379 36.5845 38.8726 36.6417ZM38.8798 32.285H38.8889L40.2582 32.2957H40.2801C40.9392 32.2944 41.5808 32.0783 42.1118 31.6788C42.4381 31.4336 42.7137 31.1246 42.9225 30.7697C43.1313 30.4148 43.2692 30.021 43.3283 29.6112L43.4513 28.7732C43.4964 28.474 43.6443 28.2011 43.8685 28.0036C44.0926 27.8061 44.3783 27.6968 44.6741 27.6955H44.683C45.3661 27.7006 45.9157 28.2713 45.9107 28.9701C45.9103 29.0299 45.9057 29.0896 45.897 29.1488L45.7763 29.9706C45.3418 32.9286 42.8028 35.0794 39.8812 34.9643L38.9372 34.9271C38.2093 34.9018 37.6345 34.2862 37.643 33.5411C37.6487 32.8462 38.2005 32.2857 38.8798 32.285ZM26.1395 2.26725L21.9995 6.50166C21.3746 7.13746 20.8793 7.89374 20.542 8.72673C20.2048 9.55971 20.0324 10.4529 20.0348 11.3545V11.3872C20.0362 12.5968 20.3495 13.7846 20.9429 14.8307C21.5363 15.8769 22.3889 16.7445 23.4146 17.3459C26.6312 19.2264 30.7287 18.0831 32.5668 14.7923C33.146 13.7553 33.4506 12.5816 33.4506 11.3872V11.3545C33.453 10.4529 33.2806 9.55971 32.9433 8.72673C32.6061 7.89374 32.1107 7.13746 31.4859 6.50166L27.3473 2.26736L27.3462 2.26629C26.9939 1.91145 26.5099 1.9107 26.1395 2.26725ZM25.7414 7.43008L26.7427 5.03986L27.7439 7.43008C28.1911 8.49396 28.421 9.64009 28.4197 10.7982C28.4161 12.6499 27.8279 14.4509 26.7427 15.9329C25.6575 14.4509 25.0693 12.6498 25.0657 10.798C25.0643 9.64002 25.2943 8.49392 25.7414 7.43008ZM31.7736 11.3545V11.3872C31.7725 12.2944 31.5376 13.1852 31.0926 13.9699C30.6475 14.7545 30.0081 15.4052 29.2387 15.8562C29.0377 15.9734 28.8289 16.0761 28.6139 16.1634C29.5798 14.548 30.0927 12.6918 30.0966 10.798C30.0982 9.40764 29.8221 8.03156 29.2854 6.75419L29.2286 6.61865L30.3 7.71478C30.7686 8.19164 31.1402 8.75886 31.3931 9.38361C31.6461 10.0084 31.7754 10.6782 31.7736 11.3545ZM21.7118 11.3545C21.7099 10.6782 21.8393 10.0084 22.0922 9.38359C22.3452 8.75884 22.7167 8.19162 23.1854 7.71478L24.2568 6.61865L24.2 6.75419C23.6632 8.03159 23.3872 9.40771 23.3887 10.7982C23.3926 12.6919 23.9056 14.5481 24.8716 16.1635C24.6565 16.0761 24.4477 15.9734 24.2466 15.8562C23.4773 15.4052 22.8378 14.7545 22.3928 13.9699C21.9477 13.1852 21.7128 12.2944 21.7118 11.3872V11.3545ZM15.0039 25.6413C14.8737 25.6413 14.7453 25.6723 14.6289 25.7319C14.5125 25.7915 14.4112 25.8779 14.3331 25.9845L13.0222 27.7727C12.1342 28.9893 11.653 30.4663 11.6499 31.9848C11.6499 33.8799 13.1516 35.4162 15.0039 35.4162C16.8562 35.4162 18.3578 33.8799 18.3578 31.9848C18.3548 30.4663 17.8736 28.9893 16.9855 27.7727L15.6747 25.9845C15.5966 25.8779 15.4953 25.7914 15.3789 25.7319C15.2624 25.6723 15.134 25.6413 15.0039 25.6413ZM15.9341 33.4124C15.1634 33.938 14.1223 33.7249 13.6085 32.9365C13.4249 32.6546 13.3269 32.3235 13.3269 31.9848C13.3292 30.8374 13.6929 29.7214 14.3639 28.8021L15.0039 27.929L15.6438 28.8021C16.3149 29.7214 16.6785 30.8374 16.6808 31.9848C16.6811 32.2673 16.613 32.5455 16.4827 32.7945C16.3525 33.0436 16.164 33.2559 15.9341 33.4124ZM5.87601 26.6742C6.89192 26.9455 7.96624 26.8745 8.93962 26.4718L10.2889 25.9106C10.4094 25.8604 10.5169 25.7822 10.6028 25.6822C10.6888 25.5821 10.7507 25.463 10.7838 25.3342C10.817 25.2054 10.8203 25.0705 10.7937 24.9402C10.767 24.8098 10.711 24.6876 10.6302 24.5832L9.72581 23.4152C9.07213 22.5746 8.17114 21.9719 7.15637 21.6963C5.8128 21.3346 4.43706 22.1557 4.08343 23.5303C3.7299 24.9048 4.53244 26.3124 5.87601 26.6742ZM5.95985 23.543C6.06297 23.4491 6.18722 23.3828 6.32151 23.35C6.45579 23.3172 6.59592 23.319 6.72937 23.3551C7.39366 23.5356 7.98343 23.9303 8.41127 24.4806L8.62089 24.752L8.3073 24.8825C7.67037 25.1458 6.96748 25.1921 6.30279 25.0146C6.15604 24.9751 6.02252 24.8956 5.91647 24.7845C5.81042 24.6734 5.73583 24.535 5.70064 24.384C5.66545 24.2329 5.67098 24.075 5.71665 23.9269C5.76232 23.7788 5.84641 23.6462 5.95996 23.5432L5.95985 23.543ZM32.7903 30.3441C31.9363 29.7194 30.9083 29.3927 29.8586 29.4127L28.4024 29.4435C28.2722 29.4462 28.1444 29.4799 28.0292 29.5419C27.9139 29.604 27.8144 29.6926 27.7384 29.8008C27.6625 29.909 27.6122 30.0339 27.5916 30.1654C27.571 30.297 27.5806 30.4316 27.6197 30.5587L28.0564 31.9803C28.3733 33.0041 29.0042 33.8962 29.8556 34.5244C30.982 35.3563 32.5543 35.0966 33.3675 33.9441C34.1806 32.7917 33.9267 31.183 32.8003 30.3511L32.7903 30.3437V30.3441ZM31.6184 33.2374C31.4892 33.2872 31.3499 33.3036 31.213 33.2851C31.0762 33.2666 30.9459 33.2138 30.8338 33.1313C30.2765 32.7198 29.8636 32.1355 29.6564 31.4651L29.555 31.1347L29.8934 31.1276C30.5804 31.1149 31.2532 31.3286 31.8123 31.7373C31.9356 31.8278 32.0325 31.9509 32.0928 32.0934C32.1531 32.2359 32.1744 32.3925 32.1546 32.5464C32.1347 32.7004 32.0743 32.8459 31.9799 32.9675C31.8855 33.0891 31.7606 33.1822 31.6186 33.2368L31.6184 33.2374ZM12.7226 18.7921L14.8853 19.1082C15.0142 19.127 15.1456 19.1149 15.269 19.0728C15.3925 19.0306 15.5047 18.9597 15.5968 18.8655C15.6888 18.7714 15.7582 18.6566 15.7993 18.5303C15.8405 18.4039 15.8524 18.2695 15.834 18.1377L15.525 15.925C15.3121 14.4222 14.6315 13.0296 13.5842 11.9537C12.2744 10.6136 10.1508 10.6136 8.841 11.9537C7.53118 13.2938 7.53118 15.4664 8.841 16.8065C9.89266 17.878 11.2538 18.5742 12.7226 18.7921ZM9.56828 14.0436C9.75013 13.1144 10.6337 12.5121 11.5419 12.698C11.8663 12.7644 12.1642 12.9276 12.3982 13.1669C13.1895 13.9799 13.7037 15.0321 13.8645 16.1676L14.0153 17.248L12.9601 17.0937C11.8503 16.929 10.8218 16.4029 10.0272 15.5933C9.8317 15.3938 9.68745 15.1478 9.60736 14.8774C9.52728 14.607 9.51385 14.3206 9.56828 14.0436ZM46.6649 39.054L46.6998 38.7698C46.7217 38.5912 46.6881 38.4101 46.6039 38.2521C46.5196 38.0941 46.3889 37.9672 46.2302 37.8894C46.0715 37.8116 45.893 37.7868 45.7198 37.8186C45.5466 37.8504 45.3876 37.9371 45.2653 38.0665L45.0706 38.2723C44.9914 38.3559 44.9108 38.4382 44.8287 38.5189C44.1299 39.196 43.2387 39.6282 42.284 39.7529C39.5314 40.1397 37.6063 42.7363 37.9844 45.5525C38.3624 48.3688 40.9003 50.3383 43.653 49.9515C46.4056 49.5647 48.3307 46.9682 47.9526 44.1519C47.8614 43.4727 47.6386 42.819 47.2971 42.2291C46.7897 41.3817 46.5558 40.3924 46.6285 39.4013C46.6385 39.2853 46.6507 39.1695 46.6649 39.054ZM45.9934 46.3351C45.1925 48.0444 43.189 48.7657 41.5183 47.9463C41.4463 47.911 41.3756 47.8731 41.3062 47.8326C39.6976 46.893 39.1379 44.7972 40.0563 43.1513C40.3112 42.6945 40.6653 42.3037 41.0914 42.0092C41.5174 41.7147 42.0039 41.5244 42.5133 41.4529C43.3891 41.3332 44.2306 41.0272 44.9837 40.5546C45.1008 41.4558 45.3968 42.3231 45.8537 43.1029C46.1352 43.5882 46.2952 44.1371 46.3196 44.7009C46.344 45.2647 46.2319 45.8259 45.9934 46.3348V46.3351ZM16.1261 42.5715L15.9204 42.1962C16.0405 41.2766 15.8654 40.342 15.4216 39.533C14.9782 38.7237 14.2898 38.0837 13.4602 37.7092L13.2547 37.3339C12.4625 35.8879 10.6748 35.3728 9.2615 36.1833C8.92063 36.3787 8.62137 36.6419 8.38129 36.9574C8.14121 37.2728 7.96514 37.6341 7.86343 38.0202L7.83324 38.0113C6.27303 37.5624 4.65244 38.4925 4.2136 40.0888C4.10927 40.4684 4.07903 40.8652 4.12462 41.2568C4.17021 41.6483 4.29073 42.0268 4.4793 42.3707L4.68494 42.746C4.43874 44.635 5.44125 46.4634 7.14516 47.2333L7.35069 47.6086C7.53844 47.9531 7.7911 48.2562 8.09406 48.5002C8.39702 48.7442 8.74427 48.9243 9.11571 49.0301C9.48659 49.1378 9.87465 49.1692 10.2575 49.1226C10.6403 49.0759 11.0103 48.9521 11.3461 48.7583C11.6872 48.5638 11.9867 48.301 12.2267 47.9858C12.4668 47.6705 12.6424 47.3091 12.7433 46.923C12.7529 46.9259 12.7625 46.9287 12.7721 46.9314C14.3325 47.3803 15.9529 46.4501 16.3917 44.8538C16.6023 44.0873 16.5068 43.2665 16.1261 42.5721V42.5715ZM14.7775 44.3889C14.5894 45.0731 13.895 45.4718 13.2263 45.2794C12.9051 45.1869 12.633 44.9678 12.4698 44.6701C12.3594 44.4748 12.1782 44.3319 11.9656 44.2722C11.7529 44.2126 11.5259 44.241 11.3336 44.3514C11.1413 44.4617 10.9992 44.6451 10.9381 44.8619C10.877 45.0787 10.9018 45.3113 11.0071 45.5095C11.3504 46.1274 11.1392 46.9129 10.5353 47.2642C9.93134 47.6153 9.16361 47.3993 8.82025 46.7814L8.81322 46.7686L8.46211 46.1285C8.36218 45.9462 8.2007 45.8076 8.00796 45.7386C6.81207 45.3107 6.11466 44.0387 6.38109 42.7715C6.42396 42.5673 6.39251 42.3541 6.29263 42.1719L5.94162 41.5317C5.60193 40.9113 5.81815 40.1265 6.42469 39.779C6.61167 39.6719 6.82228 39.6154 7.03658 39.6148C7.15239 39.6149 7.26758 39.6312 7.37899 39.6634C7.70055 39.7551 7.97285 39.9744 8.13541 40.2727L8.75065 41.3947C8.80453 41.493 8.87681 41.5794 8.96335 41.6492C9.0499 41.7189 9.14902 41.7705 9.25505 41.801C9.36109 41.8315 9.47197 41.8404 9.58135 41.8271C9.69073 41.8138 9.79649 41.7786 9.89256 41.7234C9.98864 41.6683 10.0732 41.5944 10.1413 41.5058C10.2095 41.4173 10.2599 41.3159 10.2897 41.2074C10.3196 41.0989 10.3282 40.9855 10.3152 40.8735C10.3022 40.7616 10.2678 40.6534 10.2139 40.5551L9.59847 39.4326C9.26422 38.8097 9.48684 38.0273 10.0957 37.6854C10.6968 37.3477 11.4515 37.565 11.7924 38.1738L12.1435 38.814C12.2434 38.9962 12.4049 39.1348 12.5976 39.2039C13.7935 39.6318 14.4909 40.9038 14.2245 42.1709C14.1814 42.3754 14.2129 42.589 14.313 42.7714L14.664 43.4116C14.7451 43.5587 14.7969 43.7209 14.8164 43.8886C14.8358 44.0564 14.8226 44.2264 14.7775 44.3889Z" fill="#222222"/>
</svg>
