<svg width="60" height="60" viewBox="0 0 60 60" fill="none" xmlns="http://www.w3.org/2000/svg">
<path d="M52.4414 28.3818L48.1907 26.5228L47.4355 28.2287L51.6864 30.0876C53.6011 30.9256 55.2292 32.299 56.3725 34.0405C57.5157 35.782 58.1246 37.8164 58.125 39.8958V40.9148C58.1228 42.8294 57.3566 44.665 55.9945 46.0188C54.6325 47.3727 52.7857 48.1342 50.8594 48.1364H24.375V50H50.8594C53.2828 49.9973 55.6062 49.0393 57.3198 47.336C59.0334 45.6328 59.9973 43.3235 60 40.9148V39.8958C59.9995 37.4547 59.2847 35.0665 57.9426 33.0221C56.6006 30.9777 54.6892 29.3655 52.4414 28.3818ZM18.8102 48.1149C14.2485 47.8769 9.95162 45.9117 6.80213 42.6231C3.65265 39.3345 1.88959 34.9721 1.87505 30.4318V28.5682C1.86833 25.7998 2.52543 23.0696 3.79189 20.6039L2.12021 19.7597C0.719513 22.4868 -0.00727444 25.5063 5.48889e-05 28.5682V30.4318C0.0146392 35.4117 1.93299 40.1999 5.36654 43.8266C8.80008 47.4532 13.4921 49.6472 18.4922 49.964C18.576 49.9879 18.6628 50 18.75 50H22.5V48.1364H18.9691C18.9168 48.1247 18.8636 48.1176 18.8102 48.1149ZM19.6875 10.8636H21.5625C25.4956 10.87 29.3164 12.1674 32.4312 14.5544C35.546 16.9414 37.7803 20.2841 38.7868 24.0632C38.8229 24.1985 38.8892 24.324 38.9807 24.4303C39.0722 24.5367 39.1867 24.6211 39.3156 24.6775L45.5599 27.4084L46.3151 25.7026L40.4777 23.1497C39.29 19.0743 36.8041 15.492 33.3934 12.9406C29.9827 10.3892 25.8313 9.00646 21.5625 9H19.6875C16.4315 9.00254 13.227 9.80813 10.3613 11.3445C7.49561 12.881 5.05828 15.1002 3.26783 17.8032L4.83064 18.833C6.45033 16.3866 8.65551 14.3779 11.2485 12.987C13.8414 11.5961 16.7411 10.8665 19.6875 10.8636Z" fill="#222222"/>
<path d="M37.1911 24.9553C36.2933 21.5766 34.3257 18.5777 31.5814 16.4055C28.8111 14.1953 25.3683 12.994 21.8215 13H19.8931C17.8017 12.9999 15.7313 13.4169 13.8036 14.2265C11.8759 15.0361 10.1298 16.222 8.66792 17.7146C5.67138 20.7192 3.99249 24.7879 4.00003 29.027V30.973C3.99618 35.0835 5.57523 39.0384 8.41073 42.0199C11.1982 44.9941 15.0337 46.7725 19.1091 46.9805C19.171 46.9836 19.2328 46.9884 19.2941 46.9949C19.3268 46.9983 19.3596 47 19.3925 47H51.9553C53.2988 46.9924 54.5845 46.4533 55.5302 45.5009C56.4759 44.5486 57.0045 43.2608 57 41.9201V40.856C57.0035 39.1686 56.5172 37.5162 55.5999 36.0986C54.6825 34.681 53.3734 33.5589 51.8307 32.8678L39.1072 27.2184C38.6375 27.0097 38.2211 26.6978 37.8893 26.3059C37.5575 25.914 37.3188 25.4522 37.1911 24.9553ZM9.78648 40.7228C7.28373 38.0914 5.88982 34.6009 5.89288 30.973V29.027C5.88647 25.2855 7.36858 21.6945 10.0136 19.0428C12.2982 16.7112 15.3357 15.2614 18.5886 14.9499L21.7701 21.2993C22.8052 23.3548 23.1552 25.6865 22.7691 27.9545L24.6359 28.2668C24.8598 26.9448 24.8731 25.5957 24.6754 24.2695C26.2233 24.0165 27.4112 23.0121 28.0663 21.3781C28.4007 20.5118 28.5836 19.5947 28.6071 18.6667H26.7143C26.6909 19.3545 26.5539 20.0338 26.3087 20.6771C25.8859 21.7321 25.2116 22.3062 24.2542 22.4223C24.0452 21.746 23.7806 21.088 23.4632 20.4551L20.6742 14.8889H21.8217C24.9419 14.8843 27.9703 15.9418 30.4069 17.8867C32.8299 19.804 34.5673 22.4512 35.3601 25.434C35.5592 26.2052 35.9305 26.9216 36.4462 27.5294C36.9618 28.1373 37.6086 28.621 38.338 28.9442L45.4113 32.0845L42.9401 33.523C40.541 34.9229 37.9047 35.8712 35.1623 36.3209C34.5493 31.0388 30.1077 29.2037 29.9053 29.1229L29.1987 30.8754C30.3107 31.3905 31.2708 32.1833 31.986 33.177C32.7012 34.1707 33.1475 35.3317 33.2815 36.5478C30.9179 36.7312 28.54 36.5445 26.2341 35.9946L21.5583 34.8837C21.7139 34.6161 21.8813 34.3546 22.0605 34.0993L22.5027 33.4688C23.1859 32.4953 23.7293 31.4312 24.1168 30.3073L22.3266 29.6931C21.9964 30.6503 21.5336 31.5567 20.9517 32.3859L20.5095 33.0163C19.2969 34.7391 18.5333 36.736 18.2875 38.8269L18.2858 38.8421L18.279 38.9012L18.2765 38.9225L18.2691 38.9921L18.2659 39.0239L18.262 39.0623L18.2581 39.102L18.2554 39.132C18.2506 39.1828 18.2462 39.2338 18.242 39.2848L18.2406 39.3023L18.2364 39.3556V39.3607C18.2322 39.4174 18.2282 39.4742 18.2246 39.5311L18.2235 39.5494C18.2225 39.5663 18.2215 39.5832 18.2206 39.6V39.6097C18.2188 39.6423 18.2171 39.6748 18.2156 39.7074L18.2145 39.7292L18.2125 39.773C18.2125 39.7836 18.2117 39.7944 18.2112 39.805L18.2097 39.8445L18.2074 39.9084C18.2074 39.9202 18.2067 39.932 18.2065 39.9432C18.2065 39.9569 18.2057 39.9706 18.2053 39.9844C18.2053 39.9952 18.2047 40.0058 18.2045 40.0165C18.204 40.0334 18.2037 40.0503 18.2034 40.0672V40.0908L18.2024 40.1625V40.3074C15.1272 39.7554 14.4248 36.5699 14.394 36.422L12.5386 36.7961C12.7693 37.7704 13.1824 38.6924 13.756 39.5136C14.5384 40.6288 15.9217 41.9338 18.2042 42.2199L18.2067 45.0078C14.9845 44.6051 12.0053 43.089 9.78648 40.7228ZM55.1071 40.856V41.9201C55.1122 42.76 54.7833 43.5677 54.1924 44.1659C53.6015 44.7641 52.797 45.1041 51.9553 45.1111H20.0971L20.0927 40.3374V40.1734L20.0934 40.1344V40.1213C20.0934 40.1071 20.0934 40.093 20.0943 40.079V40.0694C20.103 39.6919 20.1314 39.3151 20.1792 38.9405C20.1792 38.9365 20.1802 38.9323 20.1807 38.9287L20.1845 38.8993L20.1888 38.8679L20.191 38.8509L20.1978 38.802V38.8012C20.3025 38.0611 20.4843 37.334 20.7402 36.6317L24.726 37.5787C24.7128 37.868 24.7111 38.1576 24.7209 38.447C24.7741 39.9928 25.1562 41.1946 25.8566 42.0194C26.5261 42.8062 27.4768 43.2222 28.6071 43.2222V41.3333C28.0275 41.3333 27.6134 41.1638 27.3038 40.8001C26.7404 40.1384 26.601 38.9656 26.6071 38.0108C31.2713 38.9633 36.1127 38.5373 40.5379 36.7851C41.5908 38.1722 44.5282 41.3333 49.4286 41.3333V39.4445C45.7186 39.4445 43.3575 37.2368 42.3232 35.9956C42.8544 35.7353 43.3779 35.4551 43.8937 35.1549L47.5421 33.0312L51.0611 34.5937C52.2696 35.136 53.2948 36.0161 54.0128 37.1274C54.7308 38.2387 55.1109 39.5338 55.1071 40.856Z" fill="#222222"/>
<path d="M18 24.5C18 23.61 17.7361 22.74 17.2416 21.9999C16.7471 21.2599 16.0443 20.6831 15.2221 20.3425C14.3998 20.0019 13.495 19.9128 12.6221 20.0865C11.7492 20.2601 10.9474 20.6887 10.318 21.318C9.68869 21.9474 9.2601 22.7492 9.08647 23.6221C8.91283 24.495 9.00195 25.3998 9.34254 26.2221C9.68314 27.0443 10.2599 27.7471 10.9999 28.2416C11.74 28.7361 12.61 29 13.5 29C14.6931 28.9987 15.8369 28.5241 16.6805 27.6805C17.5241 26.8369 17.9987 25.6931 18 24.5ZM10.8 24.5C10.8 23.966 10.9584 23.444 11.255 23C11.5517 22.5559 11.9734 22.2099 12.4668 22.0055C12.9601 21.8012 13.503 21.7477 14.0267 21.8519C14.5505 21.9561 15.0316 22.2132 15.4092 22.5908C15.7868 22.9684 16.0439 23.4495 16.1481 23.9733C16.2523 24.497 16.1988 25.0399 15.9945 25.5332C15.7901 26.0266 15.4441 26.4483 15 26.745C14.556 27.0416 14.034 27.2 13.5 27.2C12.7842 27.1992 12.0979 26.9144 11.5917 26.4083C11.0856 25.9021 10.8008 25.2158 10.8 24.5Z" fill="#222222"/>
</svg>
