<svg width="42" height="42" viewBox="0 0 42 42" fill="none" xmlns="http://www.w3.org/2000/svg">
<path d="M41.18 32.7243C34.3316 32.7243 27.6101 35.586 22.7387 40.5753C22.4189 40.9026 22.4205 41.4315 22.7415 41.7565C22.8176 41.8337 22.9078 41.895 23.007 41.9367C23.1063 41.9784 23.2126 41.9998 23.32 41.9997C23.5305 41.9997 23.7409 41.9178 23.9014 41.7536C28.4672 37.0771 34.7649 34.395 41.18 34.395C41.6329 34.395 42 34.021 42 33.5597C42 33.0986 41.6329 32.7243 41.18 32.7243ZM24.0801 31.9507C23.8264 31.5682 23.3168 31.4678 22.9417 31.7262C19.4352 34.1389 16.4738 37.1577 14.1393 40.6987C13.8869 41.0818 13.9868 41.6009 14.363 41.8581C14.4524 41.9192 14.5527 41.9619 14.6583 41.9836C14.7639 42.0052 14.8726 42.0055 14.9783 41.9843C15.084 41.9632 15.1846 41.921 15.2743 41.8603C15.364 41.7995 15.441 41.7214 15.5011 41.6303C17.717 38.2684 20.5291 35.402 23.8597 33.1103C24.2348 32.8522 24.3335 32.3331 24.0801 31.9507ZM41.18 26C37.5139 26 33.8854 26.6379 30.3952 27.8962C29.9682 28.0499 29.7446 28.5272 29.8958 28.9621C30.0147 29.305 30.3312 29.5191 30.6687 29.5191C30.7594 29.5191 30.8516 29.5034 30.9423 29.4708C34.2563 28.2762 37.7007 27.6706 41.18 27.6706C41.6329 27.6706 42 27.2967 42 26.8353C42 26.374 41.6329 26 41.18 26Z" fill="white"/>
<path d="M11.7532 36.3709C17.15 29.3345 24.9622 24.4488 33.5825 22.6178L33.587 22.6168C36.0643 22.091 38.6076 21.817 41.1797 21.817C41.6325 21.817 42 21.4495 42 20.9967C42 20.5436 41.6325 20.1764 41.1797 20.1764C38.8521 20.177 36.5293 20.3882 34.2397 20.8073V19.0366C37.2047 16.5267 38.8322 13.2377 38.8322 9.73539C38.8322 6.11413 37.0926 2.72107 33.9334 0.180969C33.7876 0.0638449 33.6062 0 33.4192 0C33.2323 0 33.0509 0.0638449 32.9051 0.180969C29.7462 2.72107 28.0063 6.11413 28.0063 9.73539C28.0063 13.2377 29.6341 16.5267 32.5988 19.0366V21.1428C31.0395 21.4981 29.5036 21.9494 27.9999 22.4941V17.6912C27.9999 17.4656 27.9088 17.2614 27.7615 17.113V17.1127L23.1678 12.4917C23.0915 12.4151 23.0008 12.3542 22.9009 12.3127C22.8011 12.2712 22.694 12.2498 22.5858 12.2498H13.207C13.0989 12.2498 12.9919 12.2712 12.8921 12.3128C12.7923 12.3543 12.7016 12.4151 12.6254 12.4918L8.03168 17.1127V17.113C7.87859 17.2666 7.79272 17.4746 7.79297 17.6914V20.824C7.22091 20.719 6.64655 20.627 6.07031 20.5481V17.6238C8.31239 15.6951 9.54253 13.1797 9.54253 10.4999C9.54253 7.70028 8.2005 5.07979 5.76401 3.12039C5.6183 3.00325 5.43696 2.93939 5.25 2.93939C5.06304 2.93939 4.8817 3.00325 4.73599 3.12039C2.29942 5.07938 0.957469 7.7002 0.957469 10.4999C0.957469 13.1794 2.18761 15.6948 4.42969 17.6235V20.3593C3.22985 20.2468 2.02542 20.1902 0.820312 20.1899C0.367254 20.1899 0 20.5571 0 21.0102C0 21.4632 0.367254 21.8305 0.820312 21.8305C7.37953 21.8305 13.7954 23.5659 19.4513 26.8584C18.0975 27.7787 16.8033 28.7839 15.5767 29.8679C10.9941 27.5333 5.90239 26.3012 0.820312 26.3012C0.3675 26.3012 0 26.6684 0 27.1215C0 27.5746 0.3675 27.9418 0.820312 27.9418C5.4445 27.9418 10.0779 29.0172 14.2875 31.0593C13.0395 32.2669 11.8741 33.557 10.799 34.9209C7.60807 33.5828 4.25439 32.9047 0.820312 32.9047C0.3675 32.9047 0 33.272 0 33.725C0 34.1781 0.3675 34.5453 0.820312 34.5453C3.89648 34.5453 6.90408 35.1286 9.77714 36.277C9.20915 37.0654 8.67138 37.8751 8.16498 38.7043L6.91499 40.7521C6.67882 41.1386 6.80121 41.6436 7.18766 41.8794C7.31606 41.9583 7.4638 42 7.61447 41.9999C7.7552 42 7.89359 41.9639 8.01632 41.8951C8.13906 41.8262 8.242 41.7269 8.31526 41.6068L9.56525 39.5588C10.2144 38.4961 10.9176 37.4673 11.6721 36.4766C11.7017 36.4439 11.7292 36.409 11.7532 36.3708V36.3709ZM29.6472 9.73531C29.6472 6.81976 30.9812 4.05793 33.4194 1.8937C35.8576 4.05793 37.1916 6.81968 37.1916 9.73539C37.1916 12.3046 36.1547 14.755 34.2397 16.7817V10.4999C34.2397 10.0469 33.8725 9.67961 33.4194 9.67961C32.9663 9.67961 32.5991 10.0469 32.5991 10.4999V16.7817C30.6839 14.755 29.6472 12.3045 29.6472 9.73531ZM2.59809 10.4999C2.59809 8.40747 3.53473 6.42018 5.25 4.84108C6.96527 6.41986 7.90191 8.40747 7.90191 10.4999C7.90191 12.2293 7.26141 13.8872 6.07031 15.3023V9.84368C6.07031 9.39062 5.70306 9.02336 5.25 9.02336C4.79719 9.02336 4.42969 9.39062 4.42969 9.84368V15.3023C3.23859 13.8872 2.59809 12.2293 2.59809 10.4999ZM25.2076 16.8708H18.142L15.1793 13.8904H22.2449L25.2076 16.8708ZM13.207 14.2337L15.8288 16.8708H10.5856L13.207 14.2337ZM9.43359 18.5114H16.9805V23.7281C16.6004 23.5531 16.2175 23.3842 15.832 23.2215V20.4664C15.832 20.0136 15.4648 19.6461 15.0117 19.6461H11.4023C10.9495 19.6461 10.582 20.0136 10.582 20.4664V21.4417C10.2007 21.3422 9.81781 21.2484 9.43359 21.1605V18.5114ZM14.1914 22.5742C13.5413 22.3345 12.8848 22.1124 12.2227 21.9081V21.2867H14.1914V22.5742ZM18.6211 24.5308V18.5114H26.3596V23.1308C24.9516 23.7136 23.5794 24.3795 22.2503 25.1249C21.8251 25.3639 21.4045 25.611 20.9888 25.866C20.2153 25.3935 19.4256 24.9481 18.6211 24.5308Z" fill="white"/>
<path d="M33.1978 8.65379C33.4088 8.65379 33.6158 8.56531 33.765 8.41118C33.9148 8.25587 33.9993 8.04594 34 7.82689C34 7.60917 33.9145 7.39608 33.765 7.24228C33.6143 7.08768 33.4105 7.00061 33.1978 7C32.987 7 32.7799 7.08815 32.631 7.24228C32.4809 7.39757 32.3963 7.60767 32.3957 7.82689C32.3957 8.04429 32.4815 8.25746 32.631 8.41118C32.7816 8.56579 32.9853 8.65296 33.1978 8.65379ZM26.235 30.5888C26.0853 30.7442 26.0009 30.9541 26 31.1731C26 31.3914 26.0858 31.6039 26.235 31.7577C26.3858 31.9123 26.5896 31.9993 26.8022 32C27.0134 32 27.2201 31.9119 27.3693 31.7577C27.5185 31.6039 27.6043 31.3914 27.6043 31.1731C27.6036 30.9541 27.5191 30.7441 27.3693 30.5888C27.2187 30.4341 27.0148 30.3469 26.8022 30.3462C26.5913 30.3462 26.3845 30.4347 26.235 30.5888Z" fill="white"/>
</svg>
