<svg width="13" height="13" viewBox="0 0 13 13" fill="none" xmlns="http://www.w3.org/2000/svg">
<g clip-path="url(#clip0_142_647)">
<path d="M11.7577 4.38481L8.81403 3.95622C8.78787 3.9524 8.76301 3.94232 8.74158 3.92683C8.72014 3.91134 8.70277 3.8909 8.69094 3.86725L7.37469 1.19941C7.20853 0.864656 6.87378 0.65625 6.50003 0.65625C6.12628 0.65625 5.79113 0.864656 5.62578 1.19981L4.30913 3.86725C4.29741 3.89094 4.28013 3.91145 4.25877 3.92702C4.2374 3.94258 4.21259 3.95274 4.18644 3.95663L1.24235 4.38481C1.062 4.41014 0.892457 4.48583 0.75319 4.60318C0.613923 4.72053 0.510581 4.87478 0.455034 5.04822C0.397949 5.22113 0.390807 5.40663 0.434428 5.58341C0.478049 5.7602 0.570664 5.92109 0.701628 6.04759L2.83241 8.12475C2.8706 8.16172 2.88806 8.21575 2.87872 8.26856L2.3766 11.2009C2.31322 11.5697 2.46191 11.935 2.76456 12.1547C2.91138 12.2626 3.08566 12.3268 3.26735 12.3399C3.44904 12.3531 3.63075 12.3147 3.79157 12.2291L6.42528 10.8442C6.44849 10.8321 6.47427 10.8258 6.50044 10.8258C6.52661 10.8258 6.55239 10.8321 6.5756 10.8442L9.20972 12.2291C9.37065 12.314 9.55218 12.3521 9.73366 12.3389C9.91515 12.3258 10.0893 12.262 10.2363 12.1547C10.3842 12.0484 10.499 11.9024 10.5676 11.7337C10.6363 11.5649 10.6559 11.3803 10.6243 11.2009L10.1218 8.26775C10.1173 8.24185 10.1192 8.21525 10.1274 8.19027C10.1355 8.16528 10.1496 8.14265 10.1685 8.12434L12.2988 6.04759C12.567 5.78719 12.6616 5.40369 12.5454 5.04822C12.4899 4.87478 12.3866 4.72053 12.2473 4.60318C12.108 4.48583 11.9385 4.41014 11.7581 4.38481H11.7577ZM11.7313 5.46625L9.60135 7.54219C9.48794 7.65253 9.40315 7.78885 9.35431 7.93934C9.30546 8.08984 9.29404 8.24997 9.32103 8.40588L9.82316 11.3382C9.82913 11.3682 9.82615 11.3993 9.81459 11.4276C9.80303 11.4559 9.78341 11.4802 9.75816 11.4974C9.73401 11.5159 9.70502 11.5269 9.67472 11.5291C9.64442 11.5314 9.61412 11.5247 9.58753 11.51L6.95422 10.1255C6.81426 10.0518 6.65844 10.0132 6.50024 10.0132C6.34203 10.0132 6.18621 10.0518 6.04625 10.1255L3.41335 11.51C3.38665 11.5249 3.3562 11.5316 3.32575 11.5293C3.29529 11.5271 3.26616 11.516 3.24191 11.4974C3.21666 11.4802 3.19703 11.4559 3.18548 11.4276C3.17392 11.3993 3.17094 11.3682 3.17691 11.3382L3.67944 8.40628C3.70636 8.25044 3.69491 8.09039 3.64607 7.93997C3.59722 7.78955 3.51247 7.6533 3.39913 7.543L1.26875 5.46625C1.2464 5.44552 1.23058 5.41872 1.22322 5.38914C1.21586 5.35956 1.21729 5.32847 1.22732 5.29969C1.23598 5.2703 1.25307 5.2441 1.27646 5.22432C1.29985 5.20454 1.32853 5.19204 1.35894 5.18837L4.30344 4.76019C4.45984 4.73749 4.60837 4.67712 4.73625 4.58427C4.86413 4.49142 4.96753 4.36887 5.03753 4.22719L6.35378 1.55934C6.39278 1.48013 6.46225 1.46875 6.50003 1.46875C6.53782 1.46875 6.60728 1.48013 6.64628 1.55934L7.96253 4.22759C8.03263 4.36925 8.13611 4.49175 8.26406 4.58453C8.39201 4.67731 8.54061 4.73759 8.69703 4.76019L11.6411 5.18837C11.6715 5.19201 11.7001 5.20445 11.7235 5.22416C11.7469 5.24386 11.764 5.26997 11.7728 5.29928C11.7828 5.32807 11.7842 5.35915 11.7768 5.38874C11.7695 5.41832 11.7537 5.44552 11.7313 5.46625Z" fill="#FB811F"/>
</g>
<defs>
<clipPath id="clip0_142_647">
<rect width="13" height="13" fill="white"/>
</clipPath>
</defs>
</svg>
