<svg width="53" height="53" viewBox="0 0 53 53" fill="none" xmlns="http://www.w3.org/2000/svg">
<g clip-path="url(#clip0_142_1083)">
<path d="M22.5001 8.49614C23.5001 7.49591 24.0001 6.67972 24.0001 4.4952C24.0001 2.65902 24.0001 1.49449 22.7784 0.260959C22.065 -0.214704 21.101 -0.0220158 20.6254 0.691686C20.1496 1.40528 20.3425 2.36945 21.056 2.84521C21.6636 3.25047 22.0265 3.96717 22.0263 4.76247C22.0001 5.99555 22.1076 6.27446 21.5001 6.67972C20.0266 7.66231 19.2554 9.32589 19.2554 11.1296C19.2554 12.9335 19.5824 14.5968 21.056 15.5794C21.7696 16.0553 22.7336 15.8621 23.209 15.1486C23.6846 14.435 23.2136 14.4732 22.5001 13.9974C21.8834 13.5862 21.5001 12.2711 21.5001 11.4968C21.5001 10.7226 22.0263 9.26397 22.5001 8.49614ZM29.7892 9.26397C31.2627 8.28148 32.1425 6.59864 32.1425 4.76247C32.1425 2.92629 32.0147 1.24355 30.5413 0.260959C29.8278 -0.214704 28.8639 -0.0220158 28.3882 0.691686C27.9125 1.40528 28.1053 2.36945 28.8189 2.84521C29.4265 3.25047 29.7893 3.96717 29.7892 4.76247C29.7892 5.55776 29.4264 6.27446 28.8189 6.67972C27.3454 7.66231 26.4656 9.32578 26.4656 11.1295C26.4656 12.9334 27.3453 14.5968 28.8189 15.5794C29.5325 16.0553 30.4964 15.8621 30.9719 15.1486C31.4474 14.435 30.5028 13.4708 29.7892 12.995C29.1726 12.5838 29.0001 11.771 29.0001 10.9967C29.0001 10.2225 29.1724 9.67523 29.7892 9.26397ZM37.6469 9.26397C39.1204 8.28148 40.0002 6.59864 40.0002 4.76247C40.0002 2.92629 39.7776 1.24355 38.3041 0.260959C37.5906 -0.214704 36.6268 -0.0220158 36.1511 0.691686C35.6754 1.40528 35.8682 2.36945 36.5817 2.84521C37.1894 3.25047 37.5522 3.96717 37.5521 4.76247C37.5521 5.55776 37.1893 6.27446 36.5817 6.67972C35.1083 7.66231 34.2285 9.32578 34.2285 11.1295C34.2285 12.9334 35.1082 14.5968 36.5817 15.5794C37.2954 16.0553 38.2593 15.8621 38.7348 15.1486C39.2104 14.435 39.0176 13.4708 38.304 12.995C37.6874 12.5838 36.6765 11.9038 36.6765 11.1296C36.6765 10.3553 37.0302 9.67523 37.6469 9.26397ZM51.4421 43.6825H48.0298C49.4044 41.0025 50.0344 38.0224 49.862 34.9396C49.726 32.5061 49.0453 30.1678 47.8849 28.0509C49.2668 27.8055 50.5426 27.1004 51.5005 25.9828C53.2795 23.9071 53.491 21.0492 52.0524 18.5243C51.6278 17.7791 50.6796 17.5193 49.9348 17.9439C49.1898 18.3687 48.93 19.3169 49.3547 20.0621C50.1374 21.4359 50.0583 22.8936 49.1431 23.9614C48.4578 24.7608 47.1684 25.4004 45.5884 24.8292C45.1394 24.3324 44.6628 23.8612 44.1608 23.4179C40.8135 20.463 36.5109 18.8459 32.0456 18.8459L19.4359 18.8458C19.225 18.8453 19.0167 18.8002 18.8246 18.7134C18.6325 18.6266 18.461 18.5 18.3213 18.3421C16.8786 16.7063 14.2522 15.9979 12 15.9979L7.76287 15.7296C7.5278 15.7296 7.29578 15.7829 7.08432 15.8857C6.87286 15.9884 6.68749 16.1378 6.54219 16.3226C6.39689 16.5075 6.29545 16.7229 6.24553 16.9527C6.19562 17.1825 6.19852 17.4206 6.25402 17.6491L8.00003 24.2145C6.85567 25.4103 6.02769 26.526 5.27611 28.0007L4.96701 28.5009C2.39888 28.5008 0.500002 30.243 0.500002 32.812V35.9179C0.500002 38.4867 2.08947 40.5766 4.6577 40.5766H5.27611L6.92243 43.6825H1.55253C0.69511 43.6825 0 44.3778 0 45.2354C0 46.0931 0.69511 46.7883 1.55253 46.7883H3.69811L5.51596 50.4248C6.31003 52.0133 7.90645 53 9.68196 53H43.2091C44.9927 53 46.7086 51.9651 47.4788 50.4248L49.2965 46.7883H51.4421C52.2995 46.7883 52.9946 46.0931 52.9946 45.2354C52.9946 44.3778 52.2995 43.6825 51.4421 43.6825ZM44.7013 49.0358C44.4526 49.5332 44.1161 50.4248 43.5002 50.4248H9.50004C9.21149 50.4257 9.11036 49.8153 8.8649 49.6635C8.61944 49.5118 8.42139 49.2943 8.29319 49.0358L7.16973 46.7883H45.8247L44.7013 49.0358ZM18.5001 44.0045C18.5001 42.292 20.1273 40.0036 21.8395 40.0036C23.5517 40.0036 24.9427 42.292 24.9427 44.0045H18.5001ZM26.5001 40.5766C26.7542 40.5107 28.2376 40.5039 28.5001 40.5037C30.2123 40.5037 31.5001 42.5042 31.153 44.5046H27.5001C27.5011 43.4526 27.0114 41.496 26.5001 40.5766ZM33.0001 40.5037C33.2543 40.4378 34.2376 40.5039 34.5001 40.5037C36.2123 40.5037 37.5001 42.004 37.3336 44.0045H34.0001C34.0011 42.9525 33.5114 41.4231 33.0001 40.5037ZM45.0002 44.0045H40.0002C40.0002 40.5793 37.4245 37.693 34.0001 37.693C32.9091 37.6929 32.0973 37.7586 31.153 38.3054C30.2105 37.758 29.09 38.0022 28.0001 38.0031C26.909 38.003 25.887 38.4566 24.9427 39.0033C24.0002 38.4559 22.9294 38.0022 21.8395 38.0031C18.4151 38.0031 16.5001 40.2574 16.5001 43.6826H10.4369L7.58182 38.2963C7.44972 38.047 7.25222 37.8385 7.01056 37.693C6.76889 37.5476 6.49218 37.4708 6.21013 37.4708H4.6577C3.80163 37.4708 3.10517 36.7741 3.10517 35.9179V32.812C3.10517 31.9557 3.80163 31.2591 4.6577 31.2591H5.91408C6.52606 31.2731 7.11124 30.9216 7.37096 30.3313L7.37241 30.3279L7.37417 30.324C8.12984 28.5953 9.21137 27.059 10.589 25.7572L10.6063 25.7409C10.8097 25.5494 10.9577 25.3065 11.0347 25.0378C11.1116 24.7692 11.1147 24.4848 11.0435 24.2145L9.50004 18.4985H12.4205C13.7952 18.4985 15.6379 19.0212 16.5001 19.9989C17.3659 20.9804 18.1778 20.9991 19.5001 20.9991H32.0456C39.7542 20.9991 47.4789 27.2394 47.8849 34.5023C48.0571 37.5837 46.6974 41.4709 45.0002 44.0045Z" fill="#222222"/>
<path d="M10.5 33C11.3284 33 12 32.3284 12 31.5C12 30.6716 11.3284 30 10.5 30C9.67157 30 9 30.6716 9 31.5C9 32.3284 9.67157 33 10.5 33Z" fill="#222222"/>
<path d="M37.5 30C38.3284 30 39 29.3284 39 28.5C39 27.6716 38.3284 27 37.5 27C36.6716 27 36 27.6716 36 28.5C36 29.3284 36.6716 30 37.5 30Z" fill="#222222"/>
<path d="M41.5 36C42.3284 36 43 35.3284 43 34.5C43 33.6716 42.3284 33 41.5 33C40.6716 33 40 33.6716 40 34.5C40 35.3284 40.6716 36 41.5 36Z" fill="#222222"/>
</g>
<defs>
<clipPath id="clip0_142_1083">
<rect width="53" height="53" fill="white"/>
</clipPath>
</defs>
</svg>
