<svg width="60" height="60" viewBox="0 0 60 60" fill="none" xmlns="http://www.w3.org/2000/svg">
<path d="M28.7397 38.0513C28.6178 38.218 28.4781 38.3711 28.323 38.508C28.1923 38.6231 28.1001 38.7748 28.0585 38.943C28.0169 39.1112 28.028 39.288 28.0902 39.4498C28.1524 39.6117 28.2628 39.7509 28.4067 39.8492C28.5507 39.9475 28.7215 40.0001 28.8963 40C29.1075 40.0002 29.3114 39.9234 29.469 39.7841C29.7169 39.5653 29.9403 39.3207 30.1353 39.0544C30.7 38.2873 31.0029 37.3618 31 36.4124C30.9997 36.1861 30.9088 35.9692 30.7471 35.8092C30.5854 35.6493 30.3663 35.5594 30.1377 35.5594H30.1368C30.0236 35.5596 29.9115 35.5818 29.8069 35.6248C29.7023 35.6678 29.6074 35.7308 29.5274 35.8102C29.4474 35.8896 29.384 35.9838 29.3408 36.0874C29.2975 36.1911 29.2754 36.3021 29.2755 36.4143C29.2774 37.0025 29.0897 37.576 28.7397 38.0513ZM21.6303 31.6765C23.9297 32.3133 26.7446 33.1705 28.1147 34.1553C28.2616 34.2612 28.4387 34.3183 28.6204 34.3182C28.8026 34.3184 28.9802 34.2614 29.1277 34.1554C29.2752 34.0494 29.3849 33.8999 29.4413 33.7282C29.4976 33.5566 29.4976 33.3717 29.4412 33.2001C29.3848 33.0285 29.275 32.879 29.1275 32.7731C27.5447 31.6354 24.6842 30.749 22.0947 30.0318C21.636 29.9047 21.1602 30.17 21.032 30.6242C20.9039 31.0783 21.1718 31.5496 21.6303 31.6765Z" fill="#222222"/>
<path d="M58.6292 43.9496C59.529 42.404 59.9998 40.6611 59.9998 38.8442C59.9998 29.0858 52.02 21.1469 42.2113 21.1469H29.3524C27.4978 20.0787 25.5275 18.8543 24.5987 17.7438L22.7585 15.5435C22.7737 15.5313 22.7889 15.519 22.8039 15.5066C24.3716 14.2089 24.5858 11.8842 23.2814 10.3245C21.9771 8.76492 19.6404 8.55174 18.0726 9.84954C17.3132 10.4782 16.8453 11.3634 16.7551 12.3422C16.746 12.4415 16.7408 12.5411 16.7396 12.6408C15.7077 12.463 14.6065 12.7187 13.7403 13.4358C12.1726 14.7335 11.9585 17.0582 13.2628 18.6179C14.5671 20.1775 16.9038 20.3907 18.4716 19.0929C18.4866 19.0804 18.5016 19.0679 18.5163 19.0551L20.3565 21.2554C20.4073 21.3163 20.4588 21.3822 20.5104 21.451C18.3072 21.9155 16.2491 22.9019 14.5108 24.3266C13.6036 23.9822 12.8426 23.6198 12.2967 23.2256L9.96814 21.5443C9.97988 21.5288 9.9915 21.5131 10.003 21.4974C10.5833 20.7019 10.8175 19.7293 10.6625 18.7587C10.5075 17.7881 9.98188 16.9354 9.18227 16.358C8.38279 15.7807 7.40507 15.5476 6.42946 15.702C5.45374 15.8562 4.59684 16.3792 4.01657 17.1746C3.43631 17.9701 3.20206 18.9427 3.35705 19.9134C3.37278 20.0117 3.39227 20.1089 3.41552 20.2047C3.31689 20.2124 3.21779 20.2241 3.11905 20.2398C2.14332 20.3939 1.28642 20.9169 0.706157 21.7123C0.125889 22.5078 -0.108356 23.4804 0.046633 24.4511C0.201622 25.4218 0.727291 26.2743 1.52677 26.8516C2.32638 27.4289 3.30386 27.662 4.2797 27.5078C5.25543 27.3536 6.11233 26.8306 6.69259 26.0351C6.7041 26.0193 6.71537 26.0035 6.72664 25.9876L9.05523 27.6691C9.56528 28.0373 10.1072 28.592 10.6739 29.2762C9.82512 31.1066 9.39386 33.0648 9.39386 35.1063C9.39386 42.8035 15.6882 49.0655 23.425 49.0655H35.636C35.7405 49.0655 35.8403 49.0463 35.9334 49.0132C36.8031 49.6501 37.8579 50 38.9821 50H56.3014C58.3408 50 60 48.3493 60 46.3204C59.9998 45.3102 59.4481 44.4264 58.6292 43.9496ZM24.5699 20.1232C25.0017 20.4684 25.4803 20.8099 25.9879 21.147H23.4248C23.3938 21.147 23.3628 21.1479 23.3318 21.1481L24.5699 20.1232ZM19.1969 17.1294C19.1067 17.0216 18.9917 16.937 18.8618 16.8826C18.7319 16.8281 18.5907 16.8056 18.4502 16.8167C18.3096 16.8278 18.1738 16.8723 18.0542 16.9465C17.9345 17.0207 17.8345 17.1223 17.7625 17.2429C17.6377 17.4521 17.5012 17.6167 17.345 17.746C16.5238 18.4259 15.2997 18.3141 14.6166 17.4972C13.9334 16.6802 14.0455 15.4625 14.8667 14.7828C15.6879 14.1031 16.9119 14.2147 17.5951 15.0316C17.7451 15.2081 17.9592 15.3185 18.1906 15.3387C18.4221 15.3588 18.6522 15.2872 18.8308 15.1394C19.0094 14.9915 19.122 14.7794 19.1441 14.5493C19.1663 14.3192 19.0961 14.0898 18.9489 13.9109C18.6179 13.5151 18.4616 13.0148 18.5088 12.5021C18.556 11.9894 18.8012 11.5258 19.1989 11.1965C20.0202 10.5168 21.244 10.6283 21.9274 11.4453C22.6106 12.2623 22.4984 13.48 21.6772 14.1597C21.521 14.289 21.3335 14.3928 21.1041 14.4766C20.9717 14.5251 20.853 14.6044 20.7579 14.708C20.6628 14.8116 20.5941 14.9363 20.5576 15.0718C20.521 15.2073 20.5177 15.3496 20.5479 15.4866C20.5781 15.6236 20.641 15.7514 20.7312 15.8592L23.2448 18.8646C23.257 18.8792 23.2711 18.8938 23.2835 18.9084L21.7472 20.1803C21.7349 20.1653 21.7227 20.1496 21.7104 20.1349L19.1969 17.1294ZM12.4337 28.6648C12.4151 28.638 12.3949 28.6122 12.3733 28.5876C12.0586 28.1892 11.747 27.8194 11.4384 27.4846L12.8591 25.5372C14.7519 26.394 17.3605 27.0849 20.0835 27.8058C24.0831 28.8647 28.219 29.9597 30.5368 31.6334C33.4972 33.7711 34.1575 37.9063 32.0089 40.8515C30.968 42.2783 29.4311 43.2164 27.681 43.493C25.9308 43.7695 24.1773 43.3517 22.7432 42.3161C20.4254 40.6425 18.0971 37.0699 15.8454 33.6149C14.6706 31.8121 13.5336 30.068 12.4337 28.6648ZM6.90922 23.9544C6.79511 23.8721 6.66279 23.8181 6.52338 23.7972C6.38397 23.7763 6.24155 23.789 6.10809 23.8342C5.97463 23.8794 5.85403 23.9558 5.75643 24.057C5.65882 24.1583 5.58707 24.2813 5.5472 24.4158C5.47816 24.6492 5.38658 24.8421 5.26717 25.0059C5.1182 25.2112 4.92981 25.3851 4.71287 25.5175C4.49593 25.6499 4.25476 25.7382 4.00331 25.7773C3.75205 25.8177 3.49524 25.8081 3.24773 25.7491C3.00022 25.6901 2.76692 25.5829 2.56132 25.4336C2.35494 25.2855 2.18015 25.098 2.04705 24.8822C1.91395 24.6664 1.82519 24.4264 1.78591 24.1763C1.70478 23.6678 1.82748 23.1583 2.13135 22.7417C2.43522 22.325 2.88422 22.0511 3.39521 21.9702C3.64647 21.9298 3.90329 21.9393 4.15081 21.9983C4.39833 22.0573 4.63162 22.1646 4.83719 22.3139C5.0262 22.4504 5.26197 22.5066 5.49264 22.4702C5.7233 22.4337 5.92997 22.3076 6.06718 22.1196C6.20438 21.9315 6.26089 21.697 6.22426 21.4675C6.18763 21.238 6.06087 21.0324 5.87186 20.8959C5.45304 20.5935 5.17758 20.1469 5.09645 19.6384C5.01531 19.1299 5.13801 18.6205 5.44188 18.2038C5.74575 17.7871 6.19475 17.5132 6.70574 17.4324C7.21685 17.3518 7.7289 17.4736 8.14773 17.776C8.56643 18.0785 8.84189 18.525 8.92314 19.0335C9.00439 19.542 8.88157 20.0514 8.57758 20.4682C8.45829 20.6318 8.30236 20.7781 8.10064 20.9159C7.98439 20.9952 7.889 21.1012 7.82249 21.2249C7.75597 21.3486 7.72028 21.4864 7.71842 21.6266C7.71656 21.7669 7.74857 21.9055 7.81178 22.0309C7.87498 22.1563 7.96752 22.2648 8.08162 22.3472L11.2622 24.6437C11.2778 24.655 11.2943 24.6659 11.3102 24.6773L10.1364 26.2861C10.1208 26.2747 10.1052 26.2623 10.0895 26.2511L6.90922 23.9544ZM56.3012 48.2478H38.9819C37.8754 48.2478 36.8697 47.7356 36.2226 46.8425C35.5757 45.9494 35.4053 44.8382 35.7552 43.7939C35.7918 43.6848 35.8064 43.5695 35.7982 43.4548C35.79 43.34 35.7591 43.228 35.7074 43.125C35.6557 43.0221 35.5841 42.9304 35.4967 42.855C35.4093 42.7796 35.3079 42.7221 35.1982 42.6857C34.9766 42.6122 34.7348 42.6293 34.5259 42.7332C34.317 42.8371 34.1581 43.0193 34.0843 43.2398C33.6233 44.6156 33.7581 46.0675 34.4435 47.3133H23.4248C16.6591 47.3133 11.1549 41.8372 11.1549 35.1063C11.1549 33.6454 11.4065 32.2336 11.9041 30.8923C12.6946 32.0011 13.5209 33.2688 14.3676 34.5681C16.7069 38.1576 19.1257 41.8691 21.7086 43.7341C23.1949 44.8074 24.9193 45.3238 26.6288 45.3238C29.2285 45.3238 31.7938 44.1291 33.4341 41.8806C36.1532 38.1535 35.3175 32.9203 31.5711 30.2152C28.9882 28.3501 24.6915 27.2125 20.5363 26.1123C19.1371 25.7419 17.7696 25.3798 16.5354 25.0057C18.5676 23.6322 20.9679 22.8982 23.4247 22.899H29.0362C29.0944 22.9047 29.1527 22.9046 29.2102 22.899H42.2111C51.0486 22.899 58.2383 30.0519 58.2383 38.8441C58.2383 40.5498 57.7368 42.1759 56.7861 43.575H45.9702C45.9438 43.575 45.928 43.575 45.9145 43.5351C45.9011 43.4951 45.9139 43.4857 45.9349 43.4699L47.4378 42.3485C47.6247 42.2091 47.7482 42.0015 47.7812 41.7715C47.8142 41.5415 47.7541 41.3078 47.6139 41.1219C47.4738 40.936 47.2652 40.8132 47.034 40.7803C46.8028 40.7474 46.5679 40.8073 46.3811 40.9467L44.8782 42.0681C44.2407 42.5438 43.9917 43.3371 44.2436 44.0892C44.4956 44.8414 45.1733 45.3273 45.9702 45.3273H57.2338C57.2359 45.3273 57.2379 45.3278 57.24 45.3278L57.2447 45.3276C57.7931 45.33 58.2384 45.7743 58.2384 46.3204C58.2385 47.383 57.3694 48.2478 56.3012 48.2478Z" fill="#222222"/>
<path d="M44.7251 26.1045C44.7591 25.8805 44.6976 25.6528 44.554 25.4716C44.4104 25.2904 44.1965 25.1706 43.9593 25.1384C43.2784 25.0462 42.5913 25 41.9034 25C41.6638 25 41.434 25.0899 41.2646 25.25C41.0952 25.41 41 25.6271 41 25.8535C41 26.0798 41.0952 26.2969 41.2646 26.457C41.434 26.617 41.6638 26.7069 41.9034 26.7069C42.5056 26.7069 43.1107 26.7476 43.7024 26.8279C43.9395 26.86 44.1805 26.8018 44.3722 26.6662C44.564 26.5305 44.6909 26.3285 44.7251 26.1045ZM47.2951 27.854C49.9085 29.0295 52.0329 31.0366 53.277 33.5055C53.3272 33.6079 53.3984 33.6998 53.4865 33.776C53.5745 33.8521 53.6777 33.9111 53.79 33.9494C53.9024 33.9876 54.0216 34.0045 54.1409 33.999C54.2602 33.9934 54.3771 33.9656 54.4849 33.9171C54.5927 33.8687 54.6893 33.8005 54.769 33.7165C54.8488 33.6325 54.9101 33.5344 54.9495 33.4279C54.9889 33.3214 55.0055 33.2086 54.9984 33.096C54.9913 32.9834 54.9607 32.8732 54.9083 32.7719C53.4863 29.9501 51.0584 27.6562 48.0716 26.3127C47.9645 26.2646 47.8484 26.2368 47.7299 26.231C47.6115 26.2252 47.4929 26.2416 47.3811 26.2791C47.2693 26.3166 47.1664 26.3745 47.0783 26.4496C46.9902 26.5246 46.9186 26.6153 46.8676 26.7165C46.8167 26.8177 46.7873 26.9274 46.7811 27.0394C46.775 27.1513 46.7923 27.2633 46.832 27.3689C46.9122 27.5822 47.0787 27.7567 47.2951 27.854Z" fill="#222222"/>
</svg>
