<svg width="83" height="15" viewBox="0 0 83 15" fill="none" xmlns="http://www.w3.org/2000/svg">
<path d="M10.2652 11.69V5.73197H4.95251V7.66954H8.31421C8.19415 8.47686 7.42876 9.89774 5.46277 9.89774C3.67686 9.89774 2.10106 8.55759 2.10106 5.97417C2.10106 3.26157 3.84195 2.08289 5.44776 2.08289C7.17363 2.08289 8.05908 3.26157 8.32922 4.27879L10.3102 3.51991C9.78496 1.75996 8.23917 0 5.44776 0C2.5663 0 0 2.27664 0 5.97417C0 9.67169 2.44624 11.9322 5.31269 11.9322C6.9185 11.9322 7.96904 11.1572 8.44928 10.3821L8.58435 11.69H10.2652Z" fill="#222222"/>
<path d="M15.5216 9.97847C14.5461 9.97847 13.6457 9.20345 13.6457 7.71798C13.6457 6.21636 14.5461 5.45748 15.5216 5.45748C16.4971 5.45748 17.3976 6.21636 17.3976 7.71798C17.3976 9.21959 16.4971 9.97847 15.5216 9.97847ZM15.5216 3.50377C13.3155 3.50377 11.6496 5.26373 11.6496 7.71798C11.6496 10.1561 13.3155 11.9322 15.5216 11.9322C17.7277 11.9322 19.3936 10.1561 19.3936 7.71798C19.3936 5.26373 17.7277 3.50377 15.5216 3.50377Z" fill="#222222"/>
<path d="M24.2858 9.97847C23.3103 9.97847 22.4099 9.20345 22.4099 7.71798C22.4099 6.21636 23.3103 5.45748 24.2858 5.45748C25.2613 5.45748 26.1618 6.21636 26.1618 7.71798C26.1618 9.21959 25.2613 9.97847 24.2858 9.97847ZM24.2858 3.50377C22.0797 3.50377 20.4139 5.26373 20.4139 7.71798C20.4139 10.1561 22.0797 11.9322 24.2858 11.9322C26.4919 11.9322 28.1578 10.1561 28.1578 7.71798C28.1578 5.26373 26.4919 3.50377 24.2858 3.50377Z" fill="#222222"/>
<path d="M29.2081 12.1259C29.4182 13.6437 30.7689 15 32.7949 15C35.5713 15 36.6669 13.014 36.6669 10.8342V3.74596H34.7459V4.68245C34.4907 4.14962 33.8154 3.60065 32.6448 3.60065C30.6188 3.60065 29.2081 5.37675 29.2081 7.47578C29.2081 9.70398 30.6788 11.3348 32.6448 11.3348C33.7104 11.3348 34.4007 10.8342 34.7009 10.3175V10.8988C34.7009 12.4327 33.9955 13.1109 32.7349 13.1109C31.7894 13.1109 31.1441 12.4812 31.009 11.6093L29.2081 12.1259ZM32.99 9.49408C31.9545 9.49408 31.2191 8.71905 31.2191 7.47578C31.2191 6.24865 31.9995 5.47363 32.99 5.47363C33.9505 5.47363 34.7309 6.24865 34.7309 7.47578C34.7309 8.70291 34.0105 9.49408 32.99 9.49408Z" fill="#222222"/>
<path d="M40.6841 11.69V0H38.6881V11.69H40.6841Z" fill="#222222"/>
<path d="M44.2768 6.81378C44.3218 6.08719 44.8921 5.24758 45.9276 5.24758C47.0682 5.24758 47.5484 6.0226 47.5784 6.81378H44.2768ZM47.7735 8.88052C47.5334 9.59096 47.0232 10.0915 46.0927 10.0915C45.1022 10.0915 44.2768 9.33262 44.2317 8.2831H49.5144C49.5144 8.25081 49.5444 7.92788 49.5444 7.6211C49.5444 5.06997 48.1787 3.50377 45.8976 3.50377C44.0066 3.50377 42.2657 5.1507 42.2657 7.68568C42.2657 10.366 44.0516 11.9322 46.0777 11.9322C47.8936 11.9322 49.0642 10.7858 49.4394 9.41335L47.7735 8.88052Z" fill="#222222"/>
<path d="M57.0603 5.45748V2.17976H58.6961C59.7317 2.17976 60.362 2.80947 60.362 3.8267C60.362 4.81163 59.7317 5.45748 58.6961 5.45748H57.0603ZM58.9513 7.3789C61.0523 7.3789 62.448 5.89343 62.448 3.81055C62.448 1.74381 61.0523 0.242196 58.9513 0.242196H54.9743V11.69H57.0453V7.3789H58.9513Z" fill="#222222"/>
<path d="M65.8189 11.69V0H63.8229V11.69H65.8189Z" fill="#222222"/>
<path d="M67.4616 9.52637C67.4616 10.7696 68.4221 11.916 69.9979 11.916C71.0935 11.916 71.7988 11.3671 72.174 10.7374C72.174 11.0441 72.204 11.4801 72.2491 11.69H74.08C74.035 11.4155 73.9899 10.8504 73.9899 10.4306V6.52314C73.9899 4.92465 73.1195 3.50377 70.7783 3.50377C68.7973 3.50377 67.7318 4.87621 67.6117 6.11948L69.3826 6.52314C69.4426 5.82885 69.9229 5.23143 70.7933 5.23143C71.6337 5.23143 72.0389 5.69968 72.0389 6.2648C72.0389 6.53929 71.9039 6.76534 71.4837 6.82992L69.6677 7.12056C68.4371 7.31432 67.4616 8.10549 67.4616 9.52637ZM70.4181 10.3175C69.7728 10.3175 69.4576 9.86545 69.4576 9.3972C69.4576 8.78364 69.8628 8.47686 70.3731 8.39613L72.0389 8.12164V8.47686C72.0389 9.88159 71.2586 10.3175 70.4181 10.3175Z" fill="#222222"/>
<path d="M78.3627 14.8224L83 3.74596H80.8689L79.053 8.39613L77.087 3.74596H74.8509L77.9875 10.6889L76.2466 14.8224H78.3627Z" fill="#222222"/>
</svg>
