<svg width="59" height="48" viewBox="0 0 59 48" fill="none" xmlns="http://www.w3.org/2000/svg">
<path d="M36.8438 27.4003L36.791 27.4575C36.5413 27.7244 36.2773 27.9961 35.9988 28.2726C30.9864 33.244 24.9753 36.3041 19.3051 37.2289C13.5245 38.1726 8.08002 36.9047 4.35432 33.2059C0.62861 29.5071 -0.6485 24.1066 0.302131 18.3629C1.23356 12.7337 4.31591 6.76599 9.32833 1.78974L9.38114 1.73731C9.6404 1.47992 9.89486 1.23682 10.1493 1.00326C10.4518 0.722039 10.7303 0.469414 10.9847 0.245387C11.3784 -0.0978029 11.9738 -0.0787368 12.3435 0.288286L37.5112 25.2744L58.7083 46.3186C59.0972 46.7047 59.0972 47.3291 58.7083 47.7104C58.3194 48.0965 57.6905 48.0965 57.3064 47.7104L36.8438 27.4003ZM32.2491 28.9971L28.9651 28.9685L28.9459 31.3899C30.0694 30.6796 31.1736 29.8836 32.2491 28.9971ZM27.5872 32.1954L27.616 28.9589L22.5507 28.916L22.5075 33.9447L23.8471 33.9543C25.1002 33.4728 26.3533 32.8865 27.5872 32.1954ZM19.1899 35.2555L17.692 35.2412L14.2399 35.2698V35.5034C15.7619 35.6273 17.3559 35.5558 18.9835 35.2889C19.0555 35.2793 19.1227 35.265 19.1899 35.2555ZM12.8956 35.3365V35.2841L12.6123 35.2889C12.7035 35.3032 12.7996 35.3222 12.8956 35.3365ZM6.45243 32.4528L6.42362 28.9685L3.64854 28.9923C4.20548 30.0219 4.90645 30.9704 5.75626 31.8141C5.98191 32.0381 6.21717 32.2478 6.45243 32.4528ZM3.02439 27.6624L6.40922 27.6338L6.366 22.6052L1.99214 22.6433C2.06416 24.4212 2.40504 26.1181 3.02439 27.6624ZM1.99214 21.2991L6.3564 21.261L6.3324 18.6394C6.32279 18.5965 6.31799 18.5536 6.31799 18.5059L6.32279 17.8577L6.31799 17.2094C6.31799 17.1618 6.32279 17.1189 6.3324 17.076L6.3564 14.4544L3.37968 14.4306C2.86115 15.8558 2.48666 17.2809 2.25621 18.6775C2.10737 19.5641 2.02095 20.4412 1.99214 21.2991ZM3.90781 13.0959L6.37081 13.115L6.40922 8.44858C5.41057 9.9691 4.57517 11.5278 3.90781 13.0959ZM7.77275 6.5372V6.76123L12.838 6.80412L12.8668 3.59625L11.6041 2.34266L11.5033 2.43322C11.2536 2.66678 11.0087 2.90034 10.7783 3.12913L10.7303 3.18157C9.65 4.2588 8.66096 5.37893 7.77275 6.5372ZM14.2015 4.92135L14.1871 6.81366L16.1268 6.82796L14.2015 4.92135ZM17.4903 8.18642L17.1302 8.19118C17.087 8.19118 17.0438 8.18642 17.0054 8.18165L14.1775 8.15782L14.1343 13.1865L17.6968 13.2151L21.2592 13.1865L21.2496 11.9138L17.4903 8.18642ZM23.8519 14.5021L22.618 14.5116L22.6372 16.6232C22.6516 16.6756 22.6564 16.7328 22.6564 16.79L22.6468 17.8625L22.6564 18.9302C22.6564 18.9874 22.6516 19.0446 22.6372 19.097L22.618 21.2086L27.6832 21.2515L27.7072 18.3296L23.8519 14.5021ZM29.0419 19.6547L29.0275 21.261L30.6743 21.2753L29.0419 19.6547ZM32.0378 22.629L29.0227 22.6052L28.9795 27.6338L33.7711 27.6767C33.8623 27.5909 33.9583 27.5004 34.0495 27.4146L34.0735 24.65L32.0378 22.629ZM35.4035 25.9703V26.0466L35.4419 26.0085L35.4035 25.9703ZM21.1584 33.9352L21.2016 28.9065L17.6968 28.8779L14.1919 28.9065L14.2351 33.9352L16.5493 33.9161C16.6021 33.9018 16.6549 33.897 16.7125 33.897L17.7016 33.9066L18.6906 33.897C18.7482 33.897 18.801 33.9018 18.8538 33.9161L21.1584 33.9352ZM21.2112 27.5671L21.2544 22.5384L17.692 22.5098L14.1295 22.5384L14.1727 27.5671L17.0006 27.5433C17.0438 27.5337 17.0822 27.5337 17.1254 27.5337L17.6872 27.5385L18.2489 27.5337C18.2921 27.5337 18.3353 27.5385 18.3737 27.5433L21.2112 27.5671ZM21.2688 21.199L21.2976 17.8625L21.2688 14.5259L17.9032 14.5545C17.8792 14.5545 17.86 14.5593 17.836 14.5593H17.6968H17.5575C17.5335 14.5593 17.5095 14.5593 17.4903 14.5545L14.1247 14.5259L14.0959 17.8625L14.1247 21.199L17.4903 21.1704C17.5143 21.1704 17.5383 21.1657 17.5575 21.1657H17.6968H17.836C17.86 21.1657 17.884 21.1657 17.9032 21.1704L21.2688 21.199ZM22.6036 22.548L22.5603 27.5766L27.6256 27.6195L27.6688 22.5909L22.6036 22.548ZM12.7516 19.097C12.7372 19.0446 12.7324 18.9874 12.7324 18.9302L12.742 17.8625L12.7324 16.79C12.7324 16.7328 12.7372 16.6756 12.7516 16.6232L12.7708 14.5116L7.70553 14.4687L7.67672 17.8625L7.70553 21.2562L12.7708 21.2133L12.7516 19.097ZM12.7852 22.548L7.71993 22.5909L7.76314 27.6195L12.8284 27.5766L12.7852 22.548ZM12.838 28.916L7.77275 28.9589L7.81116 33.449C8.11363 33.6397 8.4209 33.816 8.74258 33.9828L12.886 33.9495L12.838 28.916ZM12.8284 8.14352L7.76314 8.10062L7.71993 13.1293L12.7852 13.1722L12.8284 8.14352Z" fill="#222222"/>
</svg>
