<svg width="42" height="42" viewBox="0 0 42 42" fill="none" xmlns="http://www.w3.org/2000/svg">
<path d="M6.07716 33.2619V25.2278H1V41H6.07716V34.4234M6.07716 38.9693H22.5026C23.3977 38.9693 24.1233 38.2544 24.1233 37.3724C24.1233 36.4904 23.3977 35.7755 22.5026 35.7755M22.5026 35.7755H23.5786C24.4737 35.7755 25.1992 35.0605 25.1992 34.1785C25.1992 33.2966 24.4737 32.5816 23.5786 32.5816M22.5026 35.7755L20.2372 35.7755M23.5786 32.5816H24.6635C25.5586 32.5816 26.2842 31.8666 26.2842 30.9847C26.2842 30.1027 25.5586 29.3877 24.6635 29.3877M23.5786 32.5816L20.2372 32.5817M24.6635 29.3877H25.3793C26.2744 29.3877 27 28.6728 27 27.7908C27 26.9088 26.2744 26.1939 25.3793 26.1939H19.0426L19.0408 23.0088L12.6786 23L9.75398 27.0457H6.07716M24.6635 29.3877L20.2372 29.3878M24.1548 26.1939H17.0003" stroke="white" stroke-width="1.5" stroke-miterlimit="10"/>
<path d="M26.944 4.83201C25.48 3.6839 23.6396 3 21.6406 3C16.8686 3 13 6.8974 13 11.705C13 15.6896 15.6574 19.0488 19.2841 20.0823V25H23.9448V20.0965C26.9009 19.2745 29.2218 16.9099 30 13.9164" stroke="white" stroke-width="1.5" stroke-miterlimit="10"/>
<path d="M16.4955 15.3915C16.1767 14.6588 16 13.85 16 13C16 9.68626 18.6863 7 22 7C23.9629 7 25.7056 7.94258 26.8002 9.39978M27.993 12.7089C27.9977 12.8059 28 12.9029 28 13C28 16.3137 25.3137 19 22 19C19.9629 19 18.163 17.9848 17.0785 16.4328" stroke="white" stroke-width="1.5" stroke-miterlimit="10"/>
<path d="M22.1434 10.2857C22.1434 10.2857 21.6266 9.83249 20.83 10.0607C20.0985 10.2702 19.9168 11.2218 20.4139 11.5925C20.6993 11.8054 21.1288 11.9804 21.7076 12.1749C23.003 12.6103 22.5241 14.3474 21.2064 14.3557C20.6922 14.359 20.4518 14.3279 20 14.047M21.2064 14.3556V16M21.2064 9.99638V8.48285M40.2489 4.95253C40.73 5.88677 41 6.93706 41 8.04733C41 11.9395 37.6817 15.0947 33.5882 15.0947C29.4948 15.0947 26.1765 11.9395 26.1765 8.04733C26.1765 4.15517 29.4948 1 33.5882 1C36.0617 1 38.2522 2.15208 39.5986 3.9226M33.5882 4.90477V11.6933" stroke="white" stroke-width="1.5" stroke-miterlimit="10"/>
<path d="M37 8.0519L33.9679 5L30.9358 8.0519M3 35H4.21284" stroke="white" stroke-width="1.5" stroke-miterlimit="10"/>
</svg>
