<svg width="50" height="50" viewBox="0 0 50 50" fill="none" xmlns="http://www.w3.org/2000/svg">
<path d="M17.8245 11.7251C17.9847 11.8328 18.1662 11.8845 18.3458 11.8845C18.6471 11.8845 18.9431 11.7391 19.1236 11.4699C19.4675 10.9576 20.7082 9.3481 22.2257 10.1404C23.3902 10.7482 24.4422 11.1072 25.4556 11.3003C25.4693 11.3037 25.5606 11.3222 25.5925 11.3253C26.7299 11.526 27.8223 11.5209 28.9748 11.4261C29.3934 11.3918 29.7738 11.4783 30.1072 11.6838C30.5476 11.9555 31.1242 11.818 31.3954 11.3771C31.6664 10.9364 31.5294 10.359 31.089 10.0876C30.4086 9.66817 29.6449 9.48986 28.8215 9.55792C28.1411 9.61381 27.5098 9.63501 26.8883 9.59658C27.5013 7.9741 28.7506 6.65107 30.3732 5.95845C30.8487 5.75542 31.0699 5.20479 30.8671 4.72867C30.6644 4.25267 30.1142 4.03101 29.6386 4.23416C29.2045 4.4195 28.7916 4.64045 28.4017 4.89175C28.3194 3.97021 28.006 3.06448 27.4625 2.28153C26.3192 0.633863 24.375 -0.221487 22.3876 0.0494931C22.0903 0.0900288 21.8303 0.270799 21.6885 0.535687C20.742 2.30508 20.8643 4.4277 22.0079 6.0749C22.8166 7.24071 24.0571 8.0267 25.4072 8.29276C25.2564 8.60873 25.1256 8.93559 25.0152 9.27136C24.4105 9.09364 23.7804 8.83777 23.0917 8.47834C21.1953 7.48873 19.0276 8.25246 17.5696 10.4244C17.2811 10.854 17.3953 11.4363 17.8245 11.7251ZM23.5457 5.00539C22.9014 4.07717 22.7582 2.91569 23.1365 1.87489C24.2429 1.88297 25.2804 2.42247 25.9247 3.35093C26.5732 4.28536 26.7283 5.48221 26.3626 6.51915C25.2616 6.50158 24.1938 5.93935 23.5457 5.00539ZM29.1402 14.228C28.9585 14.4924 28.6656 14.6345 28.3676 14.6345C28.1847 14.6345 28.0001 14.581 27.8382 14.4695C27.7283 14.3939 27.6083 14.3629 27.4612 14.3717C26.9477 14.4026 26.5013 14.0096 26.4701 13.4929C26.4387 12.9763 26.8318 12.532 27.3479 12.5007C27.9107 12.4669 28.4459 12.6133 28.8987 12.9247C29.3248 13.2178 29.4329 13.8013 29.1402 14.228ZM46.6136 1.96311C44.9898 0.784525 42.8725 0.618633 41.0878 1.52963C40.2396 1.9624 39.5329 2.60793 39.0226 3.37693C38.7987 2.97439 38.5408 2.58754 38.248 2.22178C37.9243 1.81783 37.3352 1.75281 36.9319 2.07651C36.5285 2.40021 36.4634 2.98997 36.7868 3.39404C37.9258 4.81689 38.3979 6.64381 38.1172 8.41683C37.1081 8.30518 36.0863 8.49497 35.1615 8.9773C33.9318 9.61861 33.0268 10.6967 32.613 12.0127L32.0067 13.9403C30.0202 14.0085 28.0377 15.6952 27.0693 18.2615C26.8865 18.7457 27.1305 19.2866 27.6142 19.4695C27.7231 19.5107 27.8349 19.5302 27.9449 19.5302C28.323 19.5302 28.6793 19.299 28.8208 18.9239C29.5758 16.9235 31.1843 15.573 32.4811 15.8492C32.9531 15.9498 33.4242 15.6746 33.569 15.2139L34.3989 12.5755C34.6626 11.737 35.2406 11.0494 36.0265 10.6396C36.8125 10.2297 37.7064 10.1492 38.5444 10.4134C38.5463 10.414 38.5481 10.4146 38.5501 10.4151C40.2851 10.9652 41.2516 12.8247 40.7049 14.5631L39.8691 17.2206C39.7253 17.6772 39.9488 18.1688 40.3869 18.3607C40.7206 18.5068 41.0075 18.7589 41.2401 19.1103C41.5255 19.5418 42.1064 19.66 42.5378 19.3739C42.9688 19.088 43.0866 18.5065 42.8011 18.075C42.5378 17.6771 42.2287 17.3436 41.8772 17.0774L42.4909 15.1261C43.2582 12.6863 42.1221 10.0957 39.9232 8.96277C39.9952 8.5846 40.0409 8.20408 40.0597 7.82356C40.5615 7.97352 41.0853 8.05014 41.6123 8.05014C42.4625 8.05014 43.3205 7.85296 44.1039 7.45323C45.8891 6.54235 46.9988 4.72961 47 2.72239C47.0005 2.42189 46.8565 2.13954 46.6136 1.96311ZM43.2538 5.78318C42.2272 6.3071 41.0138 6.30558 40.0372 5.80626C40.2102 4.72164 40.9309 3.71352 41.9383 3.19956C42.9439 2.6863 44.1128 2.70165 45.092 3.21784C44.934 4.31406 44.2596 5.27004 43.2538 5.78318ZM38.2937 17.3895C38.1687 17.7752 38.1207 18.1639 38.1562 18.4917C38.212 19.0064 37.8403 19.4687 37.3262 19.5244C37.292 19.5282 37.2578 19.5299 37.2242 19.5299C36.7523 19.5299 36.3465 19.1739 36.2946 18.6936C36.2135 17.944 36.367 17.2604 36.5101 16.819L37.5587 13.4853C37.7139 12.9916 38.2396 12.7171 38.733 12.8728C39.2262 13.0283 39.5002 13.5546 39.3449 14.0482L38.2937 17.3895ZM5.40152 13.8343C6.02811 14.0717 6.68479 14.1871 7.33596 14.1871C8.06847 14.1871 8.79384 14.0406 9.46163 13.7577C9.51582 14.0962 9.59154 14.4324 9.68821 14.7645C9.08912 14.9608 8.42507 15.107 7.65394 15.2009C5.99839 15.4028 4.80114 16.5599 4.36964 18.3756C4.24991 18.8791 4.56064 19.3845 5.06376 19.5044C5.13656 19.5217 5.20947 19.5301 5.28121 19.5301C5.70487 19.5301 6.08885 19.2401 6.19114 18.8095C6.36341 18.0851 6.7962 17.1937 7.88028 17.0617C9.17373 16.904 10.2362 16.6062 11.1751 16.1962C11.1963 16.1889 11.2176 16.1819 11.2385 16.173C11.2723 16.1587 11.3043 16.1423 11.3353 16.1247C12.3817 15.6462 13.2774 15.0254 14.1709 14.2965C14.7025 13.8627 15.3301 13.7555 16.0367 13.9774C17.4081 14.4086 18.7172 15.9409 19.2203 17.7038C19.3134 18.0298 19.3825 18.3686 19.4259 18.7108C19.4913 19.2242 19.959 19.5879 20.4728 19.5223C20.9858 19.4571 21.3487 18.9879 21.2836 18.4744C21.2281 18.0383 21.1398 17.6058 21.0209 17.1889C20.3441 14.8173 18.5665 12.8079 16.5977 12.189C15.2907 11.7779 14.0087 12.0104 12.9878 12.8434C12.4586 13.2751 11.9502 13.6503 11.4163 13.9709C11.004 12.2862 11.2856 10.4878 12.2312 8.99745C12.5085 8.56058 12.3794 7.98137 11.9429 7.70383C11.5063 7.42617 10.9278 7.55551 10.6506 7.9925C10.3999 8.38754 10.1862 8.79969 10.0078 9.22356C9.4161 8.51653 8.64298 7.95301 7.75225 7.61561C5.87831 6.90576 3.79173 7.30292 2.30693 8.65184C2.08468 8.85382 1.97268 9.15022 2.00569 9.44885C2.22606 11.4441 3.52723 13.1245 5.40152 13.8343ZM7.08949 9.36872C8.14817 9.76986 8.97547 10.6914 9.26619 11.7476C8.34865 12.3531 7.1418 12.4893 6.06416 12.081C5.00817 11.681 4.23318 10.8048 3.95639 9.73237C4.87335 9.11203 6.03361 8.96887 7.08949 9.36872ZM18.1258 18.3217C18.2618 18.8211 17.9676 19.3363 17.4688 19.4724C17.3863 19.4949 17.3034 19.5057 17.222 19.5057C16.8101 19.5057 16.4328 19.2317 16.3192 18.8147C16.1518 18.2 15.6926 17.6566 15.2023 17.4933C14.8889 17.3889 14.7023 17.4942 14.5891 17.5827C14.1813 17.901 13.5929 17.8281 13.275 17.42C12.9571 17.0118 13.0299 16.4229 13.4376 16.1046C14.1177 15.5737 14.9546 15.4352 15.7935 15.7148C16.8773 16.0757 17.7929 17.0991 18.1258 18.3217ZM6.96613 39.0111C7.48319 39.0111 7.9024 39.4307 7.9024 39.9483V40.1886C7.9024 40.7062 7.48319 41.1258 6.96613 41.1258C6.44908 41.1258 6.02987 40.7062 6.02987 40.1886V39.9483C6.02987 39.4307 6.44908 39.0111 6.96613 39.0111ZM40.1994 41.1258C39.6824 41.1258 39.2632 40.7062 39.2632 40.1886V39.9483C39.2632 39.4307 39.6824 39.0111 40.1994 39.0111C40.7165 39.0111 41.1357 39.4307 41.1357 39.9483V40.1886C41.1357 40.7063 40.7165 41.1258 40.1994 41.1258ZM6.96613 31.6774C7.48319 31.6774 7.9024 32.0971 7.9024 32.6146V32.8549C7.9024 33.3725 7.48319 33.7922 6.96613 33.7922C6.44908 33.7922 6.02987 33.3725 6.02987 32.8549V32.6146C6.02987 32.0971 6.44908 31.6774 6.96613 31.6774ZM40.1994 33.7922C39.6824 33.7922 39.2632 33.3725 39.2632 32.8549V32.6146C39.2632 32.0971 39.6824 31.6774 40.1994 31.6774C40.7165 31.6774 41.1357 32.0971 41.1357 32.6146V32.8549C41.1357 33.3726 40.7165 33.7922 40.1994 33.7922ZM42.0545 20.7971H5.11081C3.64333 20.7971 2.44948 21.9923 2.44948 23.4614V27.341C2.44948 27.9995 2.68986 28.6025 3.08672 29.0681C2.68986 29.5336 2.44948 30.1366 2.44948 30.7951V34.6747C2.44948 35.3332 2.68986 35.9362 3.08672 36.4017C2.68986 36.8671 2.44948 37.4703 2.44948 38.1288V42.0085C2.44948 43.4776 3.64333 44.6727 5.11081 44.6727H21.1298C21.6469 44.6727 22.0661 44.2531 22.0661 43.7355C22.0661 43.2179 21.6469 42.7982 21.1298 42.7982H5.11081C4.6758 42.7982 4.32201 42.444 4.32201 42.0085V38.1288C4.32201 37.6933 4.6758 37.3389 5.11081 37.3389H27.4748C27.9918 37.3389 28.411 36.9193 28.411 36.4017C28.411 35.8841 27.9918 35.4644 27.4748 35.4644H5.11081C4.6758 35.4644 4.32201 35.1102 4.32201 34.6747V30.7951C4.32201 30.3596 4.6758 30.0054 5.11081 30.0054H42.0545C42.4895 30.0054 42.8433 30.3596 42.8433 30.7951V34.6747C42.8433 35.1102 42.4895 35.4644 42.0545 35.4644H35.5421C35.0251 35.4644 34.6058 35.8841 34.6058 36.4017C34.6058 36.9193 35.0251 37.3389 35.5421 37.3389H42.0545C42.4895 37.3389 42.8433 37.6932 42.8433 38.1288V42.0085C42.8433 42.444 42.4895 42.7982 42.0545 42.7982H38.8841C38.3671 42.7982 37.9478 43.2179 37.9478 43.7355C37.9478 44.2531 38.3671 44.6727 38.8841 44.6727H42.0545C43.522 44.6727 44.7159 43.4775 44.7159 42.0085V38.1288C44.7159 37.4703 44.4755 36.8673 44.0786 36.4017C44.4755 35.9362 44.7159 35.3332 44.7159 34.6747V30.7951C44.7159 30.1366 44.4755 29.5336 44.0786 29.0681C44.4755 28.6027 44.7159 27.9995 44.7159 27.341V23.4614C44.7159 21.9922 43.522 20.7971 42.0545 20.7971ZM4.32201 23.4613C4.32201 23.0258 4.6758 22.6715 5.11081 22.6715H42.0545C42.4895 22.6715 42.8433 23.0257 42.8433 23.4613V27.3409C42.8433 27.7764 42.4895 28.1308 42.0545 28.1308H5.11081C4.6758 28.1308 4.32201 27.7765 4.32201 27.3409V23.4613ZM6.02987 25.5212V25.281C6.02987 24.7634 6.44908 24.3437 6.96613 24.3437C7.48319 24.3437 7.9024 24.7634 7.9024 25.281V25.5212C7.9024 26.0388 7.48319 26.4585 6.96613 26.4585C6.44908 26.4585 6.02987 26.0388 6.02987 25.5212ZM39.2632 25.5212V25.281C39.2632 24.7634 39.6824 24.3437 40.1994 24.3437C40.7165 24.3437 41.1357 24.7634 41.1357 25.281V25.5212C41.1357 26.0388 40.7165 26.4585 40.1994 26.4585C39.6824 26.4585 39.2632 26.0388 39.2632 25.5212ZM35.0075 39.6188C34.1763 38.8906 33.1533 38.6459 32.1265 38.9293H32.1266C31.7654 39.029 31.4217 39.111 31.0819 39.1697C31.3547 38.0916 32.0161 37.1364 32.9605 36.503C33.39 36.2149 33.5049 35.6328 33.2171 35.2027C32.9293 34.7728 32.3477 34.6576 31.9181 34.9457C30.44 35.9369 29.4543 37.4874 29.1622 39.2135C28.7726 39.1616 28.3606 39.0722 27.909 38.9356C26.8971 38.6295 25.8808 38.853 25.0475 39.5652C23.8022 40.6297 23.1434 42.643 23.4082 44.575C23.8252 47.6171 26.239 50 28.9033 50C29.2819 50 29.6517 49.9506 30.0068 49.8527C30.362 49.9506 30.7318 50 31.1104 50C33.7747 50 36.1884 47.6171 36.6055 44.575C36.8656 42.6759 36.2236 40.6842 35.0075 39.6188ZM34.7504 44.3202C34.4675 46.3828 32.8007 48.1255 31.1104 48.1255C30.837 48.1255 30.5748 48.0798 30.3309 47.9897C30.2262 47.9511 30.1166 47.9319 30.0068 47.9319C29.897 47.9319 29.7872 47.9512 29.6826 47.9899C29.4388 48.0799 29.1767 48.1255 28.9033 48.1255C27.213 48.1255 25.5461 46.3828 25.2633 44.3203C25.0874 43.0368 25.508 41.6365 26.2635 40.9908C26.6092 40.6954 26.97 40.61 27.3672 40.73C28.3282 41.0208 29.1685 41.1399 29.9562 41.1414C29.9684 41.142 30.0448 41.1421 30.064 41.141C30.949 41.1304 31.7707 40.972 32.6242 40.7363H32.6244C33.0413 40.621 33.4176 40.717 33.7741 41.0293C34.5244 41.6866 34.9258 43.0398 34.7504 44.3202Z" fill="#222222"/>
</svg>
