<svg width="16" height="16" viewBox="0 0 16 16" fill="none" xmlns="http://www.w3.org/2000/svg">
<path d="M5.6085 5.55C5.76132 5.11558 6.06295 4.74927 6.45997 4.51594C6.85699 4.2826 7.32378 4.19731 7.77766 4.27516C8.23155 4.35302 8.64323 4.58899 8.9398 4.94129C9.23637 5.2936 9.39869 5.73949 9.398 6.2C9.398 7.5 7.448 8.15 7.448 8.15M7.5 10.75H7.5065M14 7.5C14 11.0899 11.0899 14 7.5 14C3.91015 14 1 11.0899 1 7.5C1 3.91015 3.91015 1 7.5 1C11.0899 1 14 3.91015 14 7.5Z" stroke="#98A2B3" stroke-width="1.33333" stroke-linecap="round" stroke-linejoin="round"/>
</svg>
