<svg width="15" height="15" viewBox="0 0 15 15" fill="none" xmlns="http://www.w3.org/2000/svg">
<path d="M7.5001 1C5.01477 1 3 2.95622 3 5.36917C3 7.45163 4.17065 9.0511 7.37904 13.9237C7.44593 14.0254 7.55424 14.0254 7.62126 13.9237C10.8295 9.0511 12 7.45183 12 5.36917C12 2.95611 9.98529 1 7.50019 1H7.5001ZM7.5001 7.82713C6.10224 7.82713 4.96885 6.72654 4.96885 5.36937C4.96885 4.01197 6.10235 2.91161 7.5001 2.91161C8.89797 2.91161 10.0313 4.01197 10.0313 5.36937C10.0313 6.72654 8.89785 7.82713 7.5001 7.82713Z" fill="black"/>
</svg>
