<svg width="42" height="42" viewBox="0 0 42 42" fill="none" xmlns="http://www.w3.org/2000/svg">
<g clip-path="url(#clip0_382_3186)">
<path d="M31.0001 20C29.8974 20 29 21.0095 29 22.25C29 22.664 29.2987 23 29.6667 23C30.0347 23 30.3333 22.664 30.3333 22.25C30.3333 21.8368 30.6326 21.5 31 21.5C31.3674 21.5 31.6667 21.8368 31.6667 22.25C31.6667 22.664 31.9654 23 32.3333 23C32.7013 23 33 22.664 33 22.25C33.0002 21.0095 32.1028 20 31.0001 20Z" fill="white"/>
<path d="M10 22.6667V25.3333C10 25.7013 10.224 26 10.5 26C10.776 26 11 25.7013 11 25.3333V22.6667C11 22.2987 10.776 22 10.5 22C10.224 22 10 22.2987 10 22.6667Z" fill="white"/>
<path d="M12.572 26.9926C12.6046 26.9977 12.636 26.9999 12.6673 26.9999C12.9939 26.9999 13.2786 26.738 13.3267 26.3758L13.9933 21.285C14.0126 21.1381 13.9899 20.989 13.9299 20.8567C13.8426 20.6669 12.992 19 10 19C7.00802 19 6.15741 20.6669 6.07007 20.8567C6.01007 20.9891 5.98742 21.1382 6.00671 21.2851L6.67334 26.3759C6.72537 26.773 7.06537 27.0494 7.42802 26.9926C7.79199 26.9358 8.04535 26.5672 7.99332 26.1693L7.36466 21.3679C7.612 21.0705 8.32667 20.4545 9.99992 20.4545C11.6825 20.4545 12.3959 21.0771 12.6359 21.365L12.0066 26.1693C11.9547 26.5672 12.2079 26.9359 12.572 26.9926Z" fill="white"/>
<path d="M6.25002 39.2175H2.49996V18.6956C2.49996 18.3117 2.16395 18 1.74998 18C1.33601 18 1 18.3117 1 18.6956V39.9131C1 40.2971 1.33601 40.6087 1.74998 40.6087H5.50004V41.3044C5.50004 41.6883 5.83605 42 6.25002 42C6.66399 42 7 41.6883 7 41.3044V39.9131C7 39.5291 6.66399 39.2175 6.25002 39.2175Z" fill="white"/>
<path d="M32.3057 39H8.69442C8.31112 39 8 39.224 8 39.5C8 39.776 8.31112 40 8.69442 40H32.3056C32.6889 40 33 39.776 33 39.5C33 39.224 32.689 39 32.3057 39Z" fill="white"/>
<path d="M39.3077 28H4.69228C4.31016 28 4 28.3136 4 28.7C4 29.0863 4.31016 29.3999 4.69228 29.3999H38.6154V39.2H35.1539C34.7717 39.2 34.4616 39.5136 34.4616 39.9V41.3C34.4616 41.6864 34.7717 42 35.1539 42C35.536 42 35.8462 41.6864 35.8462 41.3V40.6001H39.3077C39.6898 40.6001 40 40.2864 40 39.9001V28.7001C40 28.3136 39.6898 28 39.3077 28Z" fill="white"/>
<path d="M27 26.25C27 26.664 27.2987 27 27.6667 27C28.0346 27 28.3333 26.664 28.3333 26.25C28.3333 25.8368 28.6326 25.5 29 25.5C29.3674 25.5 29.6667 25.8368 29.6667 26.25C29.6667 26.664 29.9654 27 30.3333 27C30.7013 27 31 26.664 31 26.25C31 25.0095 30.1026 24 28.9999 24C27.8972 24 27 25.0095 27 26.25Z" fill="white"/>
<path d="M39.5 18C39.224 18 39 18.3226 39 18.72V26.28C39 26.6774 39.224 27 39.5 27C39.776 27 40 26.6774 40 26.28V18.72C40 18.3226 39.776 18 39.5 18Z" fill="white"/>
<path d="M38.4998 0H3.50001C1.57007 0 0 1.58877 0 3.54169V16.2201C0 16.4334 0.0944996 16.6345 0.256921 16.7691C0.419998 16.903 0.633525 16.9575 0.839341 16.9143C1.95726 16.6847 2.89947 16.0097 3.49936 15.0952C4.25183 16.2427 5.54053 16.9999 7.00003 16.9999C8.45887 16.9999 9.74683 16.2434 10.5 15.0966C11.2532 16.2434 12.5412 16.9999 14.0001 16.9999C15.4589 16.9999 16.7469 16.2434 17.5001 15.0966C18.2531 16.2435 19.5412 17 20.9999 17C22.4588 17 23.7467 16.2435 24.4999 15.0967C25.2531 16.2435 26.5411 17 27.9999 17C29.4587 17 30.7468 16.2435 31.5 15.0967C32.2532 16.2435 33.5411 17 35 17C36.4595 17 37.7482 16.2428 38.5006 15.0953C39.1005 16.0098 40.0427 16.6848 41.1607 16.9143C41.3671 16.959 41.58 16.9037 41.7431 16.7692C41.9055 16.6346 42 16.4334 42 16.2202V3.54169C41.9998 1.58877 40.4298 0 38.4998 0ZM40.5998 15.2036C39.7549 14.7078 39.1998 13.7806 39.1998 12.75V3.54169C39.1998 3.15073 38.8862 2.83339 38.4998 2.83339C38.1135 2.83339 37.7999 3.15073 37.7999 3.54169V12.75C37.7999 14.3126 36.544 15.5833 34.9999 15.5833C33.4557 15.5833 32.1999 14.3125 32.1999 12.75V3.54169C32.1999 3.15073 31.8863 2.83339 31.5 2.83339C31.1136 2.83339 30.8 3.15073 30.8 3.54169V12.75C30.8 14.3126 29.5442 15.5833 28 15.5833C26.4558 15.5833 25.2001 14.3125 25.2001 12.75V3.54169C25.2001 3.15073 24.8865 2.83339 24.5001 2.83339C24.1137 2.83339 23.8001 3.15073 23.8001 3.54169V12.75C23.8001 14.3126 22.5443 15.5833 21.0002 15.5833C19.4559 15.5833 18.2002 14.3125 18.2002 12.75V3.54169C18.2002 3.15073 17.8866 2.83339 17.5002 2.83339C17.1139 2.83339 16.8003 3.15073 16.8003 3.54169V12.75C16.8003 14.3126 15.5445 15.5833 14.0003 15.5833C12.4562 15.5833 11.2003 14.3125 11.2003 12.75V3.54169C11.2003 3.15073 10.8867 2.83339 10.5004 2.83339C10.114 2.83339 9.8004 3.15073 9.8004 3.54169V12.75C9.8004 14.3126 8.54459 15.5833 7.00044 15.5833C5.4562 15.5833 4.20048 14.3125 4.20048 12.75V3.54169C4.20048 3.15073 3.88687 2.83339 3.50051 2.83339C3.11414 2.83339 2.80054 3.15073 2.80054 3.54169V12.75C2.80054 13.7806 2.24543 14.7078 1.40051 15.2036V3.54169C1.40051 2.37012 2.34272 1.41669 3.50051 1.41669H38.5004C39.6582 1.41669 40.6004 2.37012 40.6004 3.54169V15.2036H40.5998Z" fill="white"/>
<path d="M21 26.25C21 26.664 21.2987 27 21.6667 27C22.0346 27 22.3333 26.664 22.3333 26.25C22.3333 25.8368 22.6326 25.5 23 25.5C23.3674 25.5 23.6667 25.8368 23.6667 26.25C23.6667 26.664 23.9654 27 24.3333 27C24.7013 27 25 26.664 25 26.25C25 25.0095 24.1026 24 22.9999 24C21.8972 24 21 25.0095 21 26.25Z" fill="white"/>
<path d="M26.0001 20C24.8974 20 24 21.0095 24 22.25C24 22.664 24.2987 23 24.6667 23C25.0346 23 25.3333 22.664 25.3333 22.25C25.3333 21.8368 25.6326 21.5 26 21.5C26.3674 21.5 26.6667 21.8368 26.6667 22.25C26.6667 22.664 26.9654 23 27.3333 23C27.7013 23 28 22.664 28 22.25C28.0002 21.0095 27.1028 20 26.0001 20Z" fill="white"/>
<path d="M32 26.25C32 26.664 32.2987 27 32.6667 27C33.0347 27 33.3333 26.664 33.3333 26.25C33.3333 25.8368 33.6326 25.5 34 25.5C34.3674 25.5 34.6667 25.8368 34.6667 26.25C34.6667 26.664 34.9654 27 35.3333 27C35.7013 27 36 26.664 36 26.25C36 25.0095 35.1026 24 33.9999 24C32.8972 24 32 25.0095 32 26.25Z" fill="white"/>
</g>
<defs>
<clipPath id="clip0_382_3186">
<rect width="42" height="42" fill="white"/>
</clipPath>
</defs>
</svg>
