<svg width="44" height="44" viewBox="0 0 44 44" fill="none" xmlns="http://www.w3.org/2000/svg">
<path d="M9.85164 36.173L5.47914 34.2515C5.47914 34.2515 5.28664 35.3033 4.79852 35.8671C4.24852 36.4996 3.30664 36.8399 3.30664 36.8399C3.30664 36.8399 3.81883 37.4312 3.8532 37.5721C3.88758 37.713 5.04602 41.6421 5.04602 41.6421C5.04602 41.6421 5.95695 42.2368 6.23883 42.4499C6.5207 42.663 7.22195 42.8349 7.57258 42.2746C7.9232 41.7143 8.49727 40.9168 8.9407 40.3805C9.45289 39.7583 9.98914 39.3562 9.98914 39.3562C9.98914 39.3562 11.9932 40.2052 14.7638 40.2052C17.5345 40.2052 20.6557 39.0124 24.1998 36.3483C27.7438 33.6843 31.752 29.7277 32.8038 28.8855C33.8557 28.0433 36.0557 26.4552 37.1454 26.1768C38.2351 25.8983 39.146 26.108 39.146 26.8093C39.146 27.5105 38.6888 27.9333 39.0395 28.1774C39.3901 28.4215 40.5485 27.4762 40.5485 27.3696C40.5485 27.263 40.442 24.0387 40.442 24.0387L37.386 22.0552C37.386 22.0552 38.2213 20.9999 38.9329 20.1096C39.4898 19.4118 40.3698 18.4974 40.3698 18.4974C40.3698 18.4974 40.4041 17.2702 40.1945 17.3733C39.9848 17.4765 31.2501 20.529 29.4591 22.0724C27.6682 23.6158 20.5148 30.4908 20.4116 30.5252C20.3085 30.5596 9.85164 36.173 9.85164 36.173Z" fill="#307B32"/>
<path d="M3.31037 36.8296C2.86349 37.0393 1.53318 37.4999 1.60537 38.4452C1.67412 39.3905 2.60224 40.0162 3.36537 40.5249C4.12505 41.0337 5.04974 41.649 5.04974 41.649C5.04974 41.649 6.52443 41.0199 6.59318 39.5108C6.62755 38.7408 5.82318 38.2115 5.2938 37.7233C4.76443 37.2352 4.08724 36.4549 4.08724 36.4549C4.08724 36.4549 3.78474 36.6096 3.31037 36.8296ZM14.1454 3.47553C14.1488 3.6474 15.9879 3.40334 16.8232 4.22147C17.6379 5.01897 17.9094 6.55897 16.586 8.52522C15.2626 10.4915 11.9763 14.424 10.3847 16.4246C8.79318 18.4252 5.1288 22.7599 4.48599 27.1255C3.81224 31.7008 4.62693 35.0524 7.01255 37.053C9.39818 39.0537 12.6604 40.384 18.0607 38.1771C22.3954 36.4033 24.9357 32.9521 29.0057 29.6521C33.0757 26.3521 35.6366 24.7055 38.0566 24.6024C40.4766 24.4958 40.511 26.3555 40.1947 27.0224C39.8785 27.6893 39.1566 28.2771 39.4247 28.1808C39.7547 28.0605 40.8616 27.7237 41.4254 26.218C41.9857 24.709 41.2501 22.8871 39.6379 22.1858C38.0257 21.4846 34.5504 22.1515 31.8519 23.5883C29.1501 25.0252 26.3107 27.1324 25.9222 27.4452C25.5372 27.7615 24.7638 27.514 25.4307 26.744C26.0976 25.974 29.6416 22.674 33.5672 20.9552C37.4929 19.2365 40.3735 18.5008 40.3735 18.5008C40.3735 18.5008 41.5663 17.3424 41.9169 17.0262C42.2676 16.7099 42.7935 16.4658 42.7247 16.1152C42.656 15.7646 41.0507 15.2765 38.8816 16.5552C38.8747 16.5587 23.3613 17.7652 23.3613 17.4833C23.3613 17.2015 25.4032 3.87084 25.3688 3.37928C25.3344 2.88772 25.1454 2.53365 24.8532 2.71928C24.5885 2.88772 23.5882 4.38647 23.1516 4.95709C22.7735 5.44865 22.2029 6.11553 22.1685 6.00897C22.1341 5.9024 21.8969 2.76397 20.0957 1.79803C17.0776 0.185841 14.1247 2.7674 14.1454 3.47553Z" fill="#649726"/>
<path d="M16.0599 24.4581C14.9392 25.895 6.55518 28.8066 6.55518 28.8066C6.55518 28.8066 6.9883 26.0325 8.51799 22.9491C10.9414 18.0678 18.583 11.6294 20.4427 7.69002C21.5461 5.35252 21.1096 3.55127 20.1986 2.53377C19.2877 1.51627 18.3905 1.28252 18.3905 1.28252C18.3905 1.28252 21.0064 1.20346 21.9896 3.62346C22.9727 6.04346 22.1305 7.76221 22.1305 7.76221C22.1305 7.76221 23.2889 6.39409 24.0589 5.27346C24.8289 4.1494 25.3205 3.09752 25.3205 3.09752C25.3205 3.09752 25.8464 4.29034 25.4958 6.07784C25.1452 7.86534 24.6536 8.84846 24.6536 8.84846L16.0599 24.4581Z" fill="#307B32"/>
<path d="M33.5638 2.78056C33.5638 2.78056 34.2375 1.629 35.4922 1.48119C37.0013 1.30588 37.8435 2.18244 37.8435 2.18244C37.8435 2.18244 39.1325 0.814315 40.7688 1.85244C42.2778 2.8115 41.4288 4.50963 41.4288 4.50963C41.4288 4.50963 42.6869 4.80869 42.656 6.41056C42.625 7.93681 41.6694 8.5315 41.6694 8.5315L35.1106 17.4415L30.6213 20.7037L28.1669 22.2815L23.4678 25.5437L13.0866 33.2609C13.0866 33.2609 9.32596 35.4403 7.43877 33.3674C6.3869 32.209 6.31471 30.8409 6.3869 29.8956C6.49002 28.4965 6.7719 27.8159 7.4044 27.0906C8.2294 26.1453 9.15752 25.8978 9.15752 25.8978C9.15752 25.8978 8.82065 24.4609 9.78315 23.0171C10.7388 21.5871 12.21 21.7246 12.21 21.7246C12.21 21.7246 12.1585 19.7515 13.2825 18.734C14.4272 17.6959 15.0528 18.1806 15.1216 18.0053C15.1903 17.8299 14.9531 16.6303 16.3213 15.4134C17.3044 14.5403 18.6278 14.7774 18.6278 14.7774C18.6278 14.7774 18.3735 13.1309 19.666 11.8659C21.0238 10.5356 22.3094 11.3056 22.3094 11.3056C22.3094 11.3056 22.0653 9.67275 22.9591 8.67244C24.0247 7.48306 25.1144 7.55869 25.1144 7.55869C25.1144 7.55869 25.2931 6.08744 26.4585 5.07681C27.3419 4.30681 28.8372 4.434 28.9403 4.29306C29.0435 4.15213 29.5144 2.82181 30.9169 2.36463C32.4053 1.8765 33.5638 2.78056 33.5638 2.78056Z" fill="#FFC01E"/>
<path d="M39.0841 9.4359C39.0841 9.4359 38.902 10.9759 38.376 11.66C37.4238 12.9009 36.4854 12.674 36.4854 12.674C36.4854 12.674 36.891 14.245 35.9801 15.3553C34.9626 16.5928 33.4982 16.4346 33.4982 16.4346C33.4982 16.4346 33.5773 17.7718 32.8348 18.5315C31.721 19.6728 30.8273 19.4459 30.8273 19.4459C30.8273 19.4459 30.8273 20.1815 30.2498 20.8862C30.1226 21.0409 33.9726 18.6553 35.1963 18.0709C36.4201 17.4831 38.8882 16.555 38.8882 16.555C38.8882 16.555 40.2804 15.699 40.6241 14.575C40.9679 13.4509 40.7479 12.4953 40.8441 12.155C40.9404 11.8146 41.5763 11.3953 41.872 10.419C42.1676 9.44277 41.8101 8.41152 41.8101 8.41152C41.8101 8.41152 41.5351 8.88246 40.8166 9.19184C39.9126 9.57684 39.0841 9.4359 39.0841 9.4359ZM35.272 3.95996C35.272 3.95996 35.0038 4.42402 34.832 4.71965C34.6601 5.01184 34.4641 5.40371 34.4641 5.40371C34.4641 5.40371 34.0241 5.37965 33.6563 5.35559C33.2885 5.33152 32.6732 5.37621 32.6732 5.37621C32.6732 5.37621 32.9654 4.97746 33.1613 4.7334C33.3573 4.48934 33.4398 4.05965 33.4398 4.05965C33.4398 4.05965 33.7835 4.10777 34.2716 4.08371C34.7563 4.05621 35.272 3.95996 35.272 3.95996ZM10.6973 28.9746C10.6973 28.9746 10.7695 28.0706 10.7935 27.6787C10.8176 27.2868 10.7213 26.6028 10.7213 26.6028C10.7213 26.6028 12.3851 26.4068 13.0691 25.2346C13.7532 24.0625 13.6329 23.2065 13.6329 23.2065C13.6329 23.2065 15.3688 23.4987 16.321 21.7868C17.2732 20.075 16.6373 19.1468 16.7851 19.219C16.9329 19.2912 18.6207 19.0712 19.5007 17.7753C20.3807 16.4793 20.1607 15.7953 20.1607 15.7953C20.1607 15.7953 21.6285 15.699 22.3366 14.6231C23.0448 13.5471 22.8729 12.4712 22.8729 12.4712C22.8729 12.4712 24.351 12.4162 25.1313 11.5362C25.9151 10.6562 26.0423 9.22965 26.0423 9.22965C26.0423 9.22965 26.8501 9.40496 28.146 8.67277C29.442 7.94059 29.7891 6.47965 29.7891 6.47965C29.7891 6.47965 30.2395 6.56902 30.6554 6.50715C31.1676 6.43152 31.4563 6.25621 31.4563 6.25621C31.4563 6.25621 31.1882 6.50715 30.9991 7.23246C30.8616 7.7584 30.7895 8.26715 30.7895 8.26715C30.7895 8.26715 29.6379 7.76184 28.4657 9.29496C27.7541 10.23 27.7885 11.3437 27.7885 11.3437C27.7885 11.3437 26.6679 11.1443 25.6607 12.3715C24.7326 13.499 24.901 14.4271 24.901 14.4271C24.901 14.4271 23.6051 14.3034 22.677 15.5271C21.6629 16.8609 21.9688 18.2153 21.9688 18.2153C21.9688 18.2153 20.3566 18.0434 19.5729 19.0712C18.7891 20.099 18.9129 21.4671 18.9129 21.4671C18.9129 21.4671 17.7579 21.3331 16.8332 22.4468C16.0013 23.4506 16.1251 24.1587 16.1251 24.1587C16.1251 24.1587 14.6573 24.1346 13.7291 25.3584C12.801 26.5821 12.801 27.9984 12.801 27.9984C12.801 27.9984 12.141 28.0465 11.6288 28.2906C11.1132 28.5346 10.6973 28.9746 10.6973 28.9746ZM15.1454 30.3428C15.1454 30.3428 16.3932 30.659 17.2732 29.2428C18.1532 27.8231 18.1051 26.5787 18.1051 26.5787C18.1051 26.5787 19.4973 26.6268 20.3291 25.5509C21.161 24.475 21.2057 23.0896 21.2057 23.0896C21.2057 23.0896 22.4982 23.1412 23.361 21.835C24.0623 20.7762 24.0691 19.7071 24.0691 19.7071C24.0691 19.7071 25.121 19.5112 25.9529 18.5075C26.7848 17.5037 26.6129 16.1115 26.6129 16.1115C26.6129 16.1115 28.0566 16.2078 28.8885 14.8878C29.7204 13.5678 29.5004 12.76 29.5004 12.76C29.5004 12.76 30.5901 12.9078 31.5457 11.7081C32.4979 10.5084 32.0923 9.48059 32.0923 9.48059C32.0923 9.48059 33.5601 9.79684 34.4641 8.77246C35.3682 7.74465 35.4576 6.50715 35.5401 6.52434C36.0213 6.61371 37.2932 6.04996 37.2932 6.04996C37.2932 6.04996 37.1695 7.1259 37.221 7.78934C37.2279 7.86496 35.8563 7.74809 34.9763 9.2159C34.0963 10.6837 34.4401 11.66 34.4401 11.66C34.4401 11.66 33.1579 11.7803 32.546 12.8803C31.9341 13.9803 32.1438 15.204 32.1438 15.204C32.1438 15.204 30.982 14.7881 30.0401 16.0359C29.4248 16.8506 29.4282 17.7718 29.4282 17.7718C29.4282 17.7718 28.1254 17.2562 27.1354 18.9062C26.4135 20.1093 26.7366 21.4637 26.7366 21.4637C26.7366 21.4637 25.4888 21.3915 24.4885 22.5396C23.4848 23.6878 23.4641 25.5406 23.4641 25.5406C23.4641 25.5406 21.0888 27.555 18.961 29.2187C17.2216 30.5765 12.911 33.3918 13.0795 33.2612C13.7807 32.7078 14.1451 32.3537 14.561 31.7659C14.977 31.1815 15.1454 30.3428 15.1454 30.3428Z" fill="#F99628"/>
<path d="M31.4327 3.17586C30.8414 2.92836 30.1608 3.1518 29.9649 4.00773C29.8308 4.59211 29.9649 5.08367 30.4771 5.30367C31.0511 5.54774 31.498 5.06305 31.7008 4.64367C31.993 4.0318 31.8967 3.3718 31.4327 3.17586ZM28.1052 5.3793C27.6927 5.05273 26.8574 5.25555 26.4414 6.16305C26.0255 7.07055 26.218 7.9093 26.9777 7.94711C27.9849 7.99524 29.0367 6.11149 28.1052 5.3793ZM24.513 8.63117C24.0971 8.36992 23.303 8.5418 22.9249 9.36336C22.6327 9.9993 22.7633 10.7109 23.2411 10.9274C23.7292 11.1474 24.3721 10.8174 24.7089 10.1437C25.0011 9.5593 25.0974 8.99555 24.513 8.63117ZM21.6255 11.883C21.0067 11.4602 20.1817 11.7868 19.6696 12.5912C19.1574 13.399 19.2055 14.3271 19.6936 14.6193C20.1817 14.9115 21.1064 14.7121 21.6496 13.8115C22.1411 13.0071 22.1652 12.2474 21.6255 11.883ZM17.9336 15.7709C17.4936 15.4202 16.6617 15.6746 16.2939 16.3587C15.9261 17.0427 16.1324 17.5446 16.5139 17.8265C16.978 18.1702 17.5417 17.9984 18.0058 17.3865C18.4699 16.7746 18.3014 16.063 17.9336 15.7709ZM15.2661 19.0674C14.8949 18.7305 14.0664 18.8234 13.6264 19.4834C13.1864 20.1434 13.3342 20.8034 13.7983 21.0955C14.2624 21.3877 14.9224 21.0234 15.2661 20.6074C15.6064 20.1915 15.7783 19.5315 15.2661 19.0674ZM11.5777 23.0034C11.0758 22.663 10.378 23.0515 10.1339 23.4434C9.88987 23.8352 9.86581 24.3955 10.3539 24.7634C10.8421 25.1312 11.5261 24.8596 11.7736 24.4952C12.0177 24.1274 12.2617 23.4674 11.5777 23.0034ZM13.9496 26.5062C13.6402 27.0974 13.7055 27.6543 14.0974 27.998C14.4892 28.3418 15.1733 28.1459 15.5892 27.4859C15.8024 27.1455 15.8814 26.4099 15.3692 26.0662C14.8536 25.7224 14.1936 26.0387 13.9496 26.5062ZM17.5658 23.5224C17.1808 24.0209 17.2221 24.6224 17.5658 24.9421C17.9096 25.2584 18.7655 25.0659 19.0817 24.5502C19.3499 24.1102 19.3017 23.598 18.9099 23.2543C18.6005 22.9793 17.9817 22.9827 17.5658 23.5224ZM20.3811 21.0268C20.8349 21.374 21.4571 21.1505 21.7492 20.8549C22.0414 20.5593 22.313 19.8752 21.9211 19.4352C21.5292 18.9952 20.7971 19.143 20.3811 19.583C19.9652 20.0265 19.9652 20.7105 20.3811 21.0268ZM23.1414 15.819C22.7496 16.4377 22.5777 17.4827 23.2652 17.8471C23.9974 18.239 24.7811 17.4312 25.1249 16.8674C25.4686 16.3037 25.4686 15.4993 24.9049 15.1796C24.2758 14.829 23.6055 15.0868 23.1414 15.819ZM25.9292 12.983C25.4927 13.674 25.2692 14.5471 25.833 14.9871C26.3142 15.3652 27.153 14.939 27.6171 14.279C28.0811 13.619 28.1808 12.8868 27.6652 12.4193C27.153 11.9552 26.3452 12.323 25.9292 12.983ZM28.8167 9.68305C28.4042 10.1609 28.2805 10.8552 28.7205 11.2471C29.1605 11.639 29.7483 11.5909 30.2124 11.003C30.6764 10.4152 30.6524 9.75523 30.1402 9.41492C29.683 9.11242 29.133 9.31524 28.8167 9.68305Z" fill="#FBE36A"/>
</svg>
