<svg width="15" height="16" viewBox="0 0 15 16" fill="none" xmlns="http://www.w3.org/2000/svg">
<path fill-rule="evenodd" clip-rule="evenodd" d="M12.5412 13.3119L9.48649 10.2572L9.12108 10.6226C8.73764 11.006 8.15104 11.0638 7.7001 10.7626C6.96951 10.2744 6.23306 9.67202 5.53062 8.96972C4.82818 8.26728 4.22571 7.53083 3.73771 6.80023C3.43642 6.34929 3.4941 5.76281 3.87777 5.37925L4.24318 5.01384L1.18818 1.95882L1.10694 2.04006C-1.63077 4.77766 1.31314 8.93988 3.43654 11.0635C5.55993 13.1869 9.72193 16.1307 12.4596 13.3931L12.5412 13.3119ZM1.63538 1.60614C2.0524 1.41087 2.56622 1.48502 2.90988 1.82868L4.37311 3.29192C4.71678 3.63558 4.79091 4.14918 4.59565 4.56642L1.63538 1.60614ZM9.93359 9.90439C10.3506 9.70912 10.8644 9.78326 11.2081 10.1269L12.6713 11.5902C13.015 11.9338 13.0891 12.4474 12.8939 12.8647L9.93359 9.90439Z" fill="black"/>
</svg>
