<svg width="32" height="32" viewBox="0 0 32 32" fill="none" xmlns="http://www.w3.org/2000/svg">
<path opacity="0.1" fill-rule="evenodd" clip-rule="evenodd" d="M0 16C0 7.16344 7.16344 0 16 0C24.8366 0 32 7.16344 32 16C32 24.8366 24.8366 32 16 32C7.16344 32 0 24.8366 0 16Z" fill="white"/>
<path fill-rule="evenodd" clip-rule="evenodd" d="M15.5008 7C13.1923 7 12.9026 7.01009 11.9959 7.05135C11.091 7.09279 10.4733 7.23605 9.93288 7.44625C9.37383 7.66335 8.89959 7.95377 8.42713 8.42641C7.95431 8.89886 7.66389 9.37309 7.44608 9.93197C7.23535 10.4726 7.09191 11.0904 7.05118 11.995C7.01063 12.9017 7 13.1915 7 15.5C7 17.8085 7.01027 18.0973 7.05135 19.0039C7.09297 19.9088 7.23623 20.5265 7.44625 21.067C7.66354 21.626 7.95396 22.1003 8.4266 22.5727C8.89888 23.0455 9.37312 23.3366 9.93182 23.5538C10.4726 23.7639 11.0905 23.9072 11.9952 23.9486C12.9019 23.9899 13.1914 24 15.4997 24C17.8084 24 18.0972 23.9899 19.0039 23.9486C19.9088 23.9072 20.5272 23.7639 21.068 23.5538C21.6269 23.3366 22.1004 23.0455 22.5727 22.5727C23.0455 22.1003 23.3359 21.626 23.5537 21.0671C23.7627 20.5265 23.9061 19.9087 23.9486 19.0041C23.9894 18.0975 24 17.8085 24 15.5C24 13.1915 23.9894 12.9018 23.9486 11.9952C23.9061 11.0903 23.7627 10.4726 23.5537 9.93215C23.3359 9.37309 23.0455 8.89886 22.5727 8.42641C22.0999 7.95359 21.6271 7.66318 21.0675 7.44625C20.5256 7.23605 19.9076 7.09279 19.0027 7.05135C18.096 7.01009 17.8073 7 15.4981 7H15.5008ZM14.7382 8.53175C14.9645 8.53139 15.2171 8.53175 15.5008 8.53175C17.7703 8.53175 18.0393 8.53989 18.9355 8.58062C19.7643 8.61852 20.2141 8.757 20.5137 8.87334C20.9104 9.0274 21.1932 9.21157 21.4905 9.50907C21.788 9.80657 21.9722 10.0899 22.1266 10.4866C22.2429 10.7858 22.3816 11.2356 22.4193 12.0644C22.46 12.9604 22.4689 13.2296 22.4689 15.498C22.4689 17.7665 22.46 18.0356 22.4193 18.9317C22.3814 19.7604 22.2429 20.2102 22.1266 20.5095C21.9725 20.9062 21.788 21.1886 21.4905 21.4859C21.193 21.7834 20.9105 21.9676 20.5137 22.1217C20.2144 22.2385 19.7643 22.3767 18.9355 22.4146C18.0395 22.4553 17.7703 22.4641 15.5008 22.4641C13.2311 22.4641 12.9621 22.4553 12.066 22.4146C11.2373 22.3763 10.7875 22.2378 10.4877 22.1215C10.091 21.9674 9.80765 21.7832 9.51015 21.4857C9.21264 21.1882 9.02847 20.9056 8.87406 20.5088C8.75771 20.2095 8.61905 19.7597 8.58133 18.931C8.5406 18.0349 8.53246 17.7658 8.53246 15.4959C8.53246 13.226 8.5406 12.9583 8.58133 12.0623C8.61923 11.2335 8.75771 10.7837 8.87406 10.4841C9.02812 10.0874 9.21264 9.80409 9.51015 9.50659C9.80765 9.20909 10.091 9.02492 10.4877 8.87051C10.7873 8.75363 11.2373 8.61551 12.066 8.57743C12.8501 8.54202 13.154 8.53139 14.7382 8.52962V8.53175ZM20.038 9.9431C19.4749 9.9431 19.018 10.3994 19.018 10.9628C19.018 11.5259 19.4749 11.9828 20.038 11.9828C20.6012 11.9828 21.0581 11.5259 21.0581 10.9628C21.0581 10.3996 20.6012 9.9431 20.038 9.9431ZM15.5008 11.1349C13.0902 11.1349 11.1357 13.0893 11.1357 15.5C11.1357 17.9106 13.0902 19.8642 15.5008 19.8642C17.9115 19.8642 19.8653 17.9106 19.8653 15.5C19.8653 13.0893 17.9115 11.1349 15.5008 11.1349ZM15.5008 12.6666C17.0655 12.6666 18.3341 13.9351 18.3341 15.5C18.3341 17.0647 17.0655 18.3333 15.5008 18.3333C13.9359 18.3333 12.6674 17.0647 12.6674 15.5C12.6674 13.9351 13.9359 12.6666 15.5008 12.6666Z" fill="white"/>
</svg>
