<svg width="32" height="32" viewBox="0 0 32 32" fill="none" xmlns="http://www.w3.org/2000/svg">
<path opacity="0.1" fill-rule="evenodd" clip-rule="evenodd" d="M0 16C0 7.16344 7.16344 0 16 0C24.8366 0 32 7.16344 32 16C32 24.8366 24.8366 32 16 32C7.16344 32 0 24.8366 0 16Z" fill="white"/>
<path d="M22.875 7H10.125C8.95306 7 8 7.95306 8 9.125V21.875C8 23.0469 8.95306 24 10.125 24H16.5V18.1562H14.375V15.5H16.5V13.375C16.5 11.6144 17.9269 10.1875 19.6875 10.1875H21.8125V12.8438H20.75C20.1635 12.8438 19.6875 12.7885 19.6875 13.375V15.5H22.3438L21.2812 18.1562H19.6875V24H22.875C24.0469 24 25 23.0469 25 21.875V9.125C25 7.95306 24.0469 7 22.875 7Z" fill="white"/>
</svg>
