<svg width="32" height="32" viewBox="0 0 32 32" fill="none" xmlns="http://www.w3.org/2000/svg">
<path opacity="0.1" fill-rule="evenodd" clip-rule="evenodd" d="M0 16C0 7.16344 7.16344 0 16 0C24.8366 0 32 7.16344 32 16C32 24.8366 24.8366 32 16 32C7.16344 32 0 24.8366 0 16Z" fill="white"/>
<path d="M23.9919 10.2566C23.0161 10.2566 22.1157 9.93466 21.3926 9.39162C20.5634 8.7691 19.9676 7.85593 19.7572 6.80343C19.7044 6.53878 19.6767 6.2698 19.6743 6H16.8867V13.5847L16.8833 17.7391C16.8833 18.8498 16.1569 19.7916 15.15 20.1228C14.8484 20.2221 14.5307 20.2641 14.2136 20.2465C13.7941 20.2236 13.401 20.0976 13.0593 19.894C12.3323 19.4611 11.8393 18.6756 11.826 17.7771C11.8049 16.3727 12.9451 15.2278 14.3545 15.2278C14.6327 15.2278 14.8999 15.273 15.15 15.3551V12.5368C14.8862 12.4979 14.6177 12.4776 14.3461 12.4776C12.8035 12.4776 11.3608 13.1161 10.3295 14.2664C9.54996 15.1357 9.0824 16.2447 9.01026 17.4076C8.91575 18.9353 9.47716 20.3875 10.5659 21.459C10.7259 21.6163 10.8939 21.7623 11.0695 21.897C12.003 22.6123 13.1442 23 14.3461 23C14.6177 23 14.8862 22.98 15.15 22.9411C16.2728 22.7755 17.3088 22.2637 18.1264 21.459C19.131 20.4703 19.686 19.1578 19.692 17.7608L19.6777 11.5568C20.1581 11.9258 20.6843 12.2313 21.2433 12.466C22.118 12.8335 23.0455 13.0197 24 13.0193V10.2559C24.0006 10.2566 23.9926 10.2566 23.9919 10.2566Z" fill="white"/>
</svg>
