<svg width="19" height="19" viewBox="0 0 19 19" fill="none" xmlns="http://www.w3.org/2000/svg">
<path d="M0.791527 1.58301H7.58403L8.76124 6.87926L7.28873 8.35176C8.15453 9.69919 9.30014 10.8445 10.6478 11.71L12.1203 10.2383L17.4165 11.4155V18.208H16.6249C13.5772 18.2132 10.5935 17.3343 8.03528 15.6778C6.14891 14.4571 4.54248 12.8506 3.32169 10.9643C1.66523 8.40607 0.78633 5.42233 0.791527 2.37467V1.58301ZM2.39624 3.16634C2.52964 5.63627 3.30723 8.02827 4.65169 10.1045C5.75078 11.8026 7.19694 13.2488 8.89503 14.3478C10.9713 15.6923 13.3633 16.4699 15.8332 16.6033V12.6853L12.6246 11.9728L10.9035 13.6947L10.3786 13.3963C8.3857 12.2637 6.73579 10.6138 5.60328 8.62092L5.30482 8.09605L7.02669 6.37497L6.31419 3.16634H2.39624Z" fill="white"/>
</svg>
