<svg width="36" height="36" viewBox="0 0 36 36" fill="none" xmlns="http://www.w3.org/2000/svg">
<path d="M30 33C27.583 33 25 31.687 25 28C25 25.929 26.118 24.522 27.199 23.162C27.622 22.63 28.05 22.092 28.438 21.496C26.883 20.077 25.172 19 24 19V17C25.621 17 27.603 18.133 29.382 19.67C29.76 18.675 30 17.493 30 16H32C32 18.169 31.552 19.816 30.923 21.149C32.368 22.691 33.514 24.379 33.948 25.683C34.636 27.749 34.431 29.911 33.413 31.325C32.635 32.405 31.422 33 30 33ZM29.87 22.948C29.502 23.478 29.123 23.956 28.765 24.406C27.779 25.646 27 26.627 27 28C27 30.479 28.632 31 30 31C30.784 31 31.387 30.716 31.791 30.155C32.431 29.267 32.532 27.76 32.052 26.316C31.725 25.338 30.902 24.114 29.87 22.948Z" fill="#99AAB5"/>
<path d="M21.2525 10H9.00047C6.79147 10 5.11747 11.791 5.26047 14L6.43047 32C6.57447 34.209 8.20547 36 10.0755 36H20.1775C22.0465 36 23.6785 34.209 23.8225 32L24.9935 14C25.1355 11.791 23.4615 10 21.2525 10Z" fill="#FFAC33"/>
<path d="M26 33H4C3.73478 33 3.48043 33.1054 3.29289 33.2929C3.10536 33.4804 3 33.7348 3 34V36H27V34C27 33.7348 26.8946 33.4804 26.7071 33.2929C26.5196 33.1054 26.2652 33 26 33Z" fill="#AAB8C2"/>
<path d="M31 9.99969C30.7348 9.99969 30.4804 9.89434 30.2929 9.7068C30.1054 9.51926 30 9.26491 30 8.99969V5.76369L32.105 1.55269C32.1638 1.43523 32.2451 1.33048 32.3443 1.24445C32.4436 1.15841 32.5588 1.09276 32.6834 1.05126C32.808 1.00975 32.9396 0.993192 33.0706 1.00253C33.2016 1.01187 33.3295 1.04693 33.447 1.10569C33.5645 1.16446 33.6692 1.24579 33.7552 1.34503C33.8413 1.44428 33.9069 1.5595 33.9484 1.68412C33.9899 1.80873 34.0065 1.9403 33.9972 2.07132C33.9878 2.20233 33.9528 2.33023 33.894 2.44769L32 6.23569V8.99969C32 9.26491 31.8946 9.51926 31.7071 9.7068C31.5196 9.89434 31.2652 9.99969 31 9.99969Z" fill="#FFAC33"/>
<path d="M33.5 16H32.723C32.895 15.705 33 15.366 33 15V11C33 10.262 32.596 9.624 32 9.277V9C32 8.73478 31.8946 8.48043 31.7071 8.29289C31.5196 8.10536 31.2652 8 31 8C30.7348 8 30.4804 8.10536 30.2929 8.29289C30.1054 8.48043 30 8.73478 30 9V9.277C29.6966 9.45099 29.4444 9.70187 29.2689 10.0044C29.0933 10.3068 29.0006 10.6503 29 11V15C29 15.366 29.105 15.705 29.277 16H28.5C28.3674 16 28.2402 16.0527 28.1464 16.1464C28.0527 16.2402 28 16.3674 28 16.5C28 16.6326 28.0527 16.7598 28.1464 16.8536C28.2402 16.9473 28.3674 17 28.5 17H33.5C33.6326 17 33.7598 16.9473 33.8536 16.8536C33.9473 16.7598 34 16.6326 34 16.5C34 16.3674 33.9473 16.2402 33.8536 16.1464C33.7598 16.0527 33.6326 16 33.5 16Z" fill="#BE1931"/>
<path d="M25 14C25 14.2652 25.1054 14.5196 25.2929 14.7071C25.4804 14.8946 25.7348 15 26 15H31C31.2652 15 31.5196 14.8946 31.7071 14.7071C31.8946 14.5196 32 14.2652 32 14C32 13.7348 31.8946 13.4804 31.7071 13.2929C31.5196 13.1054 31.2652 13 31 13H26C25.7348 13 25.4804 13.1054 25.2929 13.2929C25.1054 13.4804 25 13.7348 25 14Z" fill="#99AAB5"/>
<path d="M27 14C27 15.0609 26.5786 16.0783 25.8284 16.8284C25.0783 17.5786 24.0609 18 23 18H7C5.93913 18 4.92172 17.5786 4.17157 16.8284C3.42143 16.0783 3 15.0609 3 14V4C3 2.93913 3.42143 1.92172 4.17157 1.17157C4.92172 0.421427 5.93913 0 7 0L23 0C24.0609 0 25.0783 0.421427 25.8284 1.17157C26.5786 1.92172 27 2.93913 27 4V14Z" fill="#E1E8ED"/>
<path d="M25 14C25 14.5304 24.7893 15.0391 24.4142 15.4142C24.0391 15.7893 23.5304 16 23 16H7C6.46957 16 5.96086 15.7893 5.58579 15.4142C5.21071 15.0391 5 14.5304 5 14V4C5 3.46957 5.21071 2.96086 5.58579 2.58579C5.96086 2.21071 6.46957 2 7 2H23C23.5304 2 24.0391 2.21071 24.4142 2.58579C24.7893 2.96086 25 3.46957 25 4V14Z" fill="#66757F"/>
<path d="M13 5H22V8H13V5Z" fill="#AAB8C2"/>
</svg>
